<svg width="15" height="15" viewBox="0 0 15 15" fill="none" xmlns="http://www.w3.org/2000/svg">
<g clip-path="url(#clip0_58_53)">
<path d="M2.23652 0.368155L7.5 5.63141L12.7362 0.395426C12.8519 0.272322 12.9912 0.173844 13.1459 0.105895C13.3005 0.037947 13.4673 0.00192851 13.6362 0C13.9978 0 14.3447 0.143658 14.6004 0.399371C14.8561 0.655084 14.9998 1.00191 14.9998 1.36354C15.003 1.53071 14.9719 1.69677 14.9086 1.85152C14.8453 2.00628 14.751 2.14646 14.6316 2.26347L9.32722 7.49946L14.6316 12.8036C14.8563 13.0235 14.9881 13.3212 14.9998 13.6354C14.9998 13.997 14.8561 14.3438 14.6004 14.5996C14.3447 14.8553 13.9978 14.9989 13.6362 14.9989C13.4624 15.0061 13.289 14.9771 13.127 14.9137C12.9651 14.8504 12.818 14.754 12.6953 14.6308L7.5 9.36751L2.25016 14.6171C2.13494 14.7361 1.9973 14.8311 1.84517 14.8967C1.69304 14.9622 1.52945 14.9969 1.36382 14.9989C1.00217 14.9989 0.655334 14.8553 0.39961 14.5996C0.143886 14.3438 0.000221866 13.997 0.000221866 13.6354C-0.00295735 13.4682 0.0280602 13.3022 0.0913714 13.1474C0.154682 12.9926 0.248952 12.8525 0.368393 12.7354L5.67278 7.49946L0.368393 2.1953C0.143652 1.97544 0.0118665 1.67771 0.000221866 1.36354C0.000221866 1.00191 0.143886 0.655084 0.39961 0.399371C0.655334 0.143658 1.00217 0 1.36382 0C1.69108 0.00409062 2.00471 0.136354 2.23652 0.368155Z" fill="#B7D8FF"/>
</g>
<defs>
<clipPath id="clip0_58_53">
<rect width="15" height="15" fill="white"/>
</clipPath>
</defs>
</svg>
