<?xml version="1.0" encoding="utf-8"?><svg xmlns="http://www.w3.org/2000/svg" xmlns:xlink="http://www.w3.org/1999/xlink"><symbol viewBox="0 0 20 10" id="arrow-up" xmlns="http://www.w3.org/2000/svg"><g clip-path="url(#aclip0_49_9)"><path d="M19.608 9.657c.523-.457.523-1.192 0-1.648L10.751.272a1.082 1.082 0 00-.344-.201 1.196 1.196 0 00-.814 0 1.083 1.083 0 00-.344.201L.392 8.01c-.523.456-.523 1.191 0 1.648a1.471 1.471 0 001.886 0l7.727-6.74 7.728 6.749c.511.447 1.364.447 1.875-.01z"/></g><defs><clipPath id="aclip0_49_9"><path transform="rotate(-90 5 5)" d="M0 0h10v20H0z"/></clipPath></defs></symbol><symbol viewBox="0 0 15 15" id="close" xmlns="http://www.w3.org/2000/svg"><g clip-path="url(#bclip0_58_53)"><path d="M2.237.368L7.5 5.631 12.736.395a1.255 1.255 0 01.9-.395 1.364 1.364 0 011.273 1.852 1.227 1.227 0 01-.277.411L9.327 7.5l5.305 5.305c.224.22.356.517.368.831A1.364 1.364 0 0113.636 15a1.255 1.255 0 01-.94-.368L7.5 9.368l-5.25 5.25a1.256 1.256 0 01-.886.38 1.364 1.364 0 01-1.273-1.85c.064-.155.158-.296.277-.413L5.673 7.5.368 2.195A1.227 1.227 0 010 1.364 1.364 1.364 0 011.364 0c.327.004.64.136.873.368z"/></g><defs><clipPath id="bclip0_58_53"><path d="M0 0h15v15H0z"/></clipPath></defs></symbol><symbol viewBox="0 0 128 128" id="fb" xmlns="http://www.w3.org/2000/svg"><rect width="118.35" height="118.35" x="4.83" y="4.83" rx="6.53" ry="6.53"/><path d="M86.48 123.17V77.34h15.38l2.3-17.86H86.48v-11.4c0-5.17 1.44-8.7 8.85-8.7h9.46v-16A127 127 0 0091 22.7c-13.62 0-23 8.3-23 23.61v13.17H52.62v17.86H68v45.83z"/></symbol><symbol viewBox="0 0 26 26" id="phone" xmlns="http://www.w3.org/2000/svg"><g clip-path="url(#dclip0_35_95)"><path d="M20.65 25.694c-1.106 0-2.66-.4-4.986-1.7-2.83-1.587-5.019-3.052-7.833-5.859-2.713-2.711-4.033-4.467-5.881-7.83C-.138 6.51.218 4.518.616 3.668 1.089 2.65 1.789 2.043 2.692 1.44A9.991 9.991 0 014.316.578L4.473.51c.28-.127.705-.318 1.244-.114.36.135.68.411 1.182.907 1.03 1.015 2.437 3.277 2.956 4.388.348.748.579 1.243.58 1.797 0 .649-.327 1.15-.723 1.69-.074.1-.148.197-.22.292-.43.566-.525.73-.463 1.022.126.588 1.069 2.337 2.618 3.883 1.548 1.545 3.247 2.428 3.837 2.554.305.065.472-.034 1.057-.48l.26-.197c.604-.45 1.081-.767 1.715-.767h.003c.552 0 1.024.24 1.806.634 1.02.514 3.35 1.903 4.371 2.934.497.5.774.82.91 1.18.204.54.012.962-.114 1.246-.02.047-.044.098-.068.156a10.009 10.009 0 01-.866 1.62c-.603.9-1.213 1.598-2.232 2.072a3.82 3.82 0 01-1.675.367z"/></g><defs><clipPath id="dclip0_35_95"><path d="M0 0h26v26H0z"/></clipPath></defs></symbol></svg>