<svg width="12" height="9" viewBox="0 0 12 9" fill="none" xmlns="http://www.w3.org/2000/svg">
<g clip-path="url(#clip0_49_34)">
<path d="M3.84753 6.48105L10.1973 0.288629C10.3946 0.0962095 10.6457 0 10.9507 0C11.2556 0 11.5067 0.0962095 11.704 0.288629C11.9013 0.481049 12 0.725947 12 1.02332C12 1.3207 11.9013 1.5656 11.704 1.75802L4.6009 8.68513C4.38565 8.89504 4.13453 9 3.84753 9C3.56054 9 3.30942 8.89504 3.09417 8.68513L0.295964 5.95627C0.0986543 5.76385 0 5.51895 0 5.22157C0 4.9242 0.0986543 4.6793 0.295964 4.48688C0.493273 4.29446 0.744394 4.19825 1.04933 4.19825C1.35426 4.19825 1.60538 4.29446 1.80269 4.48688L3.84753 6.48105Z" fill="#2269EA"/>
</g>
<defs>
<clipPath id="clip0_49_34">
<rect width="12" height="9" fill="white"/>
</clipPath>
</defs>
</svg>
