<svg width="230" height="77" viewBox="0 0 230 77" fill="none" xmlns="http://www.w3.org/2000/svg">
<g clip-path="url(#clip0_63_91)">
<path fill-rule="evenodd" clip-rule="evenodd" d="M216.901 48.9552H226.387V46.4102C226.452 45.0508 225.992 43.7187 225.101 42.6911C224.668 42.2271 224.14 41.8622 223.553 41.6213C222.967 41.3805 222.335 41.2693 221.702 41.2954C221.056 41.2676 220.411 41.3777 219.811 41.6183C219.211 41.8589 218.669 42.2246 218.22 42.6911C217.31 43.7186 216.836 45.0622 216.901 46.4348V48.9552ZM221.734 38.069C222.839 38.0197 223.942 38.1999 224.974 38.5983C226.006 38.9968 226.945 39.6048 227.731 40.3841C228.498 41.2057 229.094 42.1732 229.482 43.2293C229.871 44.2855 230.044 45.4089 229.992 46.5333V56.8941H226.42V52.0831H216.901V56.8941H213.322V46.4102C213.271 45.2967 213.45 44.1847 213.848 43.1437C214.245 42.1026 214.852 41.1549 215.632 40.3595C216.442 39.5851 217.401 38.983 218.449 38.5894C219.498 38.1958 220.616 38.0187 221.734 38.069ZM210.839 38.4959V41.6238H201.575V56.8941H197.995V38.4959H210.839ZM181.562 51.6316C181.562 53.5363 181.079 54.9429 180.112 55.8515C179.145 56.76 177.652 57.2143 175.631 57.2143H174.624V54.0699H175.631C177.204 54.0699 177.988 53.2489 177.982 51.607V46.4102C177.917 45.2977 178.072 44.1834 178.437 43.1309C178.803 42.0785 179.372 41.1088 180.112 40.2774C180.887 39.5197 181.811 38.932 182.825 38.5518C183.839 38.1716 184.921 38.0072 186.002 38.069C187.055 38.0104 188.108 38.1803 189.089 38.5671C190.07 38.9539 190.956 39.5485 191.687 40.3102C193.052 41.8044 193.735 43.8788 193.735 46.5333V56.8941H190.155V46.4102C190.236 45.0646 189.848 43.7327 189.057 42.6418C188.683 42.1874 188.206 41.828 187.667 41.5926C187.127 41.3573 186.54 41.2526 185.953 41.2872C185.339 41.2488 184.725 41.3517 184.157 41.5879C183.589 41.8241 183.082 42.1874 182.676 42.6501C181.845 43.7296 181.432 45.0739 181.513 46.4348L181.562 51.6316ZM159.002 52.2966C160.187 53.4458 161.772 54.0882 163.421 54.0882C165.071 54.0882 166.655 53.4458 167.841 52.2966C168.954 51.025 169.568 49.3909 169.568 47.6991C169.568 46.0073 168.954 44.3732 167.841 43.1016C167.266 42.5072 166.573 42.0401 165.807 41.7304C165.041 41.4208 164.218 41.2754 163.393 41.3036C162.576 41.2789 161.763 41.4261 161.007 41.7358C160.251 42.0455 159.568 42.5108 159.002 43.1016C157.888 44.3732 157.274 46.0073 157.274 47.6991C157.274 49.3909 157.888 51.025 159.002 52.2966ZM170.47 54.6446C168.537 56.3835 166.031 57.3454 163.434 57.3454C160.836 57.3454 158.33 56.3835 156.397 54.6446C155.485 53.7434 154.769 52.6622 154.295 51.4695C153.822 50.2768 153.6 48.9985 153.645 47.7155C153.6 46.4325 153.822 45.1543 154.295 43.9616C154.769 42.7689 155.485 41.6877 156.397 40.7864C157.334 39.8841 158.443 39.1799 159.658 38.7159C160.872 38.2519 162.168 38.0375 163.466 38.0854C164.758 38.038 166.046 38.2529 167.252 38.7171C168.458 39.1812 169.559 39.8851 170.487 40.7864C171.395 41.6897 172.107 42.7716 172.578 43.9641C173.049 45.1566 173.269 46.4339 173.223 47.7155C173.265 48.9964 173.041 50.2721 172.566 51.4619C172.09 52.6517 171.374 53.7298 170.462 54.6282L170.47 54.6446ZM144.068 53.9139C145.027 53.9724 145.981 53.7377 146.804 53.2407C147.092 53.072 147.331 52.8326 147.5 52.5453C147.669 52.258 147.762 51.9322 147.771 51.5988C147.785 51.2447 147.706 50.8931 147.542 50.5791C147.378 50.2651 147.135 49.9996 146.837 49.809C146.017 49.3388 145.077 49.1191 144.134 49.1769H138.752V53.8975L144.068 53.9139ZM138.744 41.5253V46.2213H143.823C145.86 46.2213 146.878 45.4003 146.878 43.7584C146.876 43.433 146.794 43.1131 146.64 42.8268C146.486 42.5405 146.264 42.2966 145.993 42.1164C145.242 41.6226 144.351 41.3864 143.454 41.4432L138.744 41.5253ZM148.14 47.4446C149.064 47.8357 149.872 48.4609 150.483 49.259C151.014 49.9695 151.302 50.8337 151.302 51.7219C151.302 52.4152 151.153 53.1004 150.863 53.7298C150.573 54.3593 150.149 54.918 149.622 55.3671C148.281 56.4642 146.575 57.0126 144.847 56.9023H135.254V38.4959H143.634C145.434 38.3704 147.22 38.8978 148.664 39.9819C149.199 40.402 149.632 40.9376 149.931 41.5489C150.23 42.1601 150.388 42.8312 150.392 43.5121C150.406 44.308 150.202 45.0924 149.804 45.781C149.406 46.4696 148.827 47.0363 148.131 47.42L148.14 47.4446ZM130.888 50.7285H121.713V47.7566H130.888V50.7285ZM110.482 53.7005C111.682 53.7614 112.869 53.4301 113.865 52.7564C114.266 52.467 114.589 52.0837 114.808 51.64C115.026 51.1964 115.133 50.7058 115.119 50.2113C115.138 49.7372 115.042 49.2655 114.839 48.8366C114.637 48.4077 114.333 48.0343 113.955 47.7484C113.043 47.0903 111.932 46.7657 110.81 46.8289H107.902V53.6676L110.482 53.7005ZM110.851 43.7994C112.916 43.6899 114.951 44.3281 116.585 45.5974C117.259 46.1933 117.798 46.9271 118.165 47.7493C118.533 48.5715 118.72 49.4631 118.714 50.3639C118.709 51.2648 118.511 52.154 118.134 52.9717C117.757 53.7894 117.209 54.5166 116.528 55.1044C114.844 56.3679 112.772 57.001 110.671 56.8941H104.428V38.4959H107.943V43.7994H110.851ZM87.9958 51.6152C87.9958 53.5199 87.5125 54.9265 86.5458 55.835C85.5792 56.7436 84.0856 57.1979 82.0649 57.1979H81.041V54.0699H82.0486C83.6214 54.0699 84.4078 53.2489 84.4078 51.607V46.4102C84.3425 45.2977 84.4971 44.1834 84.8626 43.1309C85.2281 42.0785 85.7973 41.1088 86.5376 40.2774C87.3126 39.5197 88.2366 38.932 89.2506 38.5518C90.2647 38.1716 91.3466 38.0072 92.4275 38.069C93.4813 38.0124 94.5348 38.1833 95.517 38.57C96.4992 38.9566 97.3871 39.5501 98.1208 40.3102C99.4861 41.8044 100.169 43.8788 100.169 46.5333V56.8941H96.5807V46.4102C96.6613 45.0646 96.2733 43.7327 95.483 42.6418C95.1115 42.1947 94.6413 41.8403 94.1096 41.6066C93.5779 41.3729 92.9992 41.2664 92.4193 41.2954C91.8056 41.257 91.1913 41.3599 90.6233 41.5961C90.0554 41.8323 89.5489 42.1956 89.1426 42.6583C88.3118 43.7378 87.8987 45.0821 87.9794 46.443L87.9958 51.6152ZM65.28 48.9552H74.7661V46.4102C74.8318 45.0507 74.371 43.7183 73.48 42.6911C73.0484 42.2273 72.5219 41.8624 71.9366 41.6215C71.3512 41.3807 70.7208 41.2694 70.0886 41.2954C69.4413 41.2659 68.7952 41.3751 68.1935 41.6158C67.5917 41.8565 67.0481 42.2231 66.5989 42.6911C65.6884 43.7186 65.2151 45.0622 65.28 46.4348V48.9552ZM70.1132 38.069C71.218 38.0192 72.3211 38.1992 73.3531 38.5976C74.3851 38.9961 75.3236 39.6043 76.1095 40.3841C76.8795 41.2045 77.4771 42.1716 77.8669 43.2279C78.2567 44.2842 78.4307 45.4083 78.3787 46.5333V56.8941H74.7989V52.0831H65.28V56.8941H61.7002V46.4102C61.6508 45.2968 61.8303 44.1851 62.2277 43.1442C62.6251 42.1033 63.2319 41.1554 64.0103 40.3595C64.8219 39.5841 65.7818 38.9814 66.832 38.5877C67.8823 38.1941 69.0012 38.0176 70.1214 38.069H70.1132ZM53.8689 38.4959H57.4487V56.8941H53.9672V54.1356C53.283 55.1632 52.3463 55.9969 51.2472 56.5563C50.1482 57.1157 48.9239 57.3819 47.6923 57.3292C46.7088 57.3843 45.7247 57.2323 44.8034 56.8831C43.8821 56.5338 43.044 55.995 42.3431 55.3014C41.0543 53.9495 40.4099 52.0339 40.4099 49.5545V38.4959H43.9896V48.3477C43.8842 49.866 44.2567 51.3792 45.0546 52.6743C45.4787 53.1819 46.0191 53.5792 46.6296 53.8322C47.2401 54.0852 47.9026 54.1865 48.5606 54.1274C49.3021 54.1572 50.04 54.0088 50.7126 53.6946C51.3852 53.3804 51.9731 52.9095 52.4272 52.3212C53.4046 50.9938 53.9015 49.3722 53.8361 47.7237L53.8689 38.4959ZM30.0391 53.8893C30.9953 53.9456 31.9461 53.711 32.7669 53.2161C33.054 53.0473 33.2935 52.808 33.4626 52.5207C33.6317 52.2334 33.725 51.9076 33.7336 51.5741C33.7475 51.22 33.6686 50.8685 33.5048 50.5545C33.3409 50.2404 33.0978 49.9749 32.7997 49.7844C31.9773 49.3117 31.0344 49.0919 30.0882 49.1522H24.7226V53.8729L30.0391 53.8893ZM24.7144 41.5007V46.2213H29.7933C31.8303 46.2213 32.8516 45.4003 32.857 43.7584C32.8543 43.4331 32.7723 43.1135 32.6181 42.8273C32.4639 42.5412 32.2422 42.2971 31.9723 42.1164C31.2208 41.6226 30.3298 41.3864 29.4329 41.4432L24.7144 41.5007ZM34.1104 47.42C35.0434 47.8162 35.8567 48.4502 36.4696 49.259C37.0013 49.9695 37.2888 50.8337 37.2888 51.7219C37.2891 52.416 37.1382 53.1017 36.8467 53.7313C36.5553 54.3609 36.1302 54.9191 35.6013 55.3671C34.2625 56.4637 32.5593 57.0121 30.8337 56.9023H21.2329V38.4959H29.6131C31.7976 38.4959 33.4742 38.9912 34.6429 39.9819C35.1775 40.402 35.6106 40.9376 35.9099 41.5489C36.2091 42.1601 36.3669 42.8312 36.3713 43.5121C36.3847 44.308 36.1813 45.0924 35.7829 45.781C35.3845 46.4696 34.8063 47.0363 34.1104 47.42ZM3.5797 48.9552H13.0576V46.4102C13.1247 45.0519 12.667 43.7199 11.7797 42.6911C11.3465 42.2271 10.8186 41.8622 10.2319 41.6213C9.64519 41.3805 9.01355 41.2693 8.38007 41.2954C7.73688 41.2694 7.0955 41.3804 6.49822 41.621C5.90094 41.8615 5.36133 42.2263 4.91496 42.6911C4.00449 43.7186 3.53115 45.0622 3.59608 46.4348L3.5797 48.9552ZM8.41284 38.069C9.5176 38.0197 10.6206 38.1999 11.6525 38.5983C12.6844 38.9968 13.623 39.6048 14.4092 40.3841C15.1769 41.2057 15.7725 42.1732 16.1608 43.2293C16.5492 44.2855 16.7223 45.4089 16.6701 46.5333V56.8941H13.1067V52.0831H3.5797V56.8941H-9.79556e-05V46.4102C-0.0505284 45.2967 0.128574 44.1847 0.526031 43.1437C0.923488 42.1026 1.53077 41.1549 2.30998 40.3595C3.12062 39.5851 4.07914 38.983 5.12792 38.5894C6.17669 38.1958 7.29406 38.0187 8.41284 38.069Z" fill="#005BFF"/>
<path fill-rule="evenodd" clip-rule="evenodd" d="M217.155 68.2729V66.2287H215.443C214.602 66.2287 214.182 66.5762 214.182 67.2713C214.182 67.9664 214.602 68.3003 215.443 68.2729H217.155ZM215.443 64.5867H219.162V72.5913H217.188V69.9559H215.845C215.587 69.9533 215.333 70.0186 215.109 70.1455C214.885 70.2723 214.698 70.4561 214.567 70.6784C214.219 71.2567 214.051 71.9253 214.083 72.5995H211.863C211.798 71.9026 211.95 71.2026 212.298 70.5955C212.645 69.9885 213.172 69.5041 213.805 69.2089C213.296 69.0888 212.832 68.8236 212.47 68.4453C212.135 68.0816 211.956 67.6014 211.97 67.1071C211.968 66.762 212.045 66.4211 212.196 66.1108C212.346 65.8004 212.566 65.529 212.838 65.3174C213.592 64.7708 214.516 64.5117 215.443 64.5867ZM207.612 64.5867H209.955V72.5913H207.915V67.2713L204.434 72.5913H202.123V64.5867H204.163V69.8738L207.612 64.5867ZM197.667 64.5867H199.805V72.5913H197.667V69.4716H194.112V72.5913H191.974V64.5867H194.112V67.6654H197.667V64.5867ZM186.281 66.0316C185.801 66.0221 185.331 66.1722 184.945 66.4586C184.542 66.7407 184.252 67.1566 184.126 67.6326H188.181C188.101 67.1702 187.861 66.7512 187.501 66.4503C187.148 66.1688 186.707 66.0206 186.256 66.0316H186.281ZM190.196 68.2893C190.197 68.6249 190.17 68.96 190.114 69.2909H184.143C184.27 69.8094 184.556 70.2747 184.962 70.6209C185.391 70.9714 185.932 71.155 186.485 71.1382C187.299 71.1077 188.081 70.8203 188.722 70.3172L189.86 71.5569C189.402 71.9945 188.86 72.3355 188.268 72.5597C187.676 72.784 187.044 72.8868 186.412 72.8622C185.831 72.8853 185.251 72.7903 184.708 72.5829C184.164 72.3755 183.668 72.06 183.25 71.6554C182.844 71.2554 182.526 70.775 182.316 70.2449C182.106 69.7148 182.008 69.1467 182.029 68.5767C182.01 68.0173 182.106 67.4599 182.311 66.9389C182.515 66.418 182.823 65.9444 183.217 65.5473C183.62 65.1562 184.098 64.8507 184.621 64.6489C185.145 64.4472 185.704 64.3534 186.264 64.3733C186.79 64.3377 187.317 64.4157 187.809 64.602C188.302 64.7882 188.749 65.0783 189.121 65.4527C189.492 65.8271 189.779 66.2771 189.961 66.7721C190.144 67.2672 190.219 67.7958 190.18 68.3222L190.196 68.2893ZM178.171 64.5867H180.309V72.5913H167.022V64.5867H169.135V70.6045H172.576V64.5867H174.714V70.6045H178.146L178.171 64.5867ZM161.353 66.0316C160.871 66.0215 160.398 66.1716 160.01 66.4586C159.623 66.748 159.348 67.1628 159.231 67.6326H163.286C163.207 67.1702 162.966 66.7512 162.606 66.4503C162.244 66.1614 161.791 66.0128 161.328 66.0316H161.353ZM165.269 68.2893C165.27 68.6249 165.242 68.96 165.187 69.2909H159.215C159.342 69.8094 159.629 70.2747 160.034 70.6209C160.463 70.9714 161.004 71.155 161.558 71.1382C162.371 71.1088 163.154 70.8213 163.794 70.3172L164.933 71.5569C164.473 71.9948 163.93 72.3359 163.336 72.56C162.742 72.7842 162.11 72.887 161.476 72.8622C160.896 72.8842 160.318 72.7886 159.776 72.5812C159.234 72.3739 158.74 72.0589 158.322 71.6554C157.916 71.2554 157.598 70.775 157.388 70.2449C157.178 69.7148 157.08 69.1467 157.102 68.5767C157.083 68.0173 157.179 67.4599 157.383 66.9389C157.587 66.418 157.896 65.9444 158.289 65.5473C158.692 65.1562 159.17 64.8507 159.694 64.6489C160.217 64.4472 160.776 64.3534 161.337 64.3733C161.862 64.3377 162.389 64.4157 162.882 64.602C163.375 64.7882 163.822 65.0783 164.193 65.4527C164.564 65.8271 164.851 66.2771 165.034 66.7721C165.217 67.2672 165.291 67.7958 165.252 68.3222L165.269 68.2893ZM149.909 70.2761C150.343 70.6723 150.912 70.8868 151.498 70.8754C152.083 70.888 152.65 70.6732 153.079 70.2761C153.3 70.0653 153.473 69.8099 153.588 69.5268C153.702 69.2437 153.755 68.9394 153.743 68.6342C153.761 68.3236 153.712 68.0128 153.601 67.7226C153.489 67.4323 153.317 67.1693 153.096 66.9511C152.669 66.5538 152.105 66.3388 151.523 66.3518C150.919 66.3325 150.331 66.5505 149.885 66.9594C149.655 67.1748 149.476 67.4378 149.359 67.7298C149.241 68.0219 149.189 68.3361 149.205 68.6506C149.199 68.9564 149.258 69.2599 149.38 69.5404C149.501 69.8209 149.682 70.0719 149.909 70.2761ZM151.818 64.3486C152.353 64.3379 152.884 64.4389 153.377 64.6453C153.871 64.8516 154.316 65.1588 154.685 65.5473C155.436 66.3815 155.852 67.4653 155.852 68.589C155.852 69.7127 155.436 70.7965 154.685 71.6307C154.317 72.0207 153.872 72.3294 153.378 72.5372C152.885 72.745 152.353 72.8473 151.818 72.8376C151.35 72.8496 150.885 72.7546 150.459 72.5597C150.034 72.3648 149.658 72.0752 149.36 71.7128V77H147.206V64.5867H149.328V65.4652C149.627 65.1021 150.006 64.8127 150.435 64.6192C150.864 64.4256 151.331 64.3331 151.801 64.3486H151.818ZM136.54 66.0316C136.041 66.0239 135.555 66.1892 135.164 66.4996C134.761 66.7812 134.47 67.1973 134.345 67.6736H138.441C138.361 67.2112 138.12 66.7922 137.761 66.4914C137.415 66.1969 136.977 66.0341 136.524 66.0316H136.54ZM140.456 68.2893C140.457 68.6249 140.43 68.96 140.374 69.2909H134.402C134.529 69.8094 134.816 70.2747 135.221 70.6209C135.653 70.9733 136.197 71.157 136.753 71.1382C137.566 71.1077 138.349 70.8203 138.99 70.3172L140.079 71.5322C139.621 71.9699 139.079 72.3109 138.487 72.5351C137.894 72.7593 137.263 72.8622 136.63 72.8376C136.059 72.8529 135.49 72.7541 134.957 72.5469C134.424 72.3397 133.937 72.0283 133.526 71.6307C133.12 71.2307 132.802 70.7504 132.592 70.2203C132.382 69.6902 132.284 69.1221 132.305 68.5521C132.287 67.9926 132.382 67.4353 132.587 66.9143C132.791 66.3933 133.099 65.9197 133.493 65.5226C133.896 65.1316 134.374 64.826 134.897 64.6243C135.421 64.4226 135.98 64.3288 136.54 64.3486C137.066 64.3131 137.593 64.3911 138.085 64.5773C138.578 64.7636 139.025 65.0537 139.397 65.4281C139.768 65.8025 140.055 66.2525 140.237 66.7475C140.42 67.2425 140.495 67.7712 140.456 68.2976V68.2893ZM123.54 70.7523C123.892 70.7684 124.239 70.6705 124.531 70.4732C124.657 70.3789 124.757 70.2541 124.821 70.1105C124.886 69.9669 124.913 69.8091 124.9 69.6522C124.896 69.5111 124.86 69.3729 124.793 69.2488C124.726 69.1246 124.631 69.0181 124.515 68.9379C124.232 68.7255 123.885 68.6181 123.532 68.6342H121.959V70.7112L123.54 70.7523ZM128.234 72.5585V64.5867H130.372V72.5913L128.234 72.5585ZM126.915 69.6932C126.932 70.0893 126.859 70.4841 126.7 70.8471C126.54 71.2101 126.3 71.5316 125.997 71.7867C125.297 72.3304 124.425 72.6042 123.54 72.5585H120.026V64.5867H121.959V66.9101H123.532C124.424 66.873 125.298 67.1651 125.989 67.7311C126.279 67.9763 126.511 68.2835 126.667 68.6302C126.823 68.9769 126.899 69.3541 126.89 69.7343L126.915 69.6932ZM115.569 64.5457H117.707V72.5503H115.569V69.4305H112.014V72.5503H109.876V64.5867H112.014V67.6654H115.569V64.5457ZM105.42 64.5457H107.558V72.5503H105.42V69.4305H101.865V72.5503H99.7346V64.5867H101.865V67.6654H105.42V64.5457ZM93.7792 70.8508C94.0678 70.8595 94.3548 70.8069 94.6217 70.6965C94.8885 70.5862 95.129 70.4205 95.3275 70.2104C95.7192 69.7615 95.9352 69.1854 95.9352 68.589C95.9352 67.9926 95.7192 67.4165 95.3275 66.9676C95.1268 66.7581 94.8848 66.593 94.6167 66.4827C94.3487 66.3724 94.0607 66.3195 93.771 66.3272C93.4822 66.3199 93.195 66.3722 92.9272 66.481C92.6594 66.5898 92.4169 66.7526 92.2146 66.9594C92.005 67.1759 91.8422 67.4335 91.7365 67.7161C91.6307 67.9986 91.5844 68.3 91.6002 68.6013C91.5886 68.9022 91.637 69.2024 91.7425 69.4843C91.848 69.7662 92.0085 70.0242 92.2146 70.2433C92.4202 70.4462 92.6651 70.6049 92.9342 70.7093C93.2033 70.8138 93.4909 70.862 93.7792 70.8508ZM96.8512 71.6307C96.0046 72.4044 94.9003 72.8332 93.7547 72.8332C92.609 72.8332 91.5047 72.4044 90.6582 71.6307C89.8728 70.8138 89.434 69.7235 89.434 68.589C89.434 67.4545 89.8728 66.3642 90.6582 65.5473C91.069 65.1489 91.5555 64.8375 92.0889 64.6316C92.6223 64.4257 93.1916 64.3294 93.7629 64.3486C94.3298 64.3289 94.8949 64.4241 95.4242 64.6287C95.9535 64.8333 96.4361 65.1429 96.843 65.5391C97.2434 65.9323 97.558 66.4046 97.7667 66.9261C97.9754 67.4476 98.0737 68.0069 98.0553 68.5685C98.0763 69.1346 97.9801 69.6989 97.7729 70.2259C97.5657 70.7529 97.2518 71.2312 96.8512 71.6307ZM85.4646 64.5867H87.7993V72.5913H85.7595V67.2713L82.278 72.5913H79.9761V64.5867H82.0159V69.8738L85.4646 64.5867ZM77.0599 70.6045H78.477V75.1446H76.339V72.5995H69.3678V64.5867H71.4813V70.6045H74.9218V64.5867H77.0599V70.6045ZM61.1842 70.2761C61.6107 70.6735 62.1749 70.8885 62.757 70.8754C63.3474 70.885 63.919 70.6676 64.3544 70.2679C64.7875 69.8167 65.0293 69.215 65.0293 68.589C65.0293 67.963 64.7875 67.3613 64.3544 66.9101C63.9203 66.5147 63.3518 66.3003 62.7652 66.3108C62.1807 66.2982 61.6141 66.513 61.1842 66.9101C60.7581 67.3664 60.521 67.9681 60.521 68.5931C60.521 69.2181 60.7581 69.8198 61.1842 70.2761ZM64.9279 64.5867H67.0495V72.5913H64.9361V71.7128C64.6386 72.0752 64.2627 72.3648 63.8369 72.5597C63.4111 72.7546 62.9465 72.8496 62.4785 72.8376C61.9432 72.8473 61.4117 72.745 60.918 72.5372C60.4243 72.3294 59.9793 72.0207 59.6114 71.6307C58.8602 70.7965 58.4444 69.7127 58.4444 68.589C58.4444 67.4653 58.8602 66.3815 59.6114 65.5473C59.98 65.1588 60.4254 64.8516 60.919 64.6453C61.4126 64.4389 61.9438 64.3379 62.4785 64.3486C62.9465 64.3366 63.4111 64.4317 63.8369 64.6266C64.2627 64.8214 64.6386 65.1111 64.9361 65.4734L64.9279 64.5867ZM53.8035 71.015C54.6226 71.015 55.0568 70.7359 55.0568 70.194C55.0603 70.0749 55.0363 69.9566 54.9865 69.8483C54.9368 69.7401 54.8627 69.6448 54.7701 69.5701C54.5493 69.4026 54.2767 69.3183 54.0001 69.332H51.6654V71.015H53.8035ZM51.6654 66.1712V67.7311H54.0001C54.0983 67.7348 54.1962 67.7169 54.2868 67.6786C54.3774 67.6403 54.4585 67.5826 54.5243 67.5094C54.6628 67.348 54.7333 67.139 54.7209 66.9265C54.7209 66.4175 54.4178 66.163 53.8035 66.163L51.6654 66.1712ZM55.5401 68.47C55.9953 68.5387 56.4109 68.7686 56.7115 69.118C57.012 69.4675 57.1777 69.9133 57.1785 70.3746C57.1841 70.6885 57.1123 70.9989 56.9694 71.2782C56.8265 71.5575 56.6169 71.797 56.3593 71.9756C55.6009 72.4425 54.716 72.6606 53.828 72.5995H49.7322V64.5867H53.828C55.7176 64.5867 56.6624 65.2599 56.6624 66.6063C56.6776 66.9929 56.5794 67.3755 56.3799 67.7067C56.1805 68.038 55.8885 68.3033 55.5401 68.47ZM43.7604 70.8508C44.0489 70.8595 44.336 70.8069 44.6028 70.6965C44.8696 70.5862 45.1101 70.4205 45.3086 70.2104C45.7004 69.7615 45.9163 69.1854 45.9163 68.589C45.9163 67.9926 45.7004 67.4165 45.3086 66.9676C44.892 66.5579 44.3317 66.3284 43.7481 66.3284C43.1644 66.3284 42.6041 66.5579 42.1875 66.9676C41.9779 67.1841 41.8151 67.4418 41.7094 67.7243C41.6037 68.0068 41.5573 68.3082 41.5732 68.6095C41.5616 68.9104 41.6099 69.2106 41.7154 69.4925C41.8209 69.7744 41.9814 70.0324 42.1875 70.2515C42.3945 70.4544 42.641 70.6124 42.9116 70.7155C43.1822 70.8186 43.4712 70.8647 43.7604 70.8508ZM46.8323 71.6307C45.9857 72.4044 44.8814 72.8332 43.7358 72.8332C42.5902 72.8332 41.4858 72.4044 40.6393 71.6307C39.8558 70.8128 39.4183 69.7229 39.4183 68.589C39.4183 67.4552 39.8558 66.3652 40.6393 65.5473C41.4867 64.7754 42.5907 64.3477 43.7358 64.3477C44.8809 64.3477 45.9849 64.7754 46.8323 65.5473C47.6107 66.3695 48.0447 67.4597 48.0447 68.5931C48.0447 69.7265 47.6107 70.8168 46.8323 71.639V71.6307ZM35.6505 64.5867H37.7886V72.5913H35.6505V69.4716H32.0953V72.5913H29.9572V64.5867H32.0953V67.6654H35.6505V64.5867ZM25.5009 64.5867H27.639V72.5913H25.5009V69.4716H21.9457V72.5913H19.8077V64.5867H21.9457V67.6654H25.5009V64.5867ZM15.1547 64.5867H17.4976V72.5913H15.4578V67.2713L11.9763 72.5913H9.66626V64.5867H11.6978V69.8738L15.1547 64.5867Z" fill="#FF0956"/>
<path fill-rule="evenodd" clip-rule="evenodd" d="M54.2622 29.2352C53.6995 29.2352 53.1598 29.0112 52.7619 28.6124C52.364 28.2136 52.1405 27.6728 52.1405 27.1089C52.1405 26.5449 52.364 26.0041 52.7619 25.6053C53.1598 25.2065 53.6995 24.9825 54.2622 24.9825C59.2673 24.9825 64.8459 19.0714 70.4245 13.1604C76.6421 6.59249 82.8596 0.0246295 89.6588 0.0246295C96.4579 0.0246295 102.675 6.59249 108.893 13.1604C114.48 19.0714 120.058 24.9825 125.064 24.9825C130.069 24.9825 135.647 19.0714 141.234 13.1604C147.452 6.56787 153.669 0 160.46 0C161.023 0 161.562 0.224025 161.96 0.622792C162.358 1.02156 162.582 1.5624 162.582 2.12635C162.582 2.69029 162.358 3.23113 161.96 3.6299C161.562 4.02867 161.023 4.25269 160.46 4.25269C155.463 4.25269 149.876 10.1638 144.29 16.0748C138.072 22.6427 131.855 29.2106 125.055 29.2106C118.256 29.2106 112.039 22.6427 105.821 16.0748C100.234 10.1638 94.6557 4.25269 89.6506 4.25269C84.6454 4.25269 79.0668 10.1638 73.48 16.0748C67.2707 22.6509 61.0531 29.2352 54.2622 29.2352Z" fill="#005BFF"/>
<path fill-rule="evenodd" clip-rule="evenodd" d="M69.5398 29.2352C68.9771 29.2352 68.4375 29.0112 68.0396 28.6124C67.6417 28.2136 67.4182 27.6728 67.4182 27.1089C67.4182 26.5449 67.6417 26.0041 68.0396 25.6053C68.4375 25.2065 68.9771 24.9825 69.5398 24.9825C74.545 24.9825 80.1236 19.0714 85.7103 13.1604C91.9279 6.56787 98.1373 0 104.936 0C111.736 0 117.961 6.56786 124.171 13.1357C129.749 19.0468 135.336 24.9579 140.341 24.9579C145.346 24.9579 150.925 19.0468 156.512 13.1357C162.729 6.56786 168.947 0 175.746 0C176.309 0 176.848 0.224025 177.246 0.622792C177.644 1.02156 177.868 1.5624 177.868 2.12635C177.868 2.69029 177.644 3.23113 177.246 3.6299C176.848 4.02867 176.309 4.25269 175.746 4.25269C170.749 4.25269 165.162 10.1638 159.584 16.0748C153.366 22.6427 147.149 29.2106 140.349 29.2106C133.55 29.2106 127.333 22.6427 121.115 16.0748C115.537 10.1638 109.95 4.25269 104.945 4.25269C99.9394 4.25269 94.3608 10.1638 88.7741 16.0748C82.5565 22.6509 76.339 29.2352 69.5398 29.2352Z" fill="#005BFF"/>
</g>
<defs>
<clipPath id="clip0_63_91">
<rect width="230" height="77" fill="white"/>
</clipPath>
</defs>
</svg>
