<svg width="43" height="58" viewBox="0 0 43 58" fill="none" xmlns="http://www.w3.org/2000/svg">
<g clip-path="url(#clip0_82_71)">
<path d="M10.191 57.2858C8.88933 57.2858 7.75082 56.8675 6.77545 56.0309C5.79834 55.1961 5.22301 54.1358 5.04946 52.8501L0.428589 18.7144H42.4286L37.8077 52.8501C37.6342 54.1358 37.0588 55.1961 36.0817 56.0309C35.1064 56.8675 33.9678 57.2858 32.6662 57.2858H10.191ZM10.191 52.1429H32.6662L36.441 23.8572H6.35111L10.191 52.1429ZM21.6889 39.2858C23.8583 39.2858 25.7024 38.5358 27.2209 37.0358C28.7395 35.5358 29.4988 33.7144 29.4988 31.5715V26.4286H24.2922V31.5715C24.2922 32.3001 24.0432 32.9104 23.5451 33.4024C23.0452 33.8961 22.4265 34.1429 21.6889 34.1429C20.9513 34.1429 20.3335 33.8961 19.8354 33.4024C19.3355 32.9104 19.0856 32.3001 19.0856 31.5715V26.4286H13.879V31.5715C13.879 33.7144 14.6383 35.5358 16.1569 37.0358C17.6755 38.5358 19.5195 39.2858 21.6889 39.2858ZM29.065 16.1429C27.9802 16.1429 27.0587 15.7675 26.3002 15.0166C25.5401 14.2675 25.16 13.3572 25.16 12.2858C25.16 11.2144 25.5401 10.3041 26.3002 9.55493C27.0587 8.80407 27.9802 8.42864 29.065 8.42864C30.1497 8.42864 31.0712 8.80407 31.8297 9.55493C32.5898 10.3041 32.9699 11.2144 32.9699 12.2858C32.9699 13.3572 32.5898 14.2675 31.8297 15.0166C31.0712 15.7675 30.1497 16.1429 29.065 16.1429ZM16.0484 13.5715C14.2261 13.5715 12.6858 12.9501 11.4276 11.7072C10.1693 10.4644 9.54016 8.94293 9.54016 7.14293C9.54016 5.34293 10.1693 3.8215 11.4276 2.57864C12.6858 1.33578 14.2261 0.714355 16.0484 0.714355C17.8707 0.714355 19.411 1.33578 20.6693 2.57864C21.9276 3.8215 22.5567 5.34293 22.5567 7.14293C22.5567 8.94293 21.9276 10.4644 20.6693 11.7072C19.411 12.9501 17.8707 13.5715 16.0484 13.5715Z" fill="#2269EA"/>
</g>
<defs>
<clipPath id="clip0_82_71">
<rect width="43" height="58" fill="white"/>
</clipPath>
</defs>
</svg>
