<svg width="53" height="52" viewBox="0 0 53 52" fill="none" xmlns="http://www.w3.org/2000/svg">
<g clip-path="url(#clip0_82_69)">
<path d="M40.5 17.5L38.875 14.0625L35.5 12.5L38.875 10.9375L40.5 7.5L42.0625 10.9375L45.5 12.5L42.0625 14.0625L40.5 17.5ZM48 30C46.625 30 45.4475 29.51 44.4675 28.53C43.4892 27.5517 43 26.375 43 25C43 24.1667 43.2808 23.115 43.8425 21.845C44.4058 20.5733 45.4375 18.8125 46.9375 16.5625C47.2292 16.1042 47.5833 15.875 48 15.875C48.4167 15.875 48.7708 16.1042 49.0625 16.5625C50.5625 18.8125 51.5942 20.5733 52.1575 21.845C52.7192 23.115 53 24.1667 53 25C53 26.375 52.5108 27.5517 51.5325 28.53C50.5525 29.51 49.375 30 48 30ZM35.5 24.125L30.5 22.25C30.4167 20.25 29.6567 18.5417 28.22 17.125C26.7817 15.7083 25.0417 15 23 15C21.625 15 20.365 15.3433 19.22 16.03C18.0733 16.7183 17.1667 17.625 16.5 18.75H11.125C11.8333 16.625 13.0108 14.7917 14.6575 13.25C16.3025 11.7083 18.25 10.7083 20.5 10.25V5H19.25C18.5417 5 17.9483 4.76 17.47 4.28C16.99 3.80167 16.75 3.20833 16.75 2.5C16.75 1.79167 16.99 1.1975 17.47 0.7175C17.9483 0.239166 18.5417 0 19.25 0H30.5C31.125 0 31.75 0.0416665 32.375 0.125C33 0.208333 33.6875 0.395834 34.4375 0.6875C35.3958 1.02083 36 1.5725 36.25 2.3425C36.5 3.11417 36.375 3.85417 35.875 4.5625C35.5417 5.0625 35.0833 5.375 34.5 5.5C33.9167 5.625 33.3333 5.58333 32.75 5.375C32.4167 5.25 32.0625 5.15583 31.6875 5.0925C31.3125 5.03083 30.9167 5 30.5 5H25.5V10.25C28.375 10.8333 30.7608 12.26 32.6575 14.53C34.5525 16.8017 35.5 19.4583 35.5 22.5V24.125ZM32.875 46L47.75 41.375C47.5417 41 47.24 40.6775 46.845 40.4075C46.4483 40.1358 46 40 45.5 40H32.875C31.75 40 30.8542 39.9583 30.1875 39.875C29.5208 39.7917 28.8333 39.625 28.125 39.375L24.5625 38.1875C23.8958 37.9792 23.4167 37.5625 23.125 36.9375C22.8333 36.3125 22.7917 35.6667 23 35C23.2083 34.3333 23.615 33.8433 24.22 33.53C24.8233 33.2183 25.4583 33.1667 26.125 33.375L28.75 34.25C29.4583 34.4583 30.2608 34.625 31.1575 34.75C32.0525 34.875 33.2708 34.9583 34.8125 35H35.5C35.5 34.5417 35.365 34.1042 35.095 33.6875C34.8233 33.2708 34.5 33 34.125 32.875L19.5 27.5H15.5V41.25L32.875 46ZM31.5625 50.875L15.5 46.375C15.1667 47.4583 14.5108 48.3333 13.5325 49C12.5525 49.6667 11.5417 50 10.5 50H5.5C4.125 50 2.94833 49.5108 1.97 48.5325C0.99 47.5525 0.5 46.375 0.5 45V27.5C0.5 26.125 0.99 24.9475 1.97 23.9675C2.94833 22.9892 4.125 22.5 5.5 22.5H19.5C19.7917 22.5 20.0833 22.5308 20.375 22.5925C20.6667 22.6558 20.9375 22.7292 21.1875 22.8125L35.875 28.25C37.25 28.75 38.365 29.625 39.22 30.875C40.0733 32.125 40.5 33.5 40.5 35H45.5C47.5833 35 49.3542 35.6875 50.8125 37.0625C52.2708 38.4375 53 40.25 53 42.5C53 43.4167 52.76 44.1358 52.28 44.6575C51.8017 45.1775 51.0625 45.6042 50.0625 45.9375L34.4375 50.8125C33.9792 50.9792 33.5 51.0625 33 51.0625C32.5 51.0625 32.0208 51 31.5625 50.875ZM5.5 45H10.5V27.5H5.5V45Z" fill="#2269EA"/>
</g>
<defs>
<clipPath id="clip0_82_69">
<rect width="53" height="52" fill="white"/>
</clipPath>
</defs>
</svg>
