<svg width="46" height="44" viewBox="0 0 46 44" fill="none" xmlns="http://www.w3.org/2000/svg">
<g clip-path="url(#clip0_82_73)">
<path d="M37.625 42.875L26.5625 31.8125L31.8125 26.5625L42.875 37.625C43.5833 38.3333 43.9375 39.2083 43.9375 40.25C43.9375 41.2917 43.5833 42.1667 42.875 42.875C42.1667 43.5833 41.2917 43.9375 40.25 43.9375C39.2083 43.9375 38.3333 43.5833 37.625 42.875ZM3.125 42.875C2.41667 42.1667 2.0625 41.2917 2.0625 40.25C2.0625 39.2083 2.41667 38.3333 3.125 37.625L17.75 23L13.5 18.75C12.9583 19.2917 12.3542 19.5417 11.6875 19.5C11.0208 19.4583 10.4583 19.2083 10 18.75L8.5625 17.3125V22.4375L8.125 22.875C7.75 23.25 7.3125 23.4375 6.8125 23.4375C6.3125 23.4375 5.875 23.25 5.5 22.875L0.5625 17.9375C0.1875 17.5625 0 17.125 0 16.625C0 16.125 0.1875 15.6875 0.5625 15.3125L1 14.875H6.125L4.75 13.5C4.25 13 4 12.4167 4 11.75C4 11.0833 4.25 10.5 4.75 10L11.875 2.875C12.7083 2.04167 13.6042 1.4375 14.5625 1.0625C15.5208 0.6875 16.5 0.5 17.5 0.5C18.5 0.5 19.4792 0.6875 20.4375 1.0625C21.3958 1.4375 22.2917 2.04167 23.125 2.875L17.375 8.625L18.75 10C19.2083 10.4583 19.4583 11.0208 19.5 11.6875C19.5417 12.3542 19.2917 12.9583 18.75 13.5L23 17.75L28.625 12.125C28.4583 11.6667 28.3233 11.1875 28.22 10.6875C28.115 10.1875 28.0625 9.6875 28.0625 9.1875C28.0625 6.72917 28.9067 4.65583 30.595 2.9675C32.2817 1.28083 34.3542 0.4375 36.8125 0.4375C37.4375 0.4375 38.0317 0.5 38.595 0.625C39.1567 0.75 39.7292 0.9375 40.3125 1.1875L34.125 7.375L38.625 11.875L44.8125 5.6875C45.1042 6.27083 45.3025 6.84333 45.4075 7.405C45.5108 7.96833 45.5625 8.5625 45.5625 9.1875C45.5625 11.6458 44.7192 13.7183 43.0325 15.405C41.3442 17.0933 39.2708 17.9375 36.8125 17.9375C36.3125 17.9375 35.8125 17.8958 35.3125 17.8125C34.8125 17.7292 34.3333 17.5833 33.875 17.375L8.375 42.875C7.66667 43.5833 6.79167 43.9375 5.75 43.9375C4.70833 43.9375 3.83333 43.5833 3.125 42.875Z" fill="#2269EA"/>
</g>
<defs>
<clipPath id="clip0_82_73">
<rect width="46" height="44" fill="white"/>
</clipPath>
</defs>
</svg>
