<svg width="20" height="10" viewBox="0 0 20 10" fill="none" xmlns="http://www.w3.org/2000/svg">
<g clip-path="url(#clip0_49_9)">
<path d="M19.6083 9.65669C20.1306 9.2005 20.1306 8.46501 19.6083 8.00883L10.7514 0.272265C10.6528 0.185958 10.5357 0.117486 10.4067 0.0707669C10.2778 0.0240484 10.1396 5.10459e-07 10 5.1656e-07C9.86041 5.22662e-07 9.72219 0.0240484 9.59326 0.070767C9.46432 0.117486 9.3472 0.185958 9.2486 0.272265L0.391687 8.00883C-0.130562 8.46501 -0.130562 9.2005 0.391687 9.65669C0.913936 10.1129 1.75593 10.1129 2.27818 9.65669L10.0053 2.91629L17.7325 9.666C18.2441 10.1129 19.0967 10.1129 19.6083 9.65669Z" fill="#2269EA"/>
</g>
<defs>
<clipPath id="clip0_49_9">
<rect width="10" height="20" fill="white" transform="translate(0 10) rotate(-90)"/>
</clipPath>
</defs>
</svg>
