<svg width="26" height="26" viewBox="0 0 26 26" fill="none" xmlns="http://www.w3.org/2000/svg">
<g clip-path="url(#clip0_35_95)">
<path d="M20.6503 25.6939C19.5441 25.6939 17.9903 25.2938 15.6635 23.9938C12.834 22.4071 10.6454 20.9422 7.83124 18.1354C5.11793 15.4237 3.79755 13.6681 1.94957 10.3054C-0.138112 6.50859 0.217769 4.51838 0.615584 3.66778C1.08934 2.65114 1.78863 2.04308 2.6925 1.43955C3.20589 1.10319 3.74919 0.814846 4.3155 0.578187C4.37217 0.553819 4.42487 0.530585 4.47191 0.509617C4.75242 0.383246 5.17743 0.192271 5.71579 0.396279C6.07507 0.531152 6.39582 0.807129 6.8979 1.30298C7.92758 2.31849 9.33467 4.58015 9.85375 5.69086C10.2023 6.43945 10.4329 6.93361 10.4335 7.48783C10.4335 8.13669 10.1071 8.63708 9.71095 9.17713C9.63671 9.27857 9.56304 9.37547 9.49164 9.46954C9.06039 10.0362 8.96575 10.2 9.02809 10.4924C9.15446 11.0801 10.0969 12.8294 11.6456 14.3748C13.1944 15.9202 14.8933 16.8031 15.4832 16.9289C15.7881 16.994 15.9553 16.8954 16.5401 16.4489C16.624 16.3849 16.7101 16.3186 16.8002 16.2522C17.4043 15.8029 17.8815 15.485 18.515 15.485H18.5184C19.0698 15.485 19.5419 15.7241 20.3239 16.1185C21.3439 16.6331 23.6736 18.022 24.6953 19.0528C25.1923 19.5538 25.4694 19.8734 25.6049 20.2321C25.8089 20.7722 25.6168 21.1955 25.4915 21.4788C25.4706 21.5259 25.4473 21.5774 25.423 21.6347C25.1844 22.2 24.8944 22.7421 24.5565 23.2543C23.9541 24.1553 23.3438 24.8529 22.3249 25.3272C21.8017 25.5747 21.2291 25.7001 20.6503 25.6939Z" fill="#FF0956"/>
</g>
<defs>
<clipPath id="clip0_35_95">
<rect width="26" height="26" fill="white"/>
</clipPath>
</defs>
</svg>
