<svg width="100" height="100" viewBox="0 0 100 100" fill="none" xmlns="http://www.w3.org/2000/svg">
<rect width="100" height="100" rx="10" fill="#2269EA"/>
<g clip-path="url(#clip0_203_20)">
<path d="M60.8582 47.075C55.8509 41.975 55.4091 32.65 55.4091 31H51.7273V36H41.9091V31H37C37 28.25 39.2091 26 41.9091 26H59.0909V28.5C59.0909 28.7 59.1891 40.075 63.46 44.425L60.8582 47.075ZM61.5455 26V31H64V26H61.5455ZM56.6364 51C51.7273 46 51.7273 38.5 51.7273 38.5H41.9091V43.5C41.9091 46 41.9091 46 39.4545 48.5C37 51 37 53.5 37 53.5V71C37 73.75 39.2091 76 41.9091 76H51.7273C54.4273 76 56.6364 73.75 56.6364 71V51Z" fill="white"/>
</g>
<defs>
<clipPath id="clip0_203_20">
<rect width="27" height="50" fill="white" transform="translate(37 26)"/>
</clipPath>
</defs>
</svg>
