<svg width="17" height="15" viewBox="0 0 17 15" fill="none" xmlns="http://www.w3.org/2000/svg">
<path d="M16.036 4.86624H14.3703L10.7262 0.3111C10.563 0.107054 10.2652 0.0738932 10.061 0.237206C9.85692 0.400486 9.82382 0.698304 9.98713 0.902413L13.1582 4.86624H3.70583L6.87691 0.902413C7.04019 0.698304 7.00709 0.400455 6.80302 0.237206C6.59888 0.0738932 6.30106 0.107023 6.13781 0.3111L2.49367 4.86624H0.828014C0.566638 4.86624 0.354736 5.07814 0.354736 5.33952V6.28607C0.354736 6.54745 0.566638 6.75935 0.828014 6.75935H16.036C16.2974 6.75935 16.5093 6.54745 16.5093 6.28607V5.33952C16.5093 5.07814 16.2974 4.86624 16.036 4.86624ZM3.21261 13.9885C3.24086 14.0874 3.30056 14.1744 3.38267 14.2364C3.46478 14.2983 3.56483 14.3318 3.66768 14.3318H13.1963C13.2992 14.3318 13.3992 14.2983 13.4813 14.2364C13.5634 14.1744 13.6232 14.0874 13.6514 13.9885L15.4464 7.7059H1.41759L3.21261 13.9885ZM10.5997 11.8876L11.073 9.04796C11.116 8.79012 11.3598 8.61583 11.6177 8.65893C11.8755 8.7019 12.0497 8.94573 12.0067 9.20358L11.5334 12.0432C11.4948 12.2747 11.2943 12.4388 11.0672 12.4388C11.0413 12.4388 11.0151 12.4367 10.9888 12.4323C10.7309 12.3893 10.5568 12.1454 10.5997 11.8876ZM7.95873 9.12574C7.95873 8.86436 8.17063 8.65246 8.43201 8.65246C8.69338 8.65246 8.90528 8.86436 8.90528 9.12574V11.9654C8.90528 12.2268 8.69338 12.4387 8.43201 12.4387C8.17063 12.4387 7.95873 12.2268 7.95873 11.9654V9.12574ZM5.2779 8.65893C5.53577 8.61598 5.77957 8.79012 5.82254 9.04796L6.29582 11.8876C6.3388 12.1454 6.16463 12.3893 5.90679 12.4323C5.88047 12.4367 5.85425 12.4388 5.82841 12.4388C5.60121 12.4388 5.40073 12.2748 5.36214 12.0432L4.88886 9.20358C4.84589 8.94573 5.02005 8.70187 5.2779 8.65893Z" fill="#FDC043"/>
</svg>
