<svg width="76" height="70" viewBox="0 0 76 70" fill="none" xmlns="http://www.w3.org/2000/svg">
<path fill-rule="evenodd" clip-rule="evenodd" d="M97.0157 84.0144C96.0127 85.1442 95.2892 86.4941 94.1633 87.6597C93.417 87.124 92.5297 86.8195 91.6117 86.7842C90.6938 86.7489 89.7857 86.9843 89.0004 87.4611C88.2152 87.9379 87.5875 88.6351 87.1955 89.4658C86.8034 90.2966 86.6642 91.2243 86.7953 92.1335C86.8686 92.8841 87.1655 93.5954 87.6477 94.1752C86.494 95.3289 85.1144 96.0346 83.9806 97.0495C83.2799 96.1873 82.2952 95.6026 81.2028 95.4C80.1104 95.1974 78.9816 95.3902 78.0183 95.9438C77.055 96.4975 76.3202 97.3758 75.9454 98.4217C75.5705 99.4676 75.5801 100.613 75.9724 101.652C74.6107 102.398 73.1725 102.995 71.6828 103.432C71.3599 102.702 70.8559 102.067 70.2186 101.587C69.5814 101.107 68.8319 100.797 68.0415 100.688C67.251 100.578 66.4457 100.673 65.702 100.962C64.9582 101.251 64.3006 101.725 63.7916 102.34C63.0694 103.36 62.7068 104.592 62.7609 105.841L61.4387 106.057C60.3784 106.323 59.2889 106.455 58.1958 106.449C57.9625 105.619 57.6049 104.828 57.1353 104.104C56.6945 103.555 56.1128 103.137 55.4524 102.893C54.7949 102.608 54.0807 102.478 53.365 102.513C52.6492 102.547 51.9509 102.746 51.3239 103.093C50.697 103.44 50.158 103.926 49.7486 104.514C49.3392 105.102 49.0703 105.776 48.9626 106.485L45.6582 106.13L44.3777 105.92L44.3559 105.854C44.4753 104.872 44.2774 103.878 43.7912 103.016C43.305 102.155 42.5559 101.471 41.6535 101.066C40.751 100.66 39.7426 100.554 38.7755 100.763C37.8084 100.971 36.9333 101.484 36.2783 102.225C35.9453 102.685 35.7213 103.155 35.422 103.549C34.3675 102.986 33.1563 102.643 32.0126 102.15C31.7114 102.073 31.4289 101.936 31.182 101.747C31.6078 100.703 31.6387 99.5385 31.269 98.4725C30.8993 97.4066 30.1544 96.5116 29.1731 95.9547C28.1919 95.3978 27.0416 95.2171 25.9368 95.4463C24.8321 95.6755 23.8486 96.2989 23.1699 97.2001C22.0618 96.1793 20.6941 95.4815 19.5384 94.3616C20.0552 93.694 20.3791 92.8976 20.4749 92.0588C20.5707 91.22 20.4346 90.3711 20.0816 89.6042C19.7879 88.9716 19.3563 88.4127 18.8184 87.9687C18.2806 87.5247 17.6501 87.2068 16.9732 87.0384C16.2964 86.8699 15.5905 86.8552 14.9072 86.9953C14.2239 87.1354 13.5808 87.4268 13.0248 87.848L12.7929 87.6161L10.1883 84.2185C11.0095 83.5848 11.5972 82.6963 11.8591 81.6925C12.121 80.6888 12.0423 79.6265 11.6353 78.6723C11.1517 77.5443 10.2407 76.654 9.10181 76.1966C7.96296 75.7392 6.68921 75.752 5.55976 76.2321L4.16032 72.9932L3.77973 71.9704L3.80352 71.9466C4.3784 71.7033 4.89932 71.3484 5.33615 70.9025C5.77297 70.4566 6.11702 69.9284 6.34838 69.3487C6.57973 68.7689 6.6938 68.149 6.68399 67.5248C6.67418 66.9007 6.54068 66.2847 6.29122 65.7125C5.87379 64.8061 5.17705 64.0573 4.3031 63.5757C3.42915 63.0942 2.42393 62.9052 1.43476 63.0365L1.4189 63.0206C1.35349 61.9284 1.11959 60.7906 0.978847 59.7142C0.838859 59.2941 0.817591 58.8434 0.917398 58.4119C1.7195 58.2975 2.47785 57.9757 3.11752 57.4784C3.75718 56.9811 4.25601 56.3255 4.5647 55.5764C4.8734 54.8273 4.98128 54.0106 4.87768 53.207C4.77408 52.4034 4.46259 51.6408 3.97399 50.9944C3.36337 50.1509 2.47824 49.5461 1.47044 49.2838L0.873792 49.1985L0.853968 48.9646L1.30988 45.6147C1.37529 45.2202 1.28014 44.6731 1.69641 44.5899C2.80104 44.6797 3.90148 44.3724 4.79971 43.7232C5.69794 43.074 6.33498 42.1255 6.59618 41.0485C6.85738 39.9714 6.72559 38.8365 6.22454 37.8479C5.72349 36.8594 4.88607 36.0821 3.86299 35.656C4.33904 34.1802 4.93434 32.7457 5.64302 31.3664C6.58554 31.7639 7.63247 31.8412 8.62314 31.5864C9.61381 31.3315 10.4935 30.7587 11.1272 29.9557C11.761 29.1528 12.1137 28.1641 12.1314 27.1413C12.149 26.1185 11.8306 25.1182 11.225 24.2939L10.2913 23.3246C11.3062 22.2264 12.0535 20.8765 13.122 19.701C13.8322 20.2636 14.6931 20.6034 15.5962 20.6775C16.4992 20.7516 17.404 20.5566 18.1965 20.1173C18.7905 19.7945 19.3074 19.3465 19.7114 18.8044C20.1154 18.2622 20.3969 17.6388 20.5364 16.9772C20.6759 16.3156 20.67 15.6316 20.5193 14.9725C20.3686 14.3134 20.0765 13.6949 19.6633 13.1597C20.7999 12.0932 22.038 11.1405 23.3602 10.3152C23.6818 10.7852 24.1114 11.1713 24.6129 11.4411C25.1382 11.771 25.7242 11.9923 26.3364 12.0919C26.9486 12.1916 27.5746 12.1675 28.1773 12.0212C28.7801 11.8748 29.3474 11.6092 29.8458 11.2399C30.3441 10.8706 30.7635 10.4052 31.0789 9.87118C31.6499 8.8849 31.8568 7.7296 31.6637 6.60646L31.3783 5.64706L33.8104 4.56278L35.6024 3.87694C35.9923 4.66133 36.5379 5.35804 37.206 5.92457C37.7687 6.32596 38.4129 6.59849 39.0929 6.72279C39.7728 6.84708 40.4718 6.82009 41.1401 6.64373C41.8085 6.46738 42.4297 6.14599 42.9598 5.7024C43.4899 5.25881 43.9158 4.70391 44.2072 4.07714C44.4947 3.25502 44.6265 2.38651 44.5957 1.5161C45.5785 1.29314 46.5774 1.14799 47.583 1.082L49.1608 0.907561C49.3399 1.729 49.6714 2.5096 50.138 3.20892C50.616 3.79973 51.2303 4.26557 51.9282 4.56633C52.626 4.86708 53.3865 4.99375 54.1442 4.93544C54.9019 4.87713 55.634 4.63558 56.2777 4.23158C56.9213 3.82758 57.4571 3.27323 57.839 2.61624C58.1176 2.07241 58.3128 1.4897 58.4178 0.887737C59.9543 0.923231 61.4827 1.12258 62.9769 1.48241C62.9184 2.69717 63.2399 3.89998 63.8967 4.92355C64.3959 5.57259 65.0568 6.07923 65.8132 6.39286C66.5696 6.70648 67.395 6.8161 68.2071 6.71076C69.0191 6.60542 69.7893 6.28881 70.4406 5.79256C71.0919 5.29632 71.6016 4.63782 71.9187 3.88288L73.007 4.28527C74.12 4.61751 75.1924 5.07294 76.2043 5.6431C75.7711 6.68866 75.7337 7.85627 76.0992 8.92739C76.4647 9.99851 77.2081 10.8997 78.1901 11.4623C79.1722 12.0249 80.3256 12.2103 81.4345 11.9838C82.5433 11.7574 83.5317 11.1345 84.2145 10.232C85.3126 11.2151 86.6665 11.9664 87.8499 13.0269C87.4242 13.5843 87.1296 14.2305 86.9881 14.9175C86.8467 15.6044 86.862 16.3145 87.0328 16.9947C87.2037 17.675 87.5258 18.3079 87.9751 18.8465C88.4244 19.3851 88.9893 19.8154 89.6279 20.1054C90.3935 20.453 91.2398 20.5841 92.0746 20.4845C92.9095 20.3849 93.7011 20.0584 94.3635 19.5405C95.3923 20.7477 96.2922 22.0044 97.1703 23.2036C96.2732 23.8898 95.6565 24.879 95.4352 25.9865C95.2139 27.094 95.4032 28.2443 95.9678 29.2224C96.5324 30.2006 97.4336 30.9399 98.5033 31.3024C99.573 31.6648 100.738 31.6256 101.781 31.192C102.237 32.3219 102.734 33.4418 103.153 34.5459L103.492 35.4835C102.668 35.8802 101.955 36.4756 101.418 37.216C101.081 37.7302 100.848 38.3059 100.734 38.9101C100.619 39.5143 100.625 40.1352 100.75 40.7372C100.876 41.3392 101.119 41.9106 101.466 42.4186C101.812 42.9266 102.255 43.3613 102.77 43.6979C103.727 44.1974 104.795 44.447 105.874 44.4234C106.17 45.9437 106.231 47.476 106.469 48.9825C105.843 49.1097 105.239 49.3267 104.675 49.6267C104.073 49.9941 103.562 50.4929 103.181 51.0857C102.799 51.6785 102.556 52.35 102.47 53.0498C102.385 53.7497 102.459 54.4599 102.686 55.1273C102.914 55.7946 103.289 56.4018 103.785 56.9035C104.492 57.6296 105.424 58.0949 106.429 58.2236L106.449 58.3307L105.843 62.8105L105.777 62.8323C104.677 62.7227 103.574 63.0089 102.665 63.6395C101.757 64.2701 101.104 65.2038 100.822 66.2729C100.54 67.3421 100.649 68.4766 101.128 69.4729C101.608 70.4692 102.427 71.2619 103.438 71.7087C102.947 73.1859 102.338 74.6211 101.616 76.0002C100.573 75.5845 99.4143 75.5592 98.3535 75.9289C97.2927 76.2985 96.4008 77.0384 95.8415 78.0126C95.2822 78.9869 95.0931 80.1301 95.3088 81.2326C95.5244 82.335 96.1305 83.3227 97.0157 84.0144ZM83.158 22.8686L82.0499 21.8478L79.6018 19.8279C77.3014 18.106 74.8485 16.5978 72.2736 15.3223C64.3687 11.5927 55.5237 10.3307 46.8912 11.7008C44.9248 12.0338 43.004 12.571 41.0238 13.1002C38.921 13.7641 36.8726 14.5892 34.8967 15.5681C32.4951 16.7846 30.2036 18.2072 28.0481 19.82C27.1006 20.4583 26.3672 21.3423 25.3781 22.0658C24.2983 22.8862 23.3301 23.8437 22.4979 24.9143L20.4027 27.3068C18.9799 29.1973 17.6693 31.1697 16.4779 33.2139C13.3538 38.7543 11.5316 44.9331 11.1493 51.2822C10.7671 57.6313 11.8348 63.984 14.2716 69.8593C15.409 72.5875 16.7951 75.2052 18.4125 77.6791C19.0865 78.7496 19.9587 79.6217 20.7317 80.7239C21.5638 81.8101 22.4819 82.8276 23.4771 83.7666L24.5634 84.8528L27.0748 87.0234C28.9751 88.4639 30.961 89.7878 33.0215 90.9878C38.6161 94.0877 44.8415 95.8767 51.2282 96.2201C57.6149 96.5635 63.9963 95.4522 69.8909 92.9701C73.3553 91.4232 76.6424 89.5064 79.695 87.2533L82.5355 84.837L83.4117 83.9608C84.5981 82.9499 85.6607 81.8022 86.5773 80.5415L88.7736 77.6514C90.3337 75.2885 91.6873 72.7955 92.8193 70.2002C95.6471 63.6327 96.7628 56.4552 96.0622 49.3392C95.3616 42.2231 92.8675 35.4011 88.8132 29.5111C87.1699 27.102 85.2741 24.8752 83.158 22.8686ZM80.5038 26.1611C86.5158 31.8527 90.4558 39.3883 91.6994 47.5731C91.9293 48.9686 91.9888 50.3799 92.1374 51.7735L92.1672 53.7259L77.8317 53.7577L77.8337 52.9905L77.7782 51.7774L77.4214 49.0697C76.9134 46.4501 75.9821 43.9307 74.6641 41.6106C72.3141 37.7218 68.9785 34.523 64.9948 32.3377C61.6201 30.5442 57.8662 29.582 54.0449 29.5309C50.2235 29.4799 46.4452 30.3416 43.0238 32.0444C41.5717 32.7767 40.1913 33.6434 38.9008 34.6331L37.0851 36.1951L35.3962 38.0109C34.8412 38.7681 34.2446 39.329 33.7708 40.0605C32.794 41.5434 31.9616 43.1165 31.2851 44.7584C29.9238 48.0241 29.3144 51.5542 29.5021 55.0874C29.6898 58.6205 30.6697 62.0662 32.3694 65.1693C34.1095 68.4448 36.5854 71.2721 39.6025 73.4293C42.6717 75.5376 46.1611 76.9564 49.8308 77.588C51.1311 77.8021 52.4513 77.6911 53.7338 77.8556L53.71 92.2029L51.811 92.1435C50.2629 91.9789 48.7326 91.9076 47.1607 91.64C42.4775 90.851 37.9819 89.1974 33.9036 86.7637C32.6409 86.0164 31.5368 85.1145 30.2405 84.2106C27.5687 82.2557 25.2139 79.901 23.2591 77.2292C21.9916 75.4799 20.8299 73.6563 19.7803 71.7682C16.887 66.2957 15.3757 60.1989 15.3781 54.0087C15.3806 47.8185 16.8966 41.7228 19.7941 36.2526C20.9064 34.2456 22.1355 32.3056 23.4751 30.4427L25.5921 27.9848C26.2618 27.0949 27.0532 26.3035 27.9431 25.6338L30.2087 23.6655C32.0978 22.2641 34.0741 20.9843 36.1257 19.8339C41.252 17.1377 46.9236 15.6404 52.7127 15.455C58.5019 15.2696 64.2576 16.4008 69.546 18.7634C72.1486 19.9874 74.6306 21.4527 76.9595 23.1402L79.3224 25.0749L80.5038 26.1611ZM67.4885 38.883C70.5368 41.6785 72.6363 45.3558 73.4941 49.4018C74.3519 53.4479 73.9252 57.6608 72.2736 61.4527C70.143 66.3699 66.2117 70.2855 61.2861 72.3965C58.5079 73.5556 55.5039 74.0727 52.498 73.9094C49.4922 73.746 46.562 72.9063 43.9258 71.453C42.5916 70.6456 41.3176 69.7427 40.1139 68.7512L38.6372 67.219L37.3269 65.6669C36.3991 64.3338 35.6156 62.9059 34.9899 61.4071C33.3122 57.2399 33.0579 52.6352 34.2666 48.3086C35.4753 43.982 38.0793 40.1759 41.6739 37.4816C42.7706 36.6911 43.934 35.9973 45.1508 35.4082C47.8687 34.1436 50.8321 33.4941 53.8298 33.5061C56.8274 33.5181 59.7856 34.1913 62.4933 35.4776C63.6893 36.0683 64.8298 36.7655 65.9007 37.5609L67.4885 38.883ZM66.2278 39.9297L64.8006 38.7601C63.745 38.0062 62.6261 37.345 61.4565 36.7839C58.993 35.6726 56.3182 35.1079 53.6157 35.1284C50.9133 35.1489 48.2473 35.7543 45.8009 36.9028C44.7418 37.4175 43.7273 38.0195 42.7681 38.7027C40.5261 40.3186 38.6866 42.4295 37.3923 44.8713C36.0482 47.2792 35.2682 49.9606 35.1109 52.7137C34.9536 55.4668 35.4233 58.2196 36.4845 60.7648C37.137 62.2846 37.9518 63.7294 38.9147 65.0742L40.1912 66.5212L41.3409 67.6709C42.5108 68.5967 43.742 69.4424 45.0259 70.2022C47.4179 71.4668 50.0601 72.1864 52.7631 72.3094C55.466 72.4324 58.1627 71.9558 60.6597 70.9138C65.2581 68.9521 68.9142 65.2803 70.8563 60.6736C72.3428 57.1658 72.6962 53.2812 71.867 49.5627C71.0379 45.8442 69.0677 42.4777 66.2317 39.9336L66.2278 39.9297ZM65.2763 41.2855C65.916 41.9253 66.5195 42.6003 67.0841 43.3074C66.0273 43.7633 65.1912 44.6151 64.755 45.6801C64.7132 46.2899 64.9021 46.8932 65.2844 47.3701C65.6666 47.8471 66.2142 48.163 66.8185 48.255C67.757 48.1569 68.6434 47.7752 69.3597 47.1608C69.8863 48.5542 70.2676 49.9984 70.4975 51.4702L68.7056 51.4741C68.3299 51.5631 67.9697 51.7081 67.6371 51.9043C67.3534 52.1303 67.127 52.4201 66.9762 52.75C66.8255 53.08 66.7547 53.4409 66.7695 53.8033C66.7844 54.1658 66.8845 54.5196 67.0618 54.8361C67.2391 55.1526 67.4885 55.4229 67.7898 55.6249C68.6189 56.0054 69.5465 56.1163 70.442 55.9421L70.4638 56.0907L70.2041 57.5001C69.9661 58.4632 69.6499 59.4052 69.2586 60.3168L68.4935 59.8926C68.1589 59.6267 67.768 59.4407 67.3506 59.349C66.9331 59.2573 66.5003 59.2622 66.085 59.3634C65.7952 59.4836 65.5364 59.6679 65.3281 59.9026C65.1198 60.1373 64.9674 60.4162 64.8825 60.7183C64.7976 61.0203 64.7823 61.3378 64.8378 61.6466C64.8933 61.9554 65.0182 62.2477 65.203 62.5013C65.7846 63.0736 66.4711 63.5286 67.2248 63.8412C66.2406 64.9914 65.1761 66.0705 64.0394 67.0703C63.5692 66.0292 62.7263 65.2018 61.6766 64.7511C61.0652 64.7141 60.462 64.906 59.9842 65.2892C59.5064 65.6724 59.1883 66.2197 59.0918 66.8245C59.1814 67.7618 59.5596 68.6483 60.174 69.3617C58.8094 69.9798 57.3533 70.3715 55.8627 70.5213C55.9401 69.6771 55.8697 68.8259 55.6546 68.0059C55.4669 67.6711 55.1989 67.3883 54.8746 67.1829C54.5503 66.9775 54.1801 66.8561 53.7972 66.8296C53.4143 66.803 53.0308 66.8722 52.6813 67.0308C52.3318 67.1895 52.0273 67.4326 51.7952 67.7383C51.4252 68.6137 51.2768 69.5669 51.3631 70.5134L51.3135 70.4639C49.8096 70.3536 48.3401 69.9601 46.9823 69.3043L46.9823 69.2606C47.795 68.1863 48.8318 66.3805 47.3946 65.3993C47.0606 65.1269 46.6665 64.938 46.245 64.8482C45.5993 64.9544 44.9972 65.2421 44.509 65.6777C44.0207 66.1132 43.6665 66.6788 43.4877 67.3082L42.3895 66.4241C41.6042 65.7313 40.891 64.9609 40.2606 64.1247C42.0347 63.2109 43.2696 62.0236 42.2726 60.2812C41.998 59.8026 41.5593 59.4399 41.0376 59.2603C40.4945 59.2189 39.9487 59.2878 39.4329 59.4629C38.9172 59.638 38.4422 59.9157 38.0366 60.2792C37.4474 58.9198 37.0485 57.4857 36.8512 56.0174C37.4671 55.8939 38.0989 55.8698 38.7224 55.946C39.2827 55.8433 39.7891 55.5473 40.1536 55.1095C40.3514 54.8444 40.4895 54.5396 40.5583 54.216C40.627 53.8924 40.6249 53.5578 40.552 53.2351C40.4791 52.9124 40.3372 52.6094 40.136 52.3468C39.9348 52.0842 39.6791 51.8683 39.3865 51.714C38.5928 51.4358 37.7413 51.3648 36.9126 51.5078L36.8968 51.4285L37.0653 50.4077C37.2227 49.2426 37.5865 48.115 38.1396 47.0776C38.5867 47.5954 39.1983 47.9437 39.8717 48.0643C40.5451 48.1848 41.2395 48.0702 41.8385 47.7396C42.0909 47.5044 42.2821 47.2112 42.3955 46.8853C43.0813 45.2757 41.6541 44.2608 40.1337 43.5968C41.1007 42.4182 42.1736 41.3307 43.339 40.3479L43.4242 40.4331C44.2806 42.122 45.573 43.2519 47.1746 42.344C47.6633 42.0628 48.0347 41.6154 48.2212 41.0833C48.2667 40.5412 48.202 39.9955 48.031 39.479C47.86 38.9626 47.5862 38.4861 47.2262 38.0783C48.5771 37.4397 50.0284 37.04 51.5157 36.8969L51.5137 37.1962C51.7397 37.8186 51.3868 38.548 51.6386 39.2002C51.7701 39.5222 51.973 39.8101 52.2319 40.0423C52.4908 40.2746 52.7991 40.445 53.1335 40.5408C53.4678 40.6366 53.8196 40.6553 54.1622 40.5954C54.5048 40.5356 54.8294 40.3988 55.1114 40.1953C55.4521 39.9209 55.7133 39.5605 55.868 39.1514C56.0228 38.7423 56.0654 38.2993 55.9916 37.8681C55.9418 37.7096 55.9315 37.5414 55.9616 37.378C55.9916 37.2146 56.0611 37.061 56.164 36.9305C57.6204 37.1437 59.0405 37.5566 60.3842 38.1575C59.2265 39.553 58.5129 42.0625 60.9927 42.572C61.6619 42.5244 62.2983 42.2643 62.8093 41.8297C63.3202 41.395 63.679 40.8085 63.8332 40.1556L63.8689 40.12L65.2763 41.2855ZM62.1464 39.3092C62.3274 39.461 62.4464 39.6739 62.4809 39.9077C62.5153 40.1414 62.4628 40.3796 62.3332 40.5772C62.2036 40.7747 62.006 40.9178 61.778 40.9793C61.5499 41.0408 61.3071 41.0165 61.0958 40.9109C60.9252 40.8014 60.7929 40.6414 60.7174 40.4533C60.6419 40.2652 60.6268 40.0582 60.6743 39.8612C60.7219 39.6641 60.8296 39.4867 60.9826 39.3537C61.1355 39.2207 61.3262 39.1386 61.5279 39.1189C61.7482 39.141 61.9615 39.2085 62.1543 39.3171L62.1464 39.3092ZM67.8948 45.0577C68.0768 45.209 68.1968 45.4219 68.2319 45.656C68.2671 45.89 68.2149 46.1288 68.0854 46.3269C67.9559 46.525 67.758 46.6685 67.5295 46.7302C67.301 46.7919 67.0578 46.7673 66.8462 46.6613C65.7897 46.0567 66.5469 44.5225 67.9008 45.0636L67.8948 45.0577ZM54.267 37.2021C54.4523 37.3266 54.5885 37.5117 54.6523 37.7256C54.7161 37.9395 54.7034 38.169 54.6165 38.3746C54.5296 38.5802 54.3739 38.7492 54.176 38.8525C53.9782 38.9559 53.7505 38.9872 53.5321 38.941C53.3137 38.8949 53.1181 38.7742 52.979 38.5996C52.8398 38.4251 52.7658 38.2076 52.7694 37.9844C52.7731 37.7612 52.8544 37.5462 52.9992 37.3764C53.1441 37.2065 53.3435 37.0923 53.5633 37.0534C53.8067 37.0428 54.0488 37.094 54.267 37.2021ZM69.9524 52.8875C70.1326 53.0099 70.2657 53.19 70.3298 53.3981C70.394 53.6063 70.3854 53.8301 70.3054 54.0327C70.2253 54.2353 70.0787 54.4046 69.8896 54.5127C69.7005 54.6209 69.4803 54.6614 69.2651 54.6277C69.0499 54.5939 68.8526 54.4879 68.7057 54.327C68.5588 54.1662 68.4711 53.9601 68.4569 53.7427C68.4428 53.5254 68.5031 53.3097 68.6279 53.1312C68.7527 52.9526 68.9346 52.8219 69.1436 52.7606C69.4198 52.7177 69.7026 52.762 69.9524 52.8875ZM46.3678 39.3092C46.5699 39.4528 46.7085 39.669 46.7546 39.9126C46.8007 40.1561 46.7507 40.408 46.615 40.6155C46.4794 40.8229 46.2686 40.9698 46.0271 41.0252C45.7855 41.0807 45.5318 41.0404 45.3193 40.9128C44.3024 40.2448 45.2023 38.9247 46.3678 39.3092ZM67.7759 60.7173C67.9629 60.8295 68.106 61.0021 68.1817 61.2066C68.2574 61.4112 68.2611 61.6354 68.1922 61.8423C68.1233 62.0492 67.9859 62.2264 67.8027 62.3448C67.6195 62.4631 67.4014 62.5154 67.1844 62.493C66.9675 62.4707 66.7646 62.3751 66.6094 62.2219C66.4541 62.0688 66.3557 61.8673 66.3304 61.6506C66.305 61.434 66.3543 61.2152 66.4701 61.0304C66.5859 60.8456 66.7612 60.7058 66.9671 60.634C67.2403 60.5738 67.5257 60.6044 67.7798 60.7212L67.7759 60.7173ZM40.6848 45.1271C40.8687 45.2903 40.9829 45.5179 41.0037 45.7629C41.0245 46.0079 40.9504 46.2516 40.7967 46.4435C40.643 46.6354 40.4214 46.7609 40.1777 46.7941C39.934 46.8272 39.687 46.7655 39.4875 46.6216C39.3518 46.4985 39.2534 46.3395 39.2038 46.1631C39.1542 45.9866 39.1554 45.7997 39.2071 45.6238C39.2588 45.448 39.359 45.2902 39.4963 45.1687C39.6335 45.0472 39.8023 44.9668 39.9831 44.9368C40.2289 44.9363 40.4704 45.0013 40.6828 45.1251L40.6848 45.1271ZM62.0928 66.5351C62.2683 66.6634 62.3951 66.8474 62.4526 67.057C62.5101 67.2666 62.4949 67.4896 62.4094 67.6895C62.3239 67.8893 62.1732 68.0543 61.9819 68.1575C61.7905 68.2607 61.5699 68.2961 61.3559 68.2578C61.1419 68.2194 60.9472 68.1098 60.8036 67.9466C60.66 67.7834 60.5759 67.5764 60.565 67.3593C60.5541 67.1422 60.6172 66.9278 60.7438 66.7511C60.8704 66.5744 61.0532 66.4459 61.2623 66.3864C61.5479 66.3456 61.8391 66.3978 62.0928 66.5351ZM38.4885 52.9331C38.675 53.0491 38.8162 53.2255 38.8885 53.4329C38.9609 53.6403 38.96 53.8662 38.8861 54.0731C38.8122 54.2799 38.6697 54.4552 38.4823 54.5698C38.2949 54.6844 38.0739 54.7314 37.8561 54.7029C37.6382 54.6745 37.4368 54.5723 37.2851 54.4134C37.1334 54.2545 37.0407 54.0485 37.0224 53.8296C37.0042 53.6107 37.0614 53.3921 37.1846 53.2102C37.3078 53.0284 37.4895 52.8942 37.6996 52.83C37.9678 52.7846 38.2415 52.8192 38.4885 52.9331ZM54.1758 68.6204C54.3628 68.7395 54.5027 68.9198 54.5717 69.1304C54.6407 69.3411 54.6346 69.5691 54.5544 69.7758C54.4742 69.9825 54.3248 70.1549 54.1318 70.2639C53.9387 70.3728 53.7138 70.4115 53.4955 70.3733C53.2771 70.3351 53.0787 70.2224 52.9341 70.0545C52.7894 69.8865 52.7075 69.6735 52.7022 69.4519C52.6969 69.2303 52.7685 69.0137 52.9049 68.839C53.0413 68.6642 53.2341 68.5421 53.4503 68.4935C53.7033 68.473 53.9571 68.5203 54.1857 68.6303L54.1758 68.6204ZM40.5639 60.7807C40.7528 60.895 40.8965 61.0711 40.9706 61.2791C41.0448 61.4871 41.0448 61.7143 40.9708 61.9224C40.8967 62.1304 40.7531 62.3065 40.5642 62.421C40.3754 62.5354 40.1528 62.5811 39.9341 62.5503C39.7154 62.5196 39.514 62.4143 39.364 62.2522C39.214 62.0902 39.1245 61.8813 39.1107 61.6609C39.0969 61.4405 39.1596 61.2221 39.2882 61.0426C39.4168 60.863 39.6035 60.7334 39.8166 60.6756C40.0706 60.6434 40.3286 60.6796 40.5639 60.7807ZM46.3123 66.5291C46.5144 66.6727 46.653 66.8889 46.6991 67.1325C46.7452 67.376 46.6952 67.628 46.5595 67.8354C46.4239 68.0429 46.2131 68.1897 45.9715 68.2452C45.73 68.3006 45.4763 68.2603 45.2638 68.1328C45.1125 68.0231 44.9962 67.8719 44.929 67.6975C44.8619 67.5231 44.8467 67.333 44.8852 67.1502C44.9238 66.9673 45.0145 66.7996 45.1464 66.6672C45.2783 66.5348 45.4458 66.4435 45.6285 66.4043C45.8623 66.3905 46.098 66.4346 46.3123 66.5291Z" fill="#F6F6F6"/>
</svg>
