<svg width="106" height="106" viewBox="0 0 106 106" fill="none" xmlns="http://www.w3.org/2000/svg">
<path fill-rule="evenodd" clip-rule="evenodd" d="M159.303 137.326C157.649 139.19 156.455 141.417 154.598 143.34C153.366 142.456 151.903 141.954 150.388 141.896C148.874 141.837 147.376 142.226 146.08 143.012C144.785 143.799 143.749 144.949 143.102 146.319C142.456 147.69 142.226 149.221 142.442 150.721C142.563 151.959 143.053 153.132 143.849 154.089C141.945 155.992 139.669 157.156 137.799 158.831C136.643 157.408 135.018 156.444 133.216 156.109C131.414 155.775 129.552 156.093 127.962 157.007C126.373 157.92 125.161 159.369 124.543 161.094C123.924 162.82 123.94 164.709 124.587 166.424C122.341 167.654 119.968 168.639 117.511 169.36C116.978 168.157 116.146 167.109 115.095 166.316C114.044 165.524 112.807 165.013 111.503 164.833C110.199 164.652 108.871 164.808 107.644 165.285C106.417 165.762 105.332 166.545 104.492 167.559C103.301 169.242 102.702 171.273 102.792 173.334L100.61 173.69C98.8611 174.129 97.0638 174.346 95.2604 174.338C94.8755 172.967 94.2856 171.663 93.5108 170.469C92.7836 169.564 91.8239 168.873 90.7345 168.471C89.6497 168.001 88.4716 167.786 87.2907 167.843C86.1099 167.9 84.9579 168.228 83.9236 168.8C82.8892 169.373 82.0001 170.175 81.3247 171.145C80.6493 172.115 80.2057 173.228 80.0279 174.397L74.5766 173.811L72.464 173.465L72.4281 173.357C72.625 171.736 72.2986 170.096 71.4965 168.674C70.6943 167.253 69.4586 166.125 67.9698 165.456C66.481 164.787 64.8173 164.612 63.2218 164.956C61.6263 165.3 60.1828 166.146 59.1021 167.369C58.5527 168.128 58.1832 168.903 57.6894 169.553C55.9497 168.625 53.9516 168.059 52.0648 167.245C51.5679 167.118 51.1018 166.892 50.6945 166.581C51.3969 164.857 51.4479 162.937 50.8381 161.178C50.2282 159.42 48.9992 157.943 47.3804 157.024C45.7616 156.106 43.8638 155.808 42.0413 156.186C40.2188 156.564 38.5962 157.592 37.4765 159.079C35.6485 157.395 33.3921 156.244 31.4856 154.396C32.3382 153.295 32.8726 151.981 33.0305 150.597C33.1885 149.213 32.9641 147.813 32.3816 146.548C31.8972 145.504 31.1852 144.582 30.2978 143.85C29.4104 143.117 28.3702 142.593 27.2537 142.315C26.1371 142.037 24.9724 142.013 23.8452 142.244C22.718 142.475 21.6569 142.956 20.7398 143.65L20.3572 143.268L16.0602 137.663C17.4151 136.617 18.3846 135.151 18.8167 133.496C19.2487 131.84 19.1188 130.087 18.4474 128.513C17.6496 126.652 16.1466 125.183 14.2678 124.429C12.389 123.674 10.2877 123.695 8.42435 124.487L6.11562 119.144L5.48774 117.456L5.52699 117.417C6.4754 117.016 7.3348 116.43 8.05543 115.695C8.77608 114.959 9.34367 114.088 9.72536 113.131C10.107 112.175 10.2952 111.152 10.279 110.122C10.2628 109.093 10.0426 108.076 9.63106 107.132C8.94242 105.637 7.79297 104.402 6.35117 103.607C4.90938 102.813 3.25103 102.501 1.61914 102.718L1.59298 102.692C1.48506 100.89 1.09919 99.0126 0.867004 97.2369C0.636054 96.5437 0.600974 95.8003 0.765622 95.0884C2.08889 94.8996 3.33998 94.3688 4.39526 93.5483C5.45054 92.7279 6.27349 91.6463 6.78275 90.4105C7.29202 89.1746 7.47 87.8273 7.29908 86.5016C7.12817 85.1759 6.61429 83.9177 5.80823 82.8515C4.80085 81.4598 3.34063 80.462 1.678 80.0293L0.693685 79.8887L0.660987 79.5028L1.41311 73.9762C1.52103 73.3255 1.36407 72.4229 2.0508 72.2855C3.87316 72.4338 5.68861 71.9268 7.17045 70.8558C8.6523 69.7848 9.70325 68.22 10.1342 66.4431C10.5651 64.6662 10.3477 62.7939 9.52106 61.1631C8.69445 59.5322 7.31293 58.2499 5.62509 57.5469C6.41046 55.1123 7.39257 52.7456 8.5617 50.4703C10.1166 51.126 11.8438 51.2535 13.4781 50.8331C15.1125 50.4127 16.5637 49.4677 17.6092 48.143C18.6547 46.8183 19.2367 45.1871 19.2658 43.4998C19.2949 41.8125 18.7696 40.1623 17.7705 38.8023L16.2302 37.2032C17.9046 35.3915 19.1374 33.1645 20.9 31.2253C22.0718 32.1535 23.4921 32.714 24.9819 32.8362C26.4717 32.9584 27.9643 32.6369 29.2717 31.9121C30.2518 31.3795 31.1045 30.6404 31.771 29.746C32.4375 28.8516 32.9019 27.8231 33.132 26.7317C33.3621 25.6402 33.3525 24.5118 33.1038 23.4245C32.8551 22.3371 32.3732 21.3167 31.6916 20.4338C33.5666 18.6744 35.6093 17.1026 37.7905 15.7411C38.321 16.5165 39.0297 17.1535 39.8572 17.5985C40.7237 18.1428 41.6905 18.5079 42.7005 18.6723C43.7105 18.8366 44.7432 18.7969 45.7376 18.5555C46.732 18.314 47.6679 17.8758 48.4901 17.2666C49.3123 16.6574 50.004 15.8896 50.5245 15.0086C51.4664 13.3815 51.8078 11.4755 51.4892 9.6226L51.0183 8.03984L55.0308 6.25106L57.987 5.11959C58.6302 6.41363 59.5304 7.56303 60.6326 8.49766C61.5609 9.15986 62.6237 9.60946 63.7454 9.81452C64.8672 10.0196 66.0203 9.97504 67.1229 9.6841C68.2255 9.39316 69.2504 8.86294 70.1249 8.13113C70.9995 7.39932 71.7021 6.48389 72.1828 5.44987C72.6571 4.09358 72.8745 2.66076 72.8238 1.22482C74.4451 0.856976 76.0929 0.617513 77.7519 0.508646L80.355 0.220871C80.6504 1.57604 81.1972 2.86383 81.9671 4.01753C82.7556 4.99222 83.7691 5.76073 84.9204 6.2569C86.0717 6.75307 87.3263 6.96205 88.5763 6.86585C89.8263 6.76965 91.0341 6.37116 92.096 5.70465C93.1578 5.03815 94.0417 4.12362 94.6718 3.03976C95.1315 2.14258 95.4534 1.18126 95.6266 0.188169C98.1615 0.246726 100.683 0.575607 103.148 1.16922C103.051 3.17327 103.582 5.1576 104.665 6.84623C105.489 7.91697 106.579 8.75282 107.827 9.27022C109.075 9.78762 110.437 9.96846 111.776 9.79467C113.116 9.62089 114.387 9.09856 115.461 8.27988C116.536 7.46121 117.377 6.37485 117.9 5.12939L119.695 5.79324C121.531 6.34134 123.3 7.09269 124.97 8.03331C124.255 9.75821 124.193 11.6845 124.796 13.4516C125.399 15.2186 126.626 16.7054 128.246 17.6335C129.866 18.5616 131.769 18.8675 133.598 18.4939C135.428 18.1203 137.058 17.0928 138.185 15.6037C139.996 17.2257 142.23 18.4651 144.182 20.2147C143.48 21.1342 142.994 22.2003 142.76 23.3337C142.527 24.467 142.552 25.6383 142.834 26.7606C143.116 27.8828 143.647 28.927 144.389 29.8155C145.13 30.704 146.062 31.4139 147.115 31.8924C148.378 32.4659 149.774 32.6822 151.152 32.5179C152.529 32.3536 153.835 31.8149 154.928 30.9604C156.625 32.952 158.11 35.0253 159.558 37.0037C158.078 38.1357 157.061 39.7676 156.696 41.5947C156.331 43.4219 156.643 45.3195 157.575 46.9332C158.506 48.547 159.993 49.7666 161.758 50.3646C163.522 50.9625 165.444 50.8977 167.165 50.1825C167.917 52.0465 168.738 53.8941 169.428 55.7156L169.987 57.2624C168.627 57.9169 167.452 58.899 166.566 60.1205C166.01 60.9689 165.626 61.9186 165.437 62.9154C165.248 63.9122 165.257 64.9364 165.465 65.9296C165.672 66.9228 166.073 67.8654 166.644 68.7035C167.216 69.5416 167.947 70.2588 168.797 70.814C170.376 71.6381 172.137 72.0498 173.918 72.0109C174.405 74.5191 174.506 77.0469 174.899 79.5322C173.866 79.7422 172.869 80.1001 171.939 80.5951C170.946 81.2012 170.104 82.0241 169.474 83.002C168.844 83.98 168.443 85.0877 168.302 86.2424C168.161 87.397 168.283 88.5686 168.658 89.6696C169.034 90.7705 169.654 91.7722 170.471 92.5998C171.637 93.7978 173.175 94.5655 174.833 94.7778L174.866 94.9543L173.865 102.345L173.757 102.381C171.942 102.2 170.122 102.672 168.624 103.713C167.126 104.753 166.047 106.293 165.583 108.057C165.118 109.821 165.297 111.693 166.088 113.336C166.879 114.98 168.23 116.288 169.899 117.025C169.089 119.462 168.084 121.829 166.893 124.105C165.172 123.419 163.26 123.377 161.51 123.987C159.76 124.597 158.289 125.817 157.366 127.425C156.444 129.032 156.131 130.918 156.487 132.737C156.843 134.555 157.843 136.185 159.303 137.326ZM136.442 36.4511L134.614 34.7669L130.575 31.4346C126.78 28.5938 122.733 26.1058 118.485 24.0015C105.444 17.8487 90.852 15.7667 76.6106 18.0269C73.3666 18.5763 70.1978 19.4625 66.9309 20.3357C63.4619 21.4309 60.0825 22.7921 56.8228 24.407C52.8608 26.4139 49.0805 28.7608 45.5244 31.4215C43.9613 32.4745 42.7513 33.933 41.1195 35.1266C39.3382 36.48 37.7409 38.0597 36.3679 39.8259L32.9114 43.773C30.5641 46.8917 28.4021 50.1457 26.4364 53.5181C21.2825 62.6584 18.2763 72.8519 17.6457 83.3262C17.0151 93.8005 18.7766 104.281 22.7967 113.974C24.673 118.474 26.9598 122.793 29.6281 126.874C30.74 128.64 32.1789 130.079 33.4542 131.897C34.8269 133.689 36.3415 135.368 37.9834 136.917L39.7755 138.709L43.9188 142.29C47.0536 144.667 50.3298 146.851 53.7293 148.83C62.9589 153.944 73.2291 156.896 83.7656 157.462C94.3021 158.029 104.83 156.195 114.554 152.101C120.27 149.549 125.693 146.386 130.729 142.669L135.415 138.683L136.86 137.238C138.817 135.57 140.57 133.676 142.083 131.597L145.706 126.829C148.28 122.93 150.513 118.818 152.38 114.536C157.045 103.701 158.886 91.8603 157.73 80.1207C156.574 68.381 152.46 57.1264 145.771 47.4094C143.06 43.435 139.933 39.7614 136.442 36.4511ZM132.063 41.8828C141.981 51.2725 148.481 63.7042 150.533 77.2072C150.912 79.5094 151.01 81.8377 151.255 84.1366L151.305 87.3578L127.655 87.4101L127.658 86.1445L127.566 84.1432L126.978 79.6761C126.14 75.3545 124.603 71.1982 122.429 67.3705C118.552 60.9551 113.049 55.6777 106.477 52.0727C100.91 49.1138 94.7166 47.5264 88.4124 47.4422C82.1082 47.358 75.8749 48.7795 70.2305 51.5887C67.8348 52.7968 65.5576 54.2266 63.4286 55.8595L60.4331 58.4364L57.6469 61.4319C56.7313 62.6811 55.7469 63.6065 54.9654 64.8132C53.3539 67.2596 51.9807 69.8549 50.8646 72.5635C48.6187 77.9512 47.6134 83.775 47.9231 89.6037C48.2327 95.4325 49.8494 101.117 52.6534 106.236C55.5242 111.64 59.6087 116.304 64.5862 119.863C69.6497 123.341 75.4063 125.682 81.4603 126.724C83.6055 127.077 85.7834 126.894 87.8992 127.165L87.86 150.835L84.7272 150.737C82.1732 150.465 79.6486 150.348 77.0554 149.906C69.3292 148.605 61.9126 145.877 55.1845 141.862C53.1014 140.629 51.2799 139.141 49.1412 137.65C44.7334 134.425 40.8487 130.54 37.6237 126.132C35.5326 123.246 33.6161 120.238 31.8845 117.123C27.1114 108.095 24.6182 98.0364 24.6222 87.8242C24.6262 77.612 27.1272 67.5556 31.9074 58.5312C33.7423 55.2202 35.77 52.0197 37.9801 48.9464L41.4727 44.8914C42.5775 43.4233 43.883 42.1177 45.3511 41.0129L49.0889 37.7657C52.2054 35.4537 55.4658 33.3424 58.8503 31.4444C67.3075 26.9964 76.6641 24.5263 86.2148 24.2204C95.7654 23.9145 105.261 25.7808 113.985 29.6785C118.279 31.6977 122.374 34.1152 126.216 36.8991L130.114 40.0908L132.063 41.8828ZM110.591 62.8707C115.62 67.4825 119.084 73.5491 120.499 80.224C121.914 86.899 121.21 93.8492 118.485 100.105C114.97 108.217 108.485 114.677 100.359 118.159C95.7752 120.072 90.8194 120.925 85.8605 120.655C80.9016 120.386 76.0675 119.001 71.7185 116.603C69.5174 115.271 67.4157 113.781 65.4299 112.146L62.9936 109.618L60.8321 107.057C59.3013 104.858 58.0089 102.502 56.9765 100.03C54.2087 93.1548 53.7893 85.5583 55.7833 78.4205C57.7774 71.2828 62.0733 65.0036 68.0035 60.5587C69.8128 59.2545 71.732 58.11 73.7394 57.1381C78.2232 55.0519 83.1121 53.9804 88.0575 54.0002C93.0029 54.02 97.8831 55.1305 102.35 57.2526C104.323 58.2271 106.205 59.3774 107.972 60.6895L110.591 62.8707ZM108.511 64.5974L106.157 62.668C104.415 61.4242 102.569 60.3333 100.64 59.4076C96.5756 57.5744 92.1628 56.6427 87.7044 56.6766C83.2461 56.7104 78.8479 57.7091 74.812 59.6038C73.0647 60.4529 71.3911 61.4461 69.8087 62.5731C66.1099 65.2391 63.0752 68.7214 60.94 72.7499C58.7226 76.7222 57.4357 81.1459 57.1762 85.6878C56.9168 90.2297 57.6916 94.7712 59.4422 98.9701C60.5188 101.477 61.863 103.861 63.4515 106.079L65.5574 108.467L67.4541 110.363C69.3842 111.891 71.4153 113.286 73.5334 114.539C77.4796 116.626 81.8386 117.813 86.2978 118.016C90.7569 118.219 95.2057 117.432 99.3252 115.713C106.911 112.477 112.943 106.42 116.147 98.8197C118.599 93.0326 119.182 86.624 117.814 80.4894C116.447 74.3549 113.196 68.8009 108.518 64.6039L108.511 64.5974ZM106.941 66.8342C107.997 67.8897 108.992 69.0033 109.924 70.1698C108.18 70.922 106.801 72.3271 106.081 74.0841C106.012 75.0902 106.324 76.0854 106.955 76.8723C107.585 77.6592 108.489 78.1802 109.486 78.3321C111.034 78.1702 112.496 77.5406 113.678 76.527C114.547 78.8258 115.176 81.2082 115.555 83.6363L112.599 83.6428C111.979 83.7896 111.385 84.0289 110.836 84.3525C110.368 84.7254 109.995 85.2034 109.746 85.7478C109.497 86.2921 109.38 86.8874 109.405 87.4854C109.429 88.0834 109.595 88.6671 109.887 89.1893C110.179 89.7114 110.591 90.1573 111.088 90.4906C112.456 91.1182 113.986 91.3012 115.463 91.0138L115.499 91.2591L115.071 93.5842C114.678 95.173 114.157 96.7271 113.511 98.2311L112.249 97.5312C111.697 97.0924 111.052 96.7857 110.363 96.6343C109.675 96.483 108.961 96.4911 108.276 96.6581C107.797 96.8564 107.37 97.1605 107.027 97.5477C106.683 97.9349 106.432 98.3949 106.292 98.8933C106.152 99.3916 106.126 99.9153 106.218 100.425C106.31 100.934 106.516 101.416 106.82 101.835C107.78 102.779 108.912 103.53 110.156 104.045C108.532 105.943 106.776 107.723 104.901 109.373C104.125 107.655 102.734 106.29 101.003 105.546C99.9942 105.485 98.999 105.802 98.2108 106.434C97.4226 107.066 96.8978 107.969 96.7385 108.967C96.8865 110.513 97.5103 111.976 98.524 113.153C96.2728 114.173 93.8704 114.819 91.4114 115.066C91.5391 113.673 91.4229 112.269 91.068 110.916C90.7584 110.364 90.3162 109.897 89.7813 109.558C89.2463 109.22 88.6354 109.019 88.0038 108.975C87.3721 108.932 86.7394 109.046 86.1628 109.307C85.5863 109.569 85.0839 109.97 84.701 110.475C84.0906 111.919 83.8457 113.491 83.9881 115.053L83.9064 114.971C81.4254 114.789 79.0011 114.14 76.761 113.058V112.986C78.1018 111.214 79.8121 108.235 77.4412 106.616C76.8902 106.166 76.24 105.855 75.5445 105.707C74.4794 105.882 73.4861 106.356 72.6806 107.075C71.8751 107.794 71.2908 108.727 70.9957 109.765L69.1841 108.306C67.8885 107.164 66.7118 105.893 65.6719 104.513C68.5987 103.005 70.636 101.047 68.9911 98.1722C68.5382 97.3827 67.8144 96.7844 66.9538 96.4881C66.0578 96.4197 65.1573 96.5334 64.3064 96.8223C63.4556 97.1111 62.6719 97.5692 62.0028 98.1689C61.0308 95.9263 60.3728 93.5604 60.0472 91.1381C61.0634 90.9344 62.1056 90.8946 63.1343 91.0203C64.0585 90.8509 64.8941 90.3625 65.4953 89.6403C65.8217 89.2029 66.0495 88.7 66.163 88.1662C66.2764 87.6324 66.2729 87.0803 66.1527 86.548C66.0324 86.0156 65.7982 85.5157 65.4663 85.0825C65.1343 84.6493 64.7125 84.2931 64.2298 84.0385C62.9205 83.5796 61.5158 83.4625 60.1486 83.6984L60.1224 83.5676L60.4004 81.8835C60.6602 79.9615 61.2603 78.1011 62.1728 76.3896C62.9104 77.2439 63.9193 77.8186 65.0303 78.0174C66.1413 78.2163 67.2868 78.0272 68.275 77.4818C68.6914 77.0938 69.0069 76.61 69.1939 76.0724C70.3254 73.417 67.9708 71.7427 65.4626 70.6472C67.0579 68.7029 68.8279 66.9088 70.7505 65.2874L70.8911 65.428C72.3038 68.2142 74.436 70.0782 77.0783 68.5804C77.8845 68.1165 78.4972 67.3785 78.8049 66.5006C78.88 65.6063 78.7732 64.706 78.4911 63.854C78.2089 63.0019 77.7573 62.2159 77.1633 61.5431C79.3919 60.4897 81.7862 59.8303 84.2399 59.594L84.2366 60.0878C84.6094 61.1147 84.0274 62.3181 84.4427 63.394C84.6596 63.9252 84.9943 64.4002 85.4215 64.7833C85.8487 65.1664 86.3572 65.4476 86.9088 65.6056C87.4604 65.7637 88.0407 65.7945 88.6059 65.6957C89.1712 65.597 89.7066 65.3713 90.172 65.0356C90.734 64.583 91.1649 63.9884 91.4202 63.3135C91.6754 62.6385 91.7458 61.9077 91.624 61.1964C91.5419 60.9349 91.5249 60.6573 91.5745 60.3878C91.624 60.1182 91.7387 59.8648 91.9085 59.6496C94.3112 60.0013 96.6539 60.6825 98.8706 61.6739C96.9609 63.9761 95.7836 68.1161 99.8746 68.9565C100.979 68.878 102.028 68.449 102.871 67.7319C103.714 67.0148 104.306 66.0472 104.561 64.9702L104.62 64.9113L106.941 66.8342ZM101.778 63.5738C102.077 63.8242 102.273 64.1755 102.33 64.5611C102.387 64.9467 102.3 65.3397 102.086 65.6656C101.872 65.9915 101.546 66.2276 101.17 66.329C100.794 66.4305 100.393 66.3903 100.045 66.2161C99.7632 66.0355 99.545 65.7717 99.4204 65.4613C99.2958 65.151 99.271 64.8095 99.3494 64.4844C99.4278 64.1593 99.6055 63.8667 99.8579 63.6472C100.11 63.4278 100.425 63.2924 100.758 63.2599C101.121 63.2963 101.473 63.4076 101.791 63.5869L101.778 63.5738ZM111.261 73.0573C111.562 73.3069 111.759 73.6583 111.817 74.0444C111.875 74.4305 111.789 74.8245 111.576 75.1513C111.362 75.478 111.036 75.7148 110.659 75.8165C110.282 75.9183 109.88 75.8778 109.531 75.7029C107.788 74.7055 109.038 72.1744 111.271 73.0671L111.261 73.0573ZM88.7789 60.0976C89.0846 60.303 89.3093 60.6083 89.4145 60.9612C89.5197 61.3142 89.4989 61.6927 89.3555 62.0319C89.2121 62.3711 88.9552 62.6499 88.6288 62.8204C88.3024 62.9909 87.9268 63.0425 87.5665 62.9664C87.2062 62.8903 86.8835 62.6912 86.654 62.4032C86.4244 62.1152 86.3022 61.7564 86.3083 61.3881C86.3144 61.0199 86.4484 60.6653 86.6874 60.3851C86.9263 60.1049 87.2554 59.9165 87.618 59.8524C88.0195 59.8349 88.4188 59.9193 88.7789 60.0976ZM114.656 85.9745C114.953 86.1764 115.173 86.4735 115.278 86.8169C115.384 87.1604 115.37 87.5296 115.238 87.8638C115.106 88.198 114.864 88.4774 114.552 88.6558C114.24 88.8342 113.877 88.901 113.522 88.8454C113.167 88.7897 112.841 88.6147 112.599 88.3494C112.357 88.084 112.212 87.7441 112.189 87.3855C112.165 87.0269 112.265 86.671 112.471 86.3765C112.677 86.082 112.977 85.8664 113.322 85.7652C113.777 85.6944 114.244 85.7675 114.656 85.9745ZM75.7473 63.5738C76.0807 63.8106 76.3094 64.1674 76.3854 64.5692C76.4614 64.971 76.3789 65.3866 76.1551 65.7288C75.9313 66.0711 75.5836 66.3134 75.1851 66.4048C74.7865 66.4963 74.368 66.4298 74.0174 66.2194C72.3398 65.1173 73.8244 62.9394 75.7473 63.5738ZM111.065 98.8916C111.374 99.0768 111.61 99.3615 111.735 99.699C111.86 100.036 111.866 100.406 111.752 100.748C111.638 101.089 111.412 101.381 111.109 101.577C110.807 101.772 110.447 101.858 110.089 101.821C109.731 101.784 109.397 101.627 109.141 101.374C108.884 101.121 108.722 100.789 108.68 100.431C108.639 100.074 108.72 99.7132 108.911 99.4083C109.102 99.1034 109.391 98.8727 109.731 98.7543C110.182 98.6549 110.652 98.7054 111.072 98.8982L111.065 98.8916ZM66.3717 73.1718C66.6751 73.441 66.8635 73.8166 66.8979 74.2208C66.9322 74.625 66.8099 75.027 66.5563 75.3436C66.3027 75.6602 65.9371 75.8673 65.5351 75.922C65.1332 75.9767 64.7255 75.8748 64.3965 75.6375C64.1726 75.4343 64.0103 75.1721 63.9285 74.8809C63.8467 74.5898 63.8485 74.2815 63.9339 73.9913C64.0192 73.7012 64.1846 73.441 64.411 73.2405C64.6374 73.04 64.9158 72.9074 65.2141 72.8578C65.6196 72.8571 66.0181 72.9643 66.3684 73.1685L66.3717 73.1718ZM101.69 108.49C101.979 108.701 102.188 109.005 102.283 109.351C102.378 109.696 102.353 110.064 102.212 110.394C102.071 110.724 101.822 110.996 101.506 111.166C101.191 111.336 100.827 111.395 100.474 111.332C100.121 111.268 99.7996 111.087 99.5626 110.818C99.3256 110.549 99.1869 110.208 99.169 109.849C99.1511 109.491 99.255 109.137 99.4639 108.846C99.6729 108.555 99.9744 108.342 100.319 108.244C100.791 108.177 101.271 108.263 101.69 108.49ZM62.7484 86.0497C63.0561 86.2411 63.289 86.5321 63.4083 86.8743C63.5277 87.2164 63.5262 87.5892 63.4043 87.9304C63.2824 88.2717 63.0472 88.5609 62.7381 88.7499C62.4289 88.939 62.0643 89.0165 61.705 88.9695C61.3457 88.9226 61.0133 88.754 60.763 88.4919C60.5128 88.2297 60.3599 87.8898 60.3298 87.5287C60.2996 87.1676 60.394 86.807 60.5972 86.507C60.8004 86.207 61.1003 85.9856 61.4468 85.8796C61.8893 85.8048 62.3408 85.8619 62.7484 86.0497ZM88.6285 111.93C88.9369 112.126 89.1677 112.424 89.2816 112.771C89.3954 113.119 89.3853 113.495 89.253 113.836C89.1207 114.177 88.8743 114.461 88.5558 114.641C88.2373 114.821 87.8663 114.885 87.5061 114.822C87.1458 114.759 86.8185 114.573 86.5799 114.296C86.3413 114.018 86.2061 113.667 86.1973 113.302C86.1885 112.936 86.3067 112.579 86.5318 112.29C86.7568 112.002 87.0748 111.801 87.4316 111.721C87.8489 111.687 88.2676 111.765 88.6448 111.946L88.6285 111.93ZM66.1722 98.9963C66.4839 99.1849 66.721 99.4753 66.8433 99.8185C66.9656 100.162 66.9656 100.537 66.8435 100.88C66.7213 101.223 66.4844 101.514 66.1728 101.702C65.8612 101.891 65.494 101.966 65.1332 101.916C64.7724 101.865 64.4402 101.691 64.1927 101.424C63.9452 101.157 63.7976 100.812 63.7748 100.448C63.7521 100.085 63.8555 99.7245 64.0677 99.4283C64.2799 99.1321 64.5878 98.9183 64.9394 98.8229C65.3585 98.7697 65.7841 98.8296 66.1722 98.9963ZM75.6557 108.48C75.9891 108.717 76.2178 109.073 76.2938 109.475C76.3699 109.877 76.2873 110.293 76.0635 110.635C75.8397 110.977 75.4921 111.219 75.0935 111.311C74.6949 111.402 74.2764 111.336 73.9258 111.125C73.6763 110.944 73.4845 110.695 73.3736 110.407C73.2628 110.12 73.2377 109.806 73.3014 109.504C73.365 109.203 73.5147 108.926 73.7323 108.708C73.9499 108.489 74.2261 108.338 74.5275 108.274C74.9133 108.251 75.3022 108.324 75.6557 108.48Z" fill="#F6F6F6"/>
</svg>
