<svg width="104" height="83" viewBox="0 0 104 83" fill="none" xmlns="http://www.w3.org/2000/svg">
<path fill-rule="evenodd" clip-rule="evenodd" d="M134.253 116.11C132.858 117.681 131.852 119.558 130.287 121.179C129.249 120.434 128.015 120.01 126.739 119.961C125.463 119.912 124.2 120.24 123.108 120.902C122.017 121.565 121.144 122.535 120.599 123.69C120.054 124.845 119.86 126.135 120.042 127.399C120.144 128.443 120.557 129.431 121.228 130.238C119.623 131.842 117.705 132.823 116.129 134.234C115.155 133.035 113.785 132.222 112.267 131.941C110.748 131.659 109.178 131.927 107.839 132.697C106.5 133.466 105.478 134.688 104.957 136.142C104.436 137.596 104.449 139.188 104.994 140.634C103.101 141.671 101.101 142.5 99.0302 143.108C98.5812 142.094 97.8805 141.211 96.9944 140.543C96.1083 139.875 95.0664 139.445 93.9673 139.293C92.8683 139.141 91.7486 139.272 90.7145 139.674C89.6803 140.076 88.7661 140.735 88.0584 141.59C87.0542 143.009 86.5501 144.721 86.6252 146.457L84.7869 146.758C83.3127 147.127 81.7979 147.311 80.278 147.303C79.9536 146.148 79.4565 145.049 78.8035 144.043C78.1906 143.28 77.3818 142.698 76.4636 142.359C75.5494 141.963 74.5565 141.782 73.5613 141.83C72.5661 141.878 71.5952 142.154 70.7235 142.636C69.8517 143.119 69.1024 143.795 68.5331 144.613C67.9639 145.43 67.59 146.368 67.4403 147.353L62.8459 146.859L61.0655 146.567L61.0352 146.476C61.2012 145.111 60.9261 143.728 60.2501 142.53C59.574 141.332 58.5325 140.382 57.2778 139.818C56.0231 139.254 54.6209 139.106 53.2763 139.397C51.9316 139.687 50.715 140.399 49.8042 141.43C49.3412 142.069 49.0298 142.723 48.6136 143.271C47.1474 142.488 45.4635 142.012 43.8732 141.325C43.4545 141.219 43.0616 141.028 42.7184 140.766C43.3104 139.313 43.3534 137.695 42.8394 136.213C42.3254 134.73 41.2896 133.486 39.9253 132.712C38.561 131.938 36.9616 131.686 35.4256 132.005C33.8896 132.324 32.5221 133.19 31.5784 134.443C30.0378 133.024 28.1361 132.054 26.5293 130.497C27.2479 129.569 27.6982 128.461 27.8314 127.295C27.9645 126.129 27.7754 124.948 27.2845 123.882C26.8762 123.003 26.2761 122.226 25.5283 121.608C24.7804 120.991 23.9038 120.549 22.9627 120.315C22.0217 120.08 21.0401 120.06 20.0901 120.255C19.1401 120.45 18.2459 120.855 17.4729 121.44L17.1505 121.118L13.529 116.394C14.6709 115.513 15.488 114.278 15.8521 112.882C16.2162 111.486 16.1068 110.009 15.5409 108.683C14.8686 107.114 13.6018 105.876 12.0184 105.24C10.435 104.604 8.66396 104.622 7.09359 105.29L5.14782 100.786L4.61865 99.3643L4.65172 99.3312C5.45103 98.993 6.17532 98.4996 6.78267 97.8796C7.39002 97.2596 7.86838 96.5253 8.19006 95.7192C8.51174 94.9131 8.67034 94.0512 8.65669 93.1833C8.64305 92.3155 8.45745 91.459 8.11059 90.6634C7.53021 89.4033 6.56147 88.3621 5.34634 87.6925C4.1312 87.023 2.73357 86.7602 1.35824 86.9427L1.3362 86.9207C1.24524 85.4021 0.92003 83.8201 0.724348 82.3236C0.5297 81.7394 0.500135 81.1128 0.638904 80.5129C1.75414 80.3537 2.80854 79.9063 3.69791 79.2149C4.5873 78.5235 5.28086 77.6119 5.71007 76.5704C6.13928 75.5288 6.28927 74.3933 6.14522 73.276C6.00118 72.1587 5.56809 71.0983 4.88875 70.1997C4.03974 69.0268 2.80908 68.1859 1.40785 67.8212L0.578272 67.7027L0.55071 67.3775L1.1846 62.7197C1.27555 62.1713 1.14326 61.4106 1.72203 61.2949C3.2579 61.4198 4.78794 60.9925 6.03682 60.0899C7.28571 59.1872 8.17143 57.8685 8.5346 56.3709C8.89777 54.8734 8.71454 53.2954 8.01788 51.9209C7.32123 50.5465 6.1569 49.4658 4.73441 48.8733C5.3963 46.8214 6.22401 44.8268 7.20935 42.9092C8.51982 43.4619 9.97545 43.5693 11.3529 43.215C12.7303 42.8607 13.9534 42.0642 14.8345 40.9478C15.7156 39.8313 16.2061 38.4566 16.2306 37.0346C16.2552 35.6126 15.8125 34.2217 14.9704 33.0756L13.6723 31.7279C15.0834 30.201 16.1224 28.3241 17.608 26.6898C18.5955 27.472 19.7925 27.9444 21.0481 28.0474C22.3037 28.1504 23.5617 27.8794 24.6635 27.2685C25.4895 26.8197 26.2082 26.1968 26.7699 25.443C27.3316 24.6892 27.723 23.8224 27.9169 22.9026C28.1108 21.9827 28.1027 21.0317 27.8931 20.1153C27.6835 19.1989 27.2774 18.3389 26.7029 17.5948C28.2832 16.112 30.0048 14.7873 31.843 13.6398C32.2902 14.2934 32.8875 14.8302 33.5848 15.2053C34.3151 15.664 35.13 15.9717 35.9812 16.1102C36.8324 16.2487 37.7027 16.2152 38.5408 16.0118C39.3788 15.8083 40.1676 15.4389 40.8605 14.9255C41.5534 14.4121 42.1364 13.765 42.5751 13.0225C43.3689 11.6512 43.6567 10.0448 43.3881 8.48325L42.9913 7.14931L46.3729 5.64175L48.8644 4.68816C49.4065 5.77877 50.1652 6.74747 51.0941 7.53516C51.8765 8.09325 52.7722 8.47218 53.7176 8.64499C54.6629 8.81781 55.6348 8.78028 56.564 8.53508C57.4933 8.28988 58.3571 7.84302 59.0941 7.22626C59.8312 6.6095 60.4233 5.83798 60.8285 4.96652C61.2282 3.82345 61.4114 2.61589 61.3687 1.40569C62.7351 1.09568 64.1239 0.893864 65.522 0.802114L67.7159 0.55958C67.9649 1.7017 68.4257 2.78703 69.0746 3.75936C69.7391 4.58082 70.5933 5.22851 71.5636 5.64668C72.5339 6.06485 73.5913 6.24097 74.6447 6.15989C75.6982 6.07882 76.7162 5.74297 77.6111 5.18125C78.5059 4.61953 79.2509 3.84877 79.7819 2.93531C80.1693 2.17918 80.4406 1.36899 80.5867 0.532018C82.723 0.58137 84.848 0.858547 86.9256 1.35884C86.8442 3.04783 87.2912 4.7202 88.2044 6.14336C88.8986 7.04577 89.8174 7.75021 90.8691 8.18627C91.9208 8.62232 93.0685 8.77474 94.1975 8.62827C95.3266 8.48181 96.3974 8.04159 97.303 7.35162C98.2086 6.66165 98.9173 5.74609 99.3582 4.69643L100.871 5.25591C102.419 5.71784 103.91 6.35107 105.317 7.14381C104.714 8.59755 104.662 10.221 105.171 11.7102C105.679 13.1995 106.712 14.4525 108.078 15.2347C109.443 16.017 111.047 16.2748 112.589 15.9599C114.13 15.645 115.505 14.779 116.454 13.5241C117.981 14.8911 119.863 15.9356 121.509 17.4101C120.917 18.1851 120.507 19.0836 120.31 20.0388C120.114 20.9939 120.135 21.9811 120.373 22.9269C120.61 23.8727 121.058 24.7528 121.683 25.5016C122.307 26.2504 123.093 26.8487 123.981 27.252C125.045 27.7353 126.222 27.9176 127.383 27.7792C128.543 27.6407 129.644 27.1867 130.565 26.4665C131.995 28.145 133.247 29.8923 134.468 31.5597C133.22 32.5138 132.363 33.8891 132.055 35.429C131.747 36.9689 132.011 38.5681 132.796 39.9282C133.581 41.2883 134.834 42.3162 136.321 42.8201C137.808 43.324 139.428 43.2695 140.878 42.6667C141.512 44.2376 142.204 45.7948 142.785 47.3299L143.257 48.6335C142.111 49.1851 141.12 50.0128 140.374 51.0423C139.905 51.7573 139.582 52.5577 139.422 53.3978C139.263 54.2379 139.271 55.1011 139.445 55.9382C139.62 56.7752 139.958 57.5696 140.44 58.276C140.921 58.9823 141.538 59.5867 142.254 60.0546C143.584 60.7492 145.069 61.0962 146.569 61.0634C146.98 63.1773 147.066 65.3077 147.396 67.4023C146.526 67.5792 145.686 67.8809 144.902 68.298C144.065 68.8089 143.355 69.5024 142.824 70.3266C142.293 71.1508 141.956 72.0844 141.837 73.0575C141.718 74.0306 141.82 75.0181 142.137 75.9459C142.453 76.8738 142.976 77.718 143.665 78.4155C144.648 79.4252 145.943 80.0721 147.341 80.251L147.369 80.3999L146.525 86.6286L146.434 86.6589C144.905 86.5065 143.371 86.9044 142.108 87.7812C140.845 88.6579 139.936 89.9561 139.545 91.4427C139.153 92.9292 139.304 94.5067 139.971 95.8919C140.637 97.2771 141.776 98.3793 143.182 99.0005C142.5 101.054 141.653 103.05 140.649 104.967C139.198 104.389 137.588 104.354 136.113 104.868C134.638 105.382 133.398 106.411 132.62 107.765C131.842 109.12 131.579 110.71 131.879 112.242C132.179 113.775 133.022 115.148 134.253 116.11ZM114.985 31.094L113.444 29.6746L110.041 26.8662C106.842 24.472 103.432 22.3751 99.8515 20.6016C88.8607 15.4161 76.5627 13.6614 64.5602 15.5663C61.8262 16.0293 59.1556 16.7762 56.4022 17.5121C53.4786 18.4352 50.6305 19.5823 47.8833 20.9434C44.5441 22.6347 41.3581 24.6127 38.3611 26.8551C37.0437 27.7426 36.0239 28.9718 34.6487 29.9778C33.1475 31.1184 31.8013 32.4497 30.6441 33.9382L27.731 37.2648C25.7527 39.8932 23.9306 42.6356 22.274 45.4778C17.9303 53.1812 15.3967 61.7721 14.8652 70.5998C14.3338 79.4274 15.8183 88.2602 19.2065 96.4291C20.7878 100.222 22.7151 103.862 24.9639 107.302C25.901 108.79 27.1136 110.003 28.1885 111.535C29.3453 113.045 30.6218 114.46 32.0056 115.766L33.5159 117.276L37.0079 120.294C39.6499 122.297 42.4111 124.137 45.276 125.806C53.0547 130.116 61.7103 132.603 70.5903 133.081C79.4704 133.558 88.3429 132.013 96.5387 128.562C101.356 126.411 105.926 123.746 110.17 120.614L114.12 117.254L115.338 116.036C116.987 114.63 118.465 113.034 119.739 111.282L122.793 107.263C124.962 103.978 126.844 100.512 128.418 96.9032C132.35 87.7717 133.901 77.7923 132.927 67.8982C131.953 58.0042 128.485 48.5189 122.848 40.3295C120.563 36.98 117.927 33.8839 114.985 31.094ZM111.295 35.6718C119.654 43.5853 125.132 54.0626 126.861 65.4427C127.181 67.383 127.263 69.3453 127.47 71.2828L127.511 73.9976L107.58 74.0416L107.582 72.975L107.505 71.2883L107.009 67.5236C106.303 63.8813 105.008 60.3784 103.175 57.1525C99.9079 51.7457 95.2701 47.298 89.7313 44.2597C85.0392 41.766 79.8197 40.4281 74.5066 40.3571C69.1935 40.2862 63.9401 41.4843 59.1831 43.8518C57.1641 44.87 55.2448 46.075 53.4505 47.4512L50.926 49.6229L48.5778 52.1475C47.8061 53.2003 46.9765 53.9803 46.3178 54.9973C44.9597 57.0591 43.8023 59.2464 42.8617 61.5291C40.969 66.0698 40.1217 70.978 40.3826 75.8904C40.6436 80.8029 42.0061 85.5937 44.3693 89.9083C46.7888 94.4624 50.2312 98.3935 54.4262 101.393C58.6936 104.324 63.5452 106.297 68.6474 107.175C70.4554 107.473 72.2909 107.318 74.0741 107.547L74.041 127.495L71.4007 127.413C69.2482 127.184 67.1206 127.085 64.935 126.713C58.4235 125.616 52.1729 123.317 46.5025 119.933C44.7469 118.894 43.2118 117.64 41.4093 116.383C37.6945 113.665 34.4205 110.391 31.7025 106.676C29.9401 104.244 28.3249 101.708 26.8656 99.0832C22.8428 91.4744 20.7416 82.9974 20.7449 74.3906C20.7483 65.7839 22.8562 57.3085 26.8849 49.7029C28.4313 46.9124 30.1402 44.215 32.0029 41.6249L34.9463 38.2073C35.8775 36.9701 36.9778 35.8698 38.215 34.9387L41.3652 32.2019C43.9917 30.2534 46.7396 28.474 49.592 26.8744C56.7196 23.1257 64.6053 21.0439 72.6544 20.7861C80.7036 20.5283 88.7063 22.1012 96.0592 25.3862C99.6778 27.0879 103.129 29.1253 106.367 31.4715L109.652 34.1615L111.295 35.6718ZM93.1984 53.3602C97.4367 57.2469 100.356 62.3598 101.549 67.9853C102.741 73.6109 102.148 79.4685 99.8515 84.7407C96.8892 91.5775 91.4232 97.0217 84.5747 99.9569C80.7119 101.568 76.5352 102.287 72.3559 102.06C68.1766 101.833 64.1025 100.666 60.4371 98.645C58.5821 97.5224 56.8108 96.267 55.1372 94.8885L53.084 92.758L51.2622 90.6C49.9721 88.7466 48.8829 86.7612 48.0128 84.6773C45.6801 78.8833 45.3266 72.481 47.0072 66.4654C48.6878 60.4497 52.3083 55.1577 57.3062 51.4116C58.8311 50.3125 60.4485 49.3479 62.1404 48.5288C65.9193 46.7705 70.0396 45.8675 74.2075 45.8842C78.3754 45.9009 82.4884 46.8368 86.2531 48.6253C87.9162 49.4465 89.5018 50.416 90.9908 51.5219L93.1984 53.3602ZM91.4455 54.8154L89.4612 53.1893C87.9935 52.141 86.4379 51.2217 84.8117 50.4415C81.3865 48.8965 77.6674 48.1112 73.9099 48.1398C70.1525 48.1683 66.4457 49.01 63.0444 50.6069C61.5717 51.3225 60.1612 52.1595 58.8276 53.1094C55.7103 55.3562 53.1527 58.2911 51.3531 61.6862C49.4843 65.034 48.3997 68.7623 48.1811 72.5901C47.9624 76.418 48.6154 80.2455 50.0909 83.7843C50.9982 85.8974 52.1311 87.9062 53.4698 89.776L55.2447 91.7879L56.8432 93.3864C58.4698 94.6736 60.1816 95.8495 61.9667 96.9059C65.2926 98.6641 68.9663 99.6647 72.7244 99.8357C76.4825 100.007 80.2319 99.3441 83.7038 97.8953C90.0973 95.1678 95.1807 90.0626 97.8809 83.6575C99.9478 78.7803 100.439 73.3791 99.2863 68.209C98.1335 63.0388 95.3941 58.3581 91.4511 54.8209L91.4455 54.8154ZM90.1226 56.7005C91.0121 57.5901 91.8512 58.5286 92.6362 59.5117C91.1669 60.1456 90.0044 61.3299 89.3978 62.8107C89.3397 63.6586 89.6024 64.4973 90.1339 65.1605C90.6653 65.8237 91.4267 66.2628 92.2669 66.3908C93.5718 66.2544 94.8042 65.7237 95.8001 64.8695C96.5324 66.8069 97.0625 68.8148 97.3821 70.8611L94.8906 70.8667C94.3683 70.9904 93.8675 71.192 93.4051 71.4647C93.0106 71.779 92.6958 72.1819 92.4862 72.6407C92.2766 73.0994 92.1781 73.6012 92.1988 74.1051C92.2195 74.6091 92.3587 75.1011 92.6052 75.5411C92.8516 75.9812 93.1984 76.3569 93.6173 76.6378C94.7702 77.1668 96.0599 77.3211 97.3049 77.0788L97.3353 77.2855L96.9742 79.2451C96.6433 80.5841 96.2036 81.8939 95.6596 83.1614L94.5957 82.5716C94.1306 82.2018 93.587 81.9433 93.0067 81.8157C92.4263 81.6882 91.8244 81.6951 91.2471 81.8358C90.8441 82.0029 90.4842 82.2592 90.1946 82.5855C89.905 82.9118 89.6932 83.2996 89.5751 83.7196C89.4571 84.1396 89.4358 84.5809 89.513 85.0103C89.5902 85.4397 89.7637 85.846 90.0207 86.1986C90.8294 86.9944 91.7838 87.627 92.8318 88.0617C91.4634 89.6609 89.9833 91.1612 88.4029 92.5513C87.7491 91.1038 86.5771 89.9535 85.1176 89.3268C84.2676 89.2754 83.4289 89.5421 82.7646 90.0749C82.1003 90.6078 81.658 91.3687 81.5237 92.2096C81.6484 93.5128 82.1742 94.7453 83.0285 95.7373C81.1312 96.5967 79.1066 97.1413 77.0341 97.3496C77.1418 96.1759 77.0438 94.9923 76.7447 93.8522C76.4838 93.3867 76.1111 92.9934 75.6603 92.7079C75.2094 92.4224 74.6946 92.2536 74.1622 92.2166C73.6298 92.1797 73.0966 92.2759 72.6107 92.4965C72.1248 92.717 71.7014 93.0551 71.3787 93.4801C70.8642 94.6973 70.6579 96.0226 70.7779 97.3386L70.709 97.2697C68.618 97.1164 66.5748 96.5693 64.687 95.6574V95.5968C65.8169 94.103 67.2584 91.5922 65.2602 90.228C64.7958 89.8493 64.2478 89.5866 63.6617 89.4618C62.764 89.6094 61.9269 90.0094 61.248 90.615C60.5692 91.2207 60.0767 92.007 59.828 92.8821L58.3012 91.6529C57.2093 90.6896 56.2176 89.6185 55.3412 88.4558C57.8079 87.1853 59.5249 85.5344 58.1386 83.1118C57.7569 82.4465 57.1468 81.9422 56.4215 81.6925C55.6664 81.6349 54.9075 81.7307 54.1904 81.9741C53.4733 82.2176 52.8128 82.6037 52.2489 83.1091C51.4297 81.219 50.8751 79.2251 50.6007 77.1835C51.4571 77.0119 52.3355 76.9784 53.2025 77.0843C53.9814 76.9415 54.6856 76.5299 55.1923 75.9213C55.4674 75.5526 55.6594 75.1288 55.755 74.6789C55.8507 74.229 55.8477 73.7637 55.7463 73.3151C55.645 72.8664 55.4476 72.4451 55.1679 72.08C54.8881 71.7149 54.5326 71.4147 54.1257 71.2001C53.0223 70.8134 51.8384 70.7147 50.6862 70.9135L50.6641 70.8033L50.8984 69.3839C51.1173 67.764 51.6232 66.1961 52.3922 64.7537C53.0138 65.4737 53.8641 65.958 54.8004 66.1256C55.7367 66.2932 56.7022 66.1339 57.535 65.6742C57.886 65.3472 58.1518 64.9395 58.3095 64.4864C59.263 62.2485 57.2787 60.8374 55.1648 59.9141C56.5093 58.2754 58.001 56.7634 59.6213 55.3969L59.7398 55.5154C60.9305 57.8636 62.7274 59.4345 64.9543 58.1722C65.6338 57.7813 66.1502 57.1592 66.4095 56.4194C66.4728 55.6656 66.3828 54.9069 66.145 54.1888C65.9072 53.4707 65.5266 52.8082 65.026 52.2412C66.9043 51.3534 68.9221 50.7977 70.9901 50.5986L70.9873 51.0148C71.3015 51.8802 70.8109 52.8944 71.161 53.8011C71.3438 54.2488 71.6259 54.6492 71.9859 54.972C72.3459 55.2949 72.7745 55.5319 73.2394 55.6651C73.7043 55.7983 74.1933 55.8243 74.6697 55.741C75.1461 55.6578 75.5974 55.4676 75.9896 55.1847C76.4632 54.8032 76.8264 54.3022 77.0415 53.7333C77.2566 53.1645 77.3159 52.5485 77.2133 51.9491C77.1441 51.7287 77.1298 51.4947 77.1715 51.2675C77.2133 51.0403 77.31 50.8268 77.453 50.6454C79.478 50.9419 81.4525 51.5159 83.3207 52.3514C81.7111 54.2917 80.719 57.7809 84.1668 58.4892C85.0972 58.4231 85.9821 58.0615 86.6925 57.4571C87.403 56.8528 87.9018 56.0373 88.1162 55.1296L88.1658 55.0799L90.1226 56.7005ZM85.7708 53.9527C86.0225 54.1637 86.188 54.4598 86.2359 54.7848C86.2838 55.1097 86.2108 55.441 86.0306 55.7156C85.8504 55.9903 85.5757 56.1893 85.2586 56.2748C84.9414 56.3603 84.6039 56.3265 84.3101 56.1796C84.0729 56.0274 83.889 55.805 83.784 55.5435C83.679 55.2819 83.6581 54.9941 83.7241 54.7201C83.7902 54.4461 83.94 54.1995 84.1527 54.0146C84.3654 53.8296 84.6304 53.7155 84.9109 53.6881C85.2172 53.7188 85.5137 53.8126 85.7818 53.9637L85.7708 53.9527ZM93.7634 61.9453C94.0164 62.1557 94.1832 62.4518 94.2321 62.7772C94.2809 63.1026 94.2084 63.4346 94.0283 63.71C93.8482 63.9855 93.5732 64.185 93.2555 64.2707C92.9378 64.3565 92.5996 64.3224 92.3054 64.1749C90.8365 63.3344 91.8893 61.2012 93.7717 61.9536L93.7634 61.9453ZM74.8155 51.023C75.0731 51.1961 75.2625 51.4534 75.3512 51.7509C75.4398 52.0483 75.4223 52.3673 75.3014 52.6532C75.1806 52.9391 74.9641 53.1741 74.689 53.3177C74.4139 53.4615 74.0973 53.505 73.7937 53.4408C73.49 53.3766 73.2181 53.2088 73.0246 52.9661C72.8311 52.7234 72.7281 52.421 72.7333 52.1107C72.7384 51.8003 72.8514 51.5014 73.0528 51.2653C73.2542 51.0291 73.5315 50.8704 73.8371 50.8163C74.1754 50.8016 74.512 50.8727 74.8155 51.023ZM96.6242 72.8317C96.8747 73.0019 97.0598 73.2523 97.149 73.5418C97.2382 73.8312 97.2262 74.1424 97.115 74.424C97.0037 74.7057 96.7998 74.9411 96.5369 75.0915C96.2741 75.2419 95.9678 75.2982 95.6686 75.2513C95.3694 75.2043 95.0951 75.0569 94.8908 74.8333C94.6866 74.6097 94.5646 74.3231 94.545 74.0209C94.5253 73.7187 94.6091 73.4188 94.7827 73.1706C94.9562 72.9224 95.2091 72.7406 95.4997 72.6553C95.8838 72.5957 96.2769 72.6573 96.6242 72.8317ZM63.8326 53.9527C64.1135 54.1523 64.3063 54.453 64.3704 54.7916C64.4344 55.1302 64.3649 55.4805 64.1763 55.7689C63.9877 56.0574 63.6947 56.2616 63.3587 56.3387C63.0228 56.4157 62.6701 56.3597 62.3746 56.1824C60.9608 55.2536 62.212 53.418 63.8326 53.9527ZM93.598 83.7182C93.858 83.8742 94.0571 84.1142 94.1623 84.3986C94.2676 84.683 94.2727 84.9947 94.1769 85.2824C94.081 85.5701 93.89 85.8165 93.6353 85.981C93.3805 86.1455 93.0773 86.2182 92.7757 86.1872C92.474 86.1561 92.192 86.0232 91.9761 85.8102C91.7602 85.5973 91.6234 85.3171 91.5882 85.0159C91.553 84.7148 91.6215 84.4106 91.7825 84.1536C91.9434 83.8966 92.1872 83.7022 92.4736 83.6024C92.8534 83.5186 93.2501 83.5612 93.6035 83.7237L93.598 83.7182ZM55.931 62.0418C56.1867 62.2687 56.3454 62.5852 56.3744 62.9259C56.4033 63.2665 56.3003 63.6053 56.0865 63.8721C55.8728 64.139 55.5647 64.3135 55.2259 64.3596C54.8871 64.4057 54.5436 64.3198 54.2663 64.1198C54.0775 63.9486 53.9408 63.7276 53.8719 63.4822C53.8029 63.2368 53.8045 62.977 53.8764 62.7325C53.9483 62.488 54.0876 62.2687 54.2785 62.0997C54.4693 61.9307 54.7039 61.8189 54.9553 61.7772C55.2971 61.7766 55.6329 61.8669 55.9282 62.039L55.931 62.0418ZM85.6964 91.8072C85.9404 91.9856 86.1167 92.2414 86.1966 92.5329C86.2766 92.8243 86.2554 93.1343 86.1365 93.4122C86.0176 93.6901 85.8081 93.9195 85.5421 94.063C85.2761 94.2065 84.9693 94.2556 84.6718 94.2024C84.3743 94.1491 84.1036 93.9966 83.9039 93.7698C83.7042 93.5429 83.5872 93.2551 83.5721 92.9532C83.557 92.6513 83.6446 92.3532 83.8207 92.1076C83.9968 91.8619 84.2509 91.6832 84.5416 91.6005C84.9388 91.5438 85.3436 91.6163 85.6964 91.8072ZM52.8773 72.8951C53.1366 73.0564 53.3329 73.3017 53.4334 73.5901C53.534 73.8784 53.5328 74.1926 53.43 74.4802C53.3273 74.7678 53.1291 75.0115 52.8686 75.1709C52.608 75.3302 52.3008 75.3955 51.9979 75.3559C51.6951 75.3164 51.4149 75.1743 51.204 74.9534C50.9932 74.7324 50.8643 74.446 50.8389 74.1416C50.8134 73.8373 50.893 73.5334 51.0643 73.2805C51.2356 73.0277 51.4883 72.8411 51.7803 72.7518C52.1532 72.6887 52.5338 72.7368 52.8773 72.8951ZM74.6887 94.7066C74.9486 94.8722 75.1431 95.1228 75.2391 95.4157C75.3351 95.7086 75.3266 96.0257 75.215 96.313C75.1035 96.6004 74.8959 96.8402 74.6274 96.9917C74.359 97.1431 74.0464 97.1969 73.7427 97.1438C73.4391 97.0907 73.1633 96.934 72.9622 96.7005C72.7611 96.4669 72.6471 96.1709 72.6397 95.8627C72.6323 95.5546 72.7319 95.2534 72.9216 95.0105C73.1113 94.7675 73.3793 94.5978 73.68 94.5302C74.0317 94.5017 74.3846 94.5673 74.7025 94.7203L74.6887 94.7066ZM55.7628 83.8064C56.0255 83.9653 56.2253 84.2101 56.3284 84.4993C56.4315 84.7885 56.4315 85.1045 56.3286 85.3938C56.2256 85.683 56.026 85.9279 55.7633 86.087C55.5007 86.246 55.1912 86.3096 54.8872 86.2668C54.5831 86.2241 54.3031 86.0777 54.0945 85.8524C53.886 85.627 53.7616 85.3366 53.7423 85.0302C53.7231 84.7237 53.8103 84.4201 53.9891 84.1705C54.168 83.9209 54.4275 83.7406 54.7238 83.6603C55.077 83.6154 55.4357 83.6659 55.7628 83.8064ZM63.7554 91.7989C64.0364 91.9985 64.2291 92.2992 64.2932 92.6378C64.3573 92.9764 64.2877 93.3267 64.0991 93.6152C63.9105 93.9036 63.6175 94.1078 63.2816 94.1849C62.9457 94.262 62.593 94.2059 62.2975 94.0286C62.0871 93.876 61.9255 93.6658 61.8321 93.4234C61.7387 93.1809 61.7175 92.9166 61.7712 92.6624C61.8248 92.4082 61.951 92.1749 62.1344 91.9909C62.3178 91.8068 62.5505 91.6798 62.8046 91.6253C63.1297 91.6061 63.4574 91.6675 63.7554 91.7989Z" fill="#F6F6F6"/>
</svg>
