<svg width="18" height="18" viewBox="0 0 18 18" fill="none" xmlns="http://www.w3.org/2000/svg">
<path fill-rule="evenodd" clip-rule="evenodd" d="M9.07758 0.640137C11.4197 0.67964 13.6517 1.57576 15.293 3.13566C16.9344 4.69555 17.8541 6.79453 17.8541 8.9809C17.8541 11.1673 16.9344 13.2662 15.293 14.8261C13.6517 16.386 11.4197 17.2822 9.07758 17.3217C6.73543 17.2822 4.50351 16.386 2.86212 14.8261C1.22073 13.2662 0.301086 11.1673 0.301086 8.9809C0.301086 6.79453 1.22073 4.69555 2.86212 3.13566C4.50351 1.57576 6.73543 0.67964 9.07758 0.640137ZM7.2217 11.6903L5.03316 9.64589C4.85402 9.47811 4.75343 9.2509 4.75343 9.01403C4.75343 8.77717 4.85402 8.54996 5.03316 8.38218C5.21322 8.21514 5.45677 8.12139 5.71064 8.12139C5.96451 8.12139 6.20806 8.21514 6.38811 8.38218L7.92982 9.82292L11.7671 6.2415C11.9468 6.0743 12.1903 5.98041 12.444 5.98041C12.6978 5.98041 12.9413 6.0743 13.121 6.2415C13.2999 6.40939 13.4004 6.63656 13.4004 6.87335C13.4004 7.11014 13.2999 7.33731 13.121 7.50521L8.60583 11.7194C8.51417 11.8045 8.40504 11.8715 8.28498 11.9162C8.16491 11.961 8.0364 11.9827 7.90714 11.98C7.77788 11.9773 7.65053 11.9502 7.53275 11.9004C7.41497 11.8507 7.30917 11.7792 7.2217 11.6903Z" fill="#FDC043"/>
</svg>
