<svg width="11" height="15" viewBox="0 0 11 15" fill="none" xmlns="http://www.w3.org/2000/svg">
<path d="M5.619 0.0576019C4.31539 0.0595679 3.06567 0.647344 2.14388 1.69204C1.22208 2.73674 0.703456 4.15309 0.701721 5.63052C0.701721 9.63141 5.28299 14.6424 5.47763 14.8537C5.51549 14.8954 5.56621 14.9187 5.619 14.9187C5.6718 14.9187 5.72251 14.8954 5.76037 14.8537C5.95502 14.6424 10.5363 9.63141 10.5363 5.63052C10.5345 4.15309 10.0159 2.73674 9.09413 1.69204C8.17233 0.647344 6.92261 0.0595679 5.619 0.0576019ZM5.619 8.18477C5.17325 8.18477 4.73751 8.03497 4.36688 7.7543C3.99626 7.47364 3.70739 7.07472 3.5368 6.60799C3.36622 6.14126 3.32159 5.62769 3.40855 5.13221C3.49551 4.63673 3.71016 4.18161 4.02536 3.82439C4.34055 3.46717 4.74213 3.2239 5.17932 3.12534C5.6165 3.02679 6.06966 3.07737 6.48148 3.2707C6.8933 3.46402 7.24528 3.79141 7.49293 4.21145C7.74057 4.6315 7.87276 5.12534 7.87276 5.63052C7.87238 6.30782 7.6348 6.95725 7.21223 7.43617C6.78965 7.9151 6.21662 8.18434 5.619 8.18477Z" fill="#FDC043"/>
</svg>
