<svg width="92" height="66" viewBox="0 0 92 66" fill="none" xmlns="http://www.w3.org/2000/svg">
<path d="M56.4652 37.02L66.7699 47.3247C68.3737 48.9285 68.3737 51.5286 66.7699 53.1325C65.1661 54.7363 62.5659 54.7363 60.9621 53.1325L52.7411 44.9115" stroke="#FDC043" stroke-width="4.2" stroke-miterlimit="10" stroke-linecap="round" stroke-linejoin="round"/>
<path d="M52.7411 44.9114L60.0726 52.2428C61.6764 53.8466 61.6764 56.4468 60.0726 58.0506C58.4688 59.6544 55.8686 59.6544 54.2648 58.0506L48.9832 52.7689" stroke="#FDC043" stroke-width="4.2" stroke-miterlimit="10" stroke-linecap="round" stroke-linejoin="round"/>
<path d="M48.9831 52.7689L52.2036 55.9894C53.8074 57.5932 53.8074 60.1933 52.2036 61.7971C50.5998 63.401 47.9996 63.401 46.3958 61.7971L44.8906 60.2919M71.3349 14.262L70.4635 14.6969C68.9112 15.4715 67.2169 15.9205 65.4848 16.0163C63.7526 16.1121 62.0191 15.8528 60.3908 15.2541C58.0904 14.4083 55.6348 14.0675 53.191 14.2548C50.7472 14.442 48.3722 15.153 46.2275 16.3394L38.5787 20.5706C36.0789 21.9533 35.3182 25.1913 36.9406 27.5427C38.1914 29.3552 40.5095 30.0929 42.5776 29.3363L52.2105 25.812C53.2301 25.4389 54.3351 25.3651 55.3953 25.5993C56.4555 25.8334 57.4267 26.3657 58.1945 27.1334L72.5778 41.5168C74.1816 43.1206 74.1816 45.7207 72.5778 47.3245C70.974 48.9283 68.3738 48.9283 66.77 47.3245L55.4114 35.9659" stroke="#FDC043" stroke-width="4.2" stroke-miterlimit="10" stroke-linecap="round" stroke-linejoin="round"/>
<path d="M46.2275 16.3395C44.0828 15.1531 41.7079 14.4421 39.264 14.2548C36.8202 14.0676 34.3646 14.4084 32.0642 15.2543C30.4359 15.8529 28.7024 16.1123 26.9703 16.0165C25.2381 15.9207 23.5438 15.4717 21.9915 14.6971L21.1535 14.2789M72.7866 41.3539L80.2465 37.3838M18.8364 40.6951L12.6232 35.7744M36.1411 45.6619L31.8342 49.9688M36.1411 45.6619C37.7449 44.058 37.7449 41.4579 36.1411 39.8541C34.5373 38.2503 31.9371 38.2503 30.3333 39.8541L26.0264 44.161C24.4226 45.7648 24.4226 48.365 26.0264 49.9688C27.6302 51.5726 30.2304 51.5726 31.8342 49.9688M36.1411 45.6619C37.7449 44.058 40.3451 44.058 41.9489 45.6619C43.5527 47.2657 43.5527 49.8658 41.9489 51.4696L37.6419 55.7766C36.0381 57.3804 33.438 57.3804 31.8342 55.7766C30.2304 54.1728 30.2304 51.5726 31.8342 49.9688" stroke="#FDC043" stroke-width="4.2" stroke-miterlimit="10" stroke-linecap="round" stroke-linejoin="round"/>
<path d="M45.9334 59.1007L44.4157 60.6184C42.8118 62.2222 40.2117 62.2222 38.6079 60.6184C37.0041 59.0146 37.0041 56.4145 38.6079 54.8106L40.1256 53.2929C41.7294 51.6891 44.3295 51.6891 45.9334 53.2929C47.5372 54.8967 47.5372 57.4969 45.9334 59.1007ZM22.1356 36.4363L20.2186 38.3533C18.6148 39.9571 18.6148 42.5572 20.2186 44.161C21.8224 45.7648 24.4226 45.7648 26.0264 44.161L27.9433 42.2441C29.5471 40.6403 29.5471 38.0401 27.9433 36.4363C26.3395 34.8327 23.7394 34.8327 22.1356 36.4363ZM89.455 37.2701L81.7764 40.0323L69.8854 10.4552L83.8312 3L89.455 37.2701ZM3 37.2701L10.6787 40.0323L22.5696 10.4552L8.62379 3L3 37.2701Z" stroke="#FDC043" stroke-width="4.2" stroke-miterlimit="10" stroke-linecap="round" stroke-linejoin="round"/>
</svg>
