<svg width="144" height="63" viewBox="0 0 144 63" fill="none" xmlns="http://www.w3.org/2000/svg">
<path fill-rule="evenodd" clip-rule="evenodd" d="M43.3714 3.81122V7.97057H31.1847V3.78332L32.0239 0.798004H32.8631L33.6901 3.81122H43.3714ZM56.8048 3.81122V7.97057H44.618V3.81122L45.4573 0.798004L46.3077 0.81028L47.1346 3.81122H56.8048ZM70.2862 3.81122V7.97057H58.0938V3.78332L58.9252 0.798004L59.7756 0.81028L60.6037 3.81122H70.2862ZM83.7072 3.81122V7.97057H71.5316V3.77104L72.3586 0.798004L73.209 0.81028L74.0359 3.81122H83.7072ZM97.1875 3.81122V7.97057H85.013V3.77104L85.8388 0.798004L86.6892 0.81028L87.5173 3.81122H97.1875ZM110.669 3.81122V7.97057H98.4452V3.77104L99.2744 0.798004H100.111V0.822556L100.937 3.81122H110.669ZM111.928 7.97504V3.77104C112.215 2.78003 112.502 1.78902 112.79 0.798004L113.641 0.822556C113.904 1.82919 114.168 2.8362 114.432 3.84358C115.219 3.84068 116.004 3.91544 116.776 4.06678L118.262 4.30784C119.717 4.62296 121.147 5.04522 122.54 5.57116C123.123 5.80441 123.679 6.04993 124.229 6.29322L124.925 6.62802L122.876 10.1992C121.24 9.44666 119.534 8.85789 117.782 8.44153C116.944 8.23618 116.056 8.18931 115.146 8.04423C114.076 7.94291 113 7.9183 111.927 7.97057L111.928 7.97504ZM29.8912 3.81903V7.95941C27.0217 7.94936 24.1801 8.52269 21.539 9.64458L20.038 10.3298L19.307 10.7148L17.2725 7.17709L16.69 4.07125C16.9349 3.92657 17.1975 3.81405 17.4712 3.73645L19.5135 6.04323C22.7737 4.56781 26.3127 3.80933 29.8912 3.81903ZM128.343 5.11918L129.062 5.55219L128.169 8.57322C128.907 9.04559 129.602 9.58065 130.248 10.1725C131.766 11.4051 133.123 12.8243 134.286 14.3965C134.689 14.9311 135.084 15.4657 135.461 16.0337C135.633 16.2183 135.768 16.4353 135.856 16.6721L133.256 18.1642C132.968 18.3727 132.654 18.5426 132.322 18.6697L131.862 17.9845C131.432 17.3729 130.982 16.8049 130.531 16.2268C128.735 13.9998 126.515 12.1508 124.001 10.7863L126.037 7.23624L128.343 5.11918ZM16.1844 7.79759L18.2334 11.3599L17.6341 11.7449C17.0761 12.1177 16.5605 12.5116 16.0405 12.9122C14.4027 14.1816 12.9612 15.6858 11.7628 17.3763C11.4526 17.8137 11.1434 18.2468 10.8522 18.7155L10.5765 19.1619C10.4298 19.1095 10.2923 19.0341 10.1692 18.9387L9.23395 18.3974L7.05104 17.1419L5.00205 14.7715L5.01433 14.7358L5.46073 14.074L8.44493 15.0371L8.80428 14.5561C9.18819 14.045 9.60892 13.5807 10.0029 13.0875C10.485 12.4627 11.0311 11.8901 11.6322 11.3789L12.2918 10.7405C12.9614 10.2015 13.5853 9.61445 14.2805 9.10332L15.5628 8.20047L16.1844 7.79759ZM51.2683 27.8176C51.304 28.418 51.4803 29.0017 51.4915 29.6468C51.1306 29.706 50.7951 29.8701 50.5268 30.1186C50.2584 30.3671 50.0691 30.6889 49.9823 31.0442C49.8954 31.3995 49.915 31.7724 50.0385 32.1167C50.162 32.4609 50.384 32.7612 50.6768 32.9803C50.9087 33.1709 51.1925 33.2876 51.4915 33.3151C51.4915 33.9646 51.3018 34.5516 51.2683 35.1565C50.8283 35.111 50.3866 35.2236 50.022 35.4741C49.6575 35.7246 49.394 36.0966 49.2787 36.5236C49.1634 36.9506 49.2038 37.4048 49.3927 37.8047C49.5816 38.2046 49.9066 38.5243 50.3097 38.7065C50.1363 39.2998 49.8995 39.8726 49.6032 40.4151C49.3069 40.3006 48.9862 40.2637 48.6716 40.3079C48.357 40.352 48.0589 40.4759 47.8056 40.6676C47.5523 40.8593 47.3522 41.1126 47.2242 41.4033C47.0962 41.6941 47.0446 42.0127 47.0744 42.329C47.1583 42.8196 47.4028 43.2683 47.7696 43.6046L47.4583 44.0376C47.2346 44.411 46.9651 44.7548 46.6558 45.061C46.3563 44.8929 46.0331 44.771 45.6972 44.6994C45.4186 44.669 45.137 44.7149 44.8825 44.8322C44.6172 44.9371 44.3795 45.1015 44.1878 45.3127C43.996 45.524 43.8553 45.7764 43.7765 46.0506C43.6977 46.3247 43.6829 46.6134 43.7332 46.8942C43.7835 47.175 43.8976 47.4405 44.0667 47.6702L43.0366 48.5005L42.617 48.8019L42.5925 48.7896C42.3496 48.4795 42.0139 48.2552 41.6345 48.1496C41.2551 48.0439 40.8518 48.0624 40.4836 48.2022C40.1155 48.3421 39.8017 48.5961 39.5882 48.9271C39.3746 49.2581 39.2726 49.6486 39.2969 50.0418C39.3326 50.265 39.4018 50.4603 39.4286 50.6556C38.9733 50.7939 38.5358 51.0383 38.0749 51.2214C37.9685 51.2846 37.8504 51.3256 37.7278 51.3419C37.5535 50.9279 37.2346 50.5915 36.8304 50.3955C36.4263 50.1995 35.9646 50.1573 35.5316 50.2768C35.0987 50.3962 34.724 50.6692 34.4775 51.0447C34.231 51.4202 34.1297 51.8725 34.1923 52.3173C33.593 52.3418 33.0116 52.5304 32.371 52.5405C32.3285 52.2071 32.1955 51.8917 31.9864 51.6286C31.7772 51.3656 31.4999 51.1649 31.1847 51.0484C30.9239 50.953 30.6451 50.9171 30.3687 50.9436C30.0923 50.97 29.8253 51.058 29.5874 51.2011C29.3494 51.3442 29.1465 51.5388 28.9936 51.7706C28.8407 52.0023 28.7417 52.2654 28.7038 52.5405H28.5732L26.8836 52.3173C26.9364 51.9077 26.8517 51.4922 26.6429 51.1359C26.434 50.7796 26.1128 50.5027 25.7296 50.3487C25.276 50.1673 24.7689 50.1731 24.3195 50.3649C23.8702 50.5568 23.5152 50.9189 23.3324 51.372L22.0267 50.8542L21.6317 50.6734V50.66C21.725 50.4297 21.7717 50.1832 21.7692 49.9347C21.7666 49.6862 21.7148 49.4407 21.6167 49.2123C21.5186 48.984 21.3762 48.7774 21.1978 48.6044C21.0193 48.4315 20.8083 48.2957 20.577 48.2048C20.2044 48.0672 19.7975 48.0525 19.4159 48.163C19.0343 48.2734 18.6981 48.5032 18.4566 48.8186H18.4477C18.1218 48.5296 17.7357 48.2751 17.3931 48.0117C17.2354 47.9329 17.1025 47.812 17.0092 47.6624C17.2027 47.4044 17.3256 47.1004 17.3657 46.7803C17.4058 46.4602 17.3617 46.1353 17.2377 45.8375C17.1137 45.5397 16.9142 45.2794 16.6588 45.0824C16.4034 44.8853 16.101 44.7583 15.7816 44.7139C15.3722 44.6484 14.9528 44.7273 14.5952 44.9371L14.4033 45.0811L14.3319 45.0208L13.5172 43.9495C13.4245 43.82 13.2438 43.6928 13.3375 43.5522C13.6738 43.2665 13.897 42.8702 13.9671 42.4346C14.0372 41.999 13.9495 41.5527 13.7199 41.176C13.4902 40.7992 13.1336 40.5169 12.7143 40.3796C12.295 40.2424 11.8404 40.2593 11.4325 40.4274C11.1511 39.8779 10.9148 39.3065 10.726 38.7188C11.1033 38.5653 11.4197 38.2924 11.6269 37.9418C11.834 37.5912 11.9204 37.1823 11.8727 36.7778C11.8251 36.3734 11.6461 35.9958 11.3631 35.7029C11.0802 35.41 10.709 35.218 10.3064 35.1565L9.77074 35.1464C9.74731 34.5516 9.57767 33.9612 9.54754 33.3296C9.90586 33.288 10.2439 33.1413 10.5189 32.9079C10.794 32.6746 10.9938 32.365 11.0932 32.0183C11.1696 31.7601 11.189 31.4885 11.1501 31.2222C11.1112 30.9558 11.0149 30.7011 10.868 30.4756C10.721 30.2501 10.5268 30.0592 10.2988 29.9161C10.0708 29.773 9.81451 29.6811 9.54754 29.6468C9.56727 29.0266 9.64764 28.4098 9.78748 27.8053C10.0103 27.8471 10.2399 27.8349 10.4571 27.7696C10.6978 27.7146 10.9251 27.612 11.1255 27.4677C11.3259 27.3234 11.4953 27.1404 11.6238 26.9295C11.7523 26.7186 11.8372 26.4842 11.8735 26.2399C11.9099 25.9957 11.8969 25.7466 11.8354 25.5075C11.7184 25.0691 11.4515 24.6856 11.0809 24.4238L10.7305 24.2341L11.11 23.2442L11.4213 22.5467C11.7519 22.6578 12.1016 22.7003 12.4492 22.6717C12.7206 22.6263 12.9786 22.5217 13.205 22.3653C13.4314 22.2088 13.6206 22.0045 13.7591 21.7667C13.8976 21.5289 13.982 21.2635 14.0063 20.9895C14.0307 20.7154 13.9944 20.4393 13.9 20.1808C13.7495 19.8684 13.5421 19.5868 13.2884 19.3505C13.5023 19.0111 13.7426 18.689 14.0071 18.3874L14.4022 17.8941C14.6838 18.0749 14.9969 18.2013 15.3251 18.2668C15.626 18.2986 15.93 18.2568 16.2111 18.145C16.4923 18.0332 16.742 17.8548 16.9389 17.6251C17.1357 17.3954 17.2739 17.1213 17.3413 16.8264C17.4088 16.5315 17.4035 16.2246 17.3261 15.9322C17.2515 15.7006 17.1424 15.4817 17.0025 15.2826C17.445 14.8601 17.9313 14.486 18.4533 14.1666C18.7787 14.5251 19.2078 14.7732 19.6809 14.8764C20.0041 14.9186 20.3328 14.8752 20.634 14.7505C20.9352 14.6259 21.1984 14.4244 21.3974 14.1661C21.5963 13.9079 21.724 13.602 21.7676 13.2789C21.8113 12.9559 21.7694 12.627 21.6462 12.3252L22.0658 12.1322C22.4726 11.9124 22.9027 11.7387 23.3481 11.6143C23.5204 12.0306 23.8386 12.3698 24.243 12.5685C24.6474 12.7671 25.1104 12.8115 25.5452 12.6934C25.98 12.5754 26.3569 12.3029 26.6053 11.927C26.8537 11.5511 26.9566 11.0975 26.8947 10.6512C27.4806 10.6189 28.0732 10.4492 28.7049 10.4146C28.742 10.6914 28.841 10.9562 28.9945 11.1894C29.1481 11.4226 29.3523 11.6182 29.5918 11.7616C29.8314 11.905 30.1003 11.9925 30.3784 12.0176C30.6565 12.0427 30.9366 12.0048 31.1981 11.9067C31.5114 11.7891 31.7865 11.5878 31.9935 11.3247C32.2005 11.0616 32.3314 10.7469 32.3721 10.4146C33.0015 10.4648 33.6086 10.5653 34.1934 10.6557C34.134 11.1014 34.2389 11.5534 34.4884 11.9275C34.7378 12.3016 35.1149 12.5721 35.5492 12.6885C35.9835 12.8049 36.4453 12.7593 36.8485 12.5602C37.2516 12.3611 37.5685 12.0221 37.7401 11.6065C38.1865 11.7962 38.6418 11.9715 39.0704 12.1645L39.4297 12.333C39.3094 12.6767 39.2764 13.0448 39.3337 13.4044C39.3835 13.6441 39.4801 13.8716 39.618 14.074C39.7558 14.2763 39.9321 14.4495 40.137 14.5836C40.3418 14.7178 40.571 14.8102 40.8116 14.8556C41.0522 14.9011 41.2993 14.8987 41.539 14.8485C41.949 14.7197 42.3198 14.4894 42.617 14.1789C43.1282 14.5238 43.5768 14.9378 44.0678 15.2949C43.9275 15.5069 43.8185 15.7381 43.7442 15.9813C43.6782 16.2541 43.6748 16.5383 43.7342 16.8127C43.7936 17.087 43.9143 17.3444 44.0872 17.5655C44.2601 17.7866 44.4808 17.9658 44.7328 18.0895C44.9847 18.2133 45.2614 18.2785 45.5421 18.2802C45.9455 18.2856 46.3389 18.1543 46.6581 17.9075L46.6938 17.932L47.7841 19.3639L47.7719 19.3884C47.4313 19.6673 47.2013 20.0584 47.1231 20.4916C47.045 20.9248 47.1238 21.3716 47.3455 21.7519C47.5671 22.1322 47.9171 22.421 48.3326 22.5664C48.748 22.7119 49.2017 22.7045 49.6121 22.5456C49.8899 23.0996 50.1224 23.6751 50.3074 24.2665C49.8966 24.4433 49.5634 24.7623 49.3688 25.1649C49.1743 25.5676 49.1315 26.027 49.2483 26.4586C49.3651 26.8903 49.6336 27.2654 50.0047 27.515C50.3758 27.7647 50.8244 27.8721 51.2683 27.8176ZM30.1546 14.5059L29.5553 14.5305L28.2976 14.651C27.1652 14.8138 26.0502 15.0798 24.9663 15.4456C21.6911 16.6209 18.846 18.7556 16.8016 21.5713C16.3418 22.2186 15.9523 22.9105 15.5438 23.617C15.1388 24.3958 14.7944 25.2047 14.5138 26.0365C14.1801 27.055 13.9356 28.1005 13.7828 29.1613C13.6957 29.6077 13.7381 30.063 13.6634 30.5451C13.5904 31.08 13.5874 31.6221 13.6544 32.1578L13.7381 33.4211C13.8698 34.3538 14.0561 35.2779 14.2961 36.1888C14.9764 38.6279 16.2028 40.8802 17.8824 42.7751C19.5621 44.6699 21.651 46.1577 23.9909 47.1256C25.079 47.5735 26.2061 47.9202 27.3579 48.1613C27.8489 48.2729 28.34 48.2729 28.8678 48.3655C29.4078 48.4371 29.9527 48.4651 30.4972 48.4492H31.1088L32.4268 48.3532C33.3672 48.2238 34.2989 48.0375 35.2168 47.7952C37.6643 47.093 39.9204 45.8441 41.8149 44.1429C43.7095 42.4417 45.193 40.3325 46.1536 37.9744C46.6934 36.5637 47.0792 35.0988 47.3042 33.6052L47.4237 32.1254V31.6321C47.4731 31.0136 47.4491 30.3914 47.3522 29.7784L47.1569 28.3466C46.9309 27.2423 46.6102 26.1595 46.1983 25.1102C45.1455 22.4654 43.4391 20.1308 41.2387 18.3249C39.0383 16.5189 36.4158 15.3006 33.6164 14.7838C32.4757 14.5682 31.3151 14.4751 30.1546 14.5059ZM30.3343 16.1799C33.6289 16.0897 36.8593 17.1019 39.5134 19.0559C39.971 19.384 40.385 19.7645 40.8191 20.1149L41.3771 20.6562L37.3506 24.7006L37.1352 24.4841L36.7781 24.1582L35.9154 23.4964C35.035 22.902 34.0636 22.455 33.0395 22.1729C31.2832 21.7397 29.4438 21.7782 27.7072 22.2845C26.2523 22.7296 24.9247 23.5154 23.8346 24.5768C22.7445 25.6381 21.9235 26.9443 21.4397 28.3868C21.2371 29.0017 21.0925 29.6343 21.0078 30.2762L20.9364 31.227L20.9721 32.2136C21.029 32.583 21.019 32.9088 21.0915 33.2481C21.234 33.9405 21.4425 34.6177 21.7142 35.2703C22.2503 36.5728 23.0725 37.7381 24.12 38.6799C25.1674 39.6216 26.4132 40.3157 27.7652 40.7108C29.1771 41.143 30.67 41.242 32.1266 40.9999C33.5841 40.7294 34.9657 40.1465 36.1766 39.2913C36.6029 38.9855 36.9432 38.5826 37.3506 38.2679L41.3827 42.3134L40.8314 42.8312C40.3493 43.2207 39.8984 43.6314 39.3806 43.9986C37.8401 45.0948 36.1091 45.8949 34.276 46.3578C33.7102 46.5029 33.1455 46.5598 32.5261 46.6703C31.2237 46.8721 29.8979 46.8721 28.5955 46.6703C27.7463 46.5347 26.9059 46.3483 26.0789 46.1123C23.724 45.3863 21.5823 44.0954 19.8404 42.3522C18.0985 40.6089 16.8093 38.4662 16.0851 36.1107C15.8332 35.2326 15.6331 34.3405 15.4858 33.4389L15.3898 32.1511C15.3279 31.712 15.3279 31.2665 15.3898 30.8275L15.4735 29.6356C15.6108 28.7093 15.8069 27.7927 16.0606 26.8913C16.7446 24.6893 17.9197 22.6712 19.4972 20.9894C21.0747 19.3075 23.0134 18.0057 25.1672 17.1821C26.2443 16.794 27.3555 16.5078 28.4862 16.3272L29.6959 16.2067L30.3343 16.1799ZM140.086 30.9837H137.09C136.743 31.0104 136.394 31.0022 136.048 30.9592C136.012 30.3491 135.975 29.7394 135.936 29.13C135.742 27.9638 135.642 26.8534 135.378 25.7965C135.017 24.3757 134.54 22.9868 133.952 21.6439L133.305 20.3203L133.006 19.7623L136.504 17.7278L139.583 17.114L139.955 17.8606L139.836 17.9811L137.655 19.9788C139.224 23.4371 140.052 27.1864 140.086 30.9837ZM7.15929 30.8386H3.10931L0.173096 29.803L0.221084 28.9604L3.27671 28.3221C3.332 27.4478 3.47254 26.581 3.69633 25.734C3.91398 24.6504 4.19798 23.5811 4.54672 22.5322C4.83242 21.7945 5.07794 21.0513 5.38596 20.3415C5.70067 19.6127 6.07677 18.9197 6.41603 18.2211L9.92698 20.2589L9.51964 21.0658C9.23283 21.7186 8.93597 22.3726 8.66925 23.0512C7.70483 25.536 7.19343 28.1735 7.15929 30.8386ZM54.7558 20.0547H72.0349V42.9216H66.9426C66.9389 36.7196 66.9348 30.5172 66.9303 24.3145L59.9921 24.3268V42.9216H54.7558V20.0547ZM80.4708 20.0547H86.1267L93.0772 42.9216H87.7449L86.4627 38.3125L79.9798 38.3248L78.7098 42.9228H73.5092L80.4708 20.0547ZM94.5035 20.0547H100.878C102.227 19.9835 103.58 20.0482 104.916 20.2477C106.453 20.4935 107.859 21.2631 108.894 22.4262C109.501 23.2143 109.938 24.1199 110.177 25.0856C110.308 25.5756 110.301 26.1112 110.392 26.6626V27.5654L110.356 28.3354C110.287 28.8665 110.187 29.3931 110.056 29.9124C109.714 31.2418 109.004 32.448 108.008 33.393C107.012 34.3379 105.77 34.9835 104.425 35.2558C102.926 35.4848 101.407 35.5491 99.8949 35.4478V42.925H94.5035V20.0547ZM111.124 20.0547H128.402V24.3156H122.207V42.9216H117.163V24.3156H111.123L111.124 20.0547ZM30.2517 23.425C31.8967 23.3538 33.5229 23.798 34.9034 24.6955C36.2838 25.593 37.3497 26.899 37.9521 28.4314C38.7366 30.4154 38.7322 32.6243 37.9398 34.6052C37.4841 35.7135 36.784 36.7047 35.8918 37.5049C34.9997 38.3051 33.9385 38.8936 32.7872 39.2265C32.1844 39.3748 31.5716 39.4793 30.9536 39.539L30.1066 39.5234L29.3008 39.4553C28.6644 39.3413 28.0419 39.1598 27.4438 38.9141C25.7984 38.2133 24.4306 36.9886 23.553 35.4304C22.6753 33.8722 22.3369 32.0677 22.5903 30.2974C22.6765 29.7661 22.8087 29.2434 22.9854 28.735C23.3945 27.6139 24.0459 26.5968 24.8931 25.7564C25.7403 24.9159 26.7625 24.2727 27.8869 23.8725C28.3898 23.7021 28.9072 23.5774 29.4325 23.4998L30.2517 23.425ZM30.1914 24.0745L29.4604 24.1471C28.951 24.232 28.4499 24.3608 27.9628 24.5321C26.9565 24.9128 26.0445 25.5068 25.2895 26.2733C24.5345 27.0398 23.9545 27.9607 23.5891 28.9727C23.4358 29.4157 23.3198 29.8708 23.242 30.3331C23.0658 31.4191 23.1422 32.5312 23.4653 33.5829C23.7647 34.6391 24.2999 35.6135 25.0307 36.4328C25.7614 37.252 26.6685 37.8948 27.6838 38.3125C28.2953 38.5567 28.9314 38.734 29.581 38.8415L30.3477 38.8895H30.9949C31.5849 38.8208 32.1695 38.7123 32.7448 38.5648C33.7742 38.2474 34.7205 37.7061 35.5161 36.9799C36.3116 36.2536 36.9365 35.3604 37.3461 34.3641C38.0884 32.5174 38.084 30.4546 37.3339 28.6111C36.7648 27.2052 35.7708 26.0122 34.4906 25.1988C33.2104 24.3854 31.7081 23.9924 30.1936 24.0745H30.1914ZM99.896 24.1705V31.1868C102.319 31.2092 104.048 31.0853 104.785 29.3934C104.945 28.8941 105.042 28.3767 105.073 27.8533C105.126 27.4397 105.105 27.0201 105.013 26.6134C104.906 26.1577 104.701 25.7305 104.414 25.3613C103.578 24.2977 101.798 24.1683 99.896 24.1705ZM30.3052 24.724C30.6654 24.7241 31.0254 24.7442 31.3833 24.7843C31.2142 25.2101 31.2186 25.6853 31.3956 26.1079C31.5555 26.2913 31.7785 26.408 32.0204 26.4346C32.2622 26.4613 32.5053 26.3961 32.7013 26.2519C32.9379 25.96 33.08 25.6031 33.1087 25.2285C33.6492 25.4725 34.163 25.7717 34.642 26.1213L34.1387 26.6268C34.058 26.7576 33.9974 26.8999 33.9591 27.0487C33.9428 27.1922 33.9606 27.3375 34.0111 27.4728C34.0615 27.6081 34.1432 27.7297 34.2494 27.8275C34.3556 27.9254 34.4834 27.9968 34.6224 28.036C34.7614 28.0752 34.9077 28.081 35.0494 28.0531C35.3899 27.9268 35.6822 27.6969 35.8853 27.3958L35.9333 27.4315L36.2569 27.9013C36.461 28.2394 36.6372 28.5936 36.7837 28.9604L36.4489 29.0564C36.2798 29.0757 36.1174 29.1334 35.9741 29.2251C35.8308 29.3167 35.7103 29.44 35.6219 29.5854C35.5741 29.7008 35.5532 29.8256 35.5606 29.9503C35.568 30.075 35.6037 30.1963 35.6648 30.3053C35.7259 30.4142 35.811 30.5079 35.9135 30.5792C36.0161 30.6505 36.1335 30.6976 36.2569 30.717C36.5818 30.7144 36.9031 30.6492 37.2033 30.525C37.25 31.1259 37.2541 31.7293 37.2156 32.3307C36.7901 32.17 36.3199 32.1744 35.8976 32.343C35.7151 32.5047 35.5992 32.7285 35.5726 32.9709C35.546 33.2133 35.6105 33.4569 35.7536 33.6543C36.0427 33.8929 36.3987 34.036 36.7725 34.0639C36.5624 34.622 36.2627 35.1422 35.8853 35.604C35.6694 35.3445 35.41 35.1247 35.1186 34.9545C34.9715 34.9131 34.8164 34.9089 34.6673 34.9424C34.5182 34.9758 34.3798 35.0459 34.2646 35.1462C34.1493 35.2465 34.0608 35.3739 34.0071 35.517C33.9534 35.66 33.9361 35.8142 33.9568 35.9656C34.0991 36.3162 34.3256 36.6263 34.6164 36.8684H34.5885C34.1341 37.2607 33.6097 37.5636 33.0428 37.7612L33.0305 37.749C32.9569 37.2177 32.7404 36.4176 32.0596 36.5459C31.8889 36.5633 31.7248 36.621 31.5808 36.7144C31.429 36.926 31.3405 37.1765 31.3256 37.4366C31.3108 37.6966 31.3703 37.9556 31.4971 38.1831L30.9391 38.2433C30.5231 38.2694 30.1054 38.2533 29.6926 38.1954C29.9347 37.4387 29.9481 36.7568 29.177 36.547C28.965 36.4896 28.7394 36.511 28.542 36.6073C28.3774 36.7485 28.2432 36.9216 28.1473 37.116C28.0514 37.3105 27.9958 37.5224 27.984 37.7389C27.4354 37.5221 26.9195 37.2307 26.4506 36.8729C26.5892 36.6647 26.7602 36.4801 26.9572 36.326C27.086 36.1394 27.1453 35.9135 27.1246 35.6877C27.1057 35.5574 27.0587 35.4327 26.987 35.3222C26.9153 35.2118 26.8205 35.1182 26.7091 35.0479C26.5978 34.9776 26.4725 34.9322 26.3419 34.9149C26.2114 34.8976 26.0786 34.9089 25.9528 34.9478C25.6511 35.0929 25.3914 35.3126 25.1984 35.5861L25.1716 35.5683L24.9317 35.2335C24.648 34.8612 24.433 34.4413 24.2967 33.9936C24.5683 34.0135 24.8385 33.9394 25.062 33.7838C25.2855 33.6281 25.4487 33.4004 25.5243 33.1387C25.5291 33.0015 25.5004 32.8651 25.4406 32.7414C25.1806 32.0953 24.4931 32.2113 23.8782 32.4524C23.8186 31.8484 23.8145 31.2403 23.8659 30.6355H23.9139C24.6304 30.8699 25.3122 30.8241 25.5075 30.1177C25.566 29.901 25.5446 29.6705 25.4473 29.4682C25.3075 29.3028 25.1356 29.1674 24.9421 29.0701C24.7486 28.9729 24.5374 28.9158 24.3212 28.9024C24.5218 28.3423 24.8178 27.8213 25.1962 27.3623L25.2799 27.4471C25.5187 27.5587 25.6247 27.8634 25.8792 27.9761C26.0068 28.0297 26.145 28.0537 26.2833 28.0461C26.4215 28.0386 26.5563 27.9998 26.6774 27.9327C26.7985 27.8655 26.9027 27.7717 26.9823 27.6585C27.0619 27.5452 27.1148 27.4153 27.1369 27.2786C27.1556 27.1055 27.1277 26.9305 27.056 26.7718C26.9844 26.613 26.8717 26.4763 26.7296 26.3757C26.6709 26.3451 26.6207 26.3007 26.5831 26.2462C26.5456 26.1917 26.5219 26.1289 26.5142 26.0633C26.9842 25.7133 27.5002 25.4298 28.0476 25.2207C28.1145 25.9394 28.6201 26.8467 29.4615 26.292C29.6365 26.0903 29.7425 25.8379 29.764 25.5717C29.7854 25.3055 29.7213 25.0394 29.581 24.8122V24.7921L30.3052 24.724ZM28.8678 25.0488C28.9615 25.0406 29.055 25.067 29.1305 25.1231C29.206 25.1792 29.2582 25.2611 29.2774 25.3531C29.2965 25.4452 29.2812 25.5411 29.2343 25.6227C29.1874 25.7042 29.1122 25.7657 29.023 25.7954C28.9441 25.8126 28.8619 25.8048 28.7876 25.7731C28.7134 25.7414 28.6509 25.6874 28.6088 25.6186C28.5667 25.5497 28.5471 25.4694 28.5527 25.3889C28.5584 25.3084 28.5889 25.2317 28.6402 25.1693C28.7084 25.1135 28.7874 25.0725 28.8723 25.0488H28.8678ZM32.1042 25.0488C32.1981 25.0402 32.2918 25.0663 32.3676 25.1223C32.4434 25.1783 32.4959 25.2602 32.5152 25.3525C32.5345 25.4447 32.5192 25.5408 32.4722 25.6225C32.4253 25.7041 32.3499 25.7657 32.2605 25.7954C31.7929 25.9226 31.5741 25.2776 32.1076 25.0488H32.1042ZM83.2151 26.5297L81.1304 34.055H85.3243V34.0159L83.2151 26.5297ZM26.0566 26.6737C26.1438 26.6566 26.2343 26.6703 26.3124 26.7126C26.3906 26.7549 26.4516 26.823 26.4851 26.9054C26.5185 26.9877 26.5222 27.0791 26.4956 27.1639C26.469 27.2487 26.4137 27.3216 26.3392 27.3701C26.2648 27.4186 26.1757 27.4397 26.0874 27.4297C25.9991 27.4197 25.917 27.3794 25.8552 27.3155C25.7935 27.2516 25.7558 27.1682 25.7488 27.0796C25.7417 26.9911 25.7657 26.9028 25.8167 26.83C25.8822 26.7585 25.9647 26.7047 26.0566 26.6737ZM34.8876 26.6737C34.9727 26.6574 35.0609 26.6707 35.1376 26.7112C35.2142 26.7517 35.2748 26.8172 35.3093 26.8967C35.3438 26.9763 35.3502 27.0652 35.3274 27.1489C35.3046 27.2326 35.254 27.306 35.184 27.3571C35.1139 27.4081 35.0285 27.4338 34.9419 27.4299C34.8552 27.426 34.7725 27.3927 34.7074 27.3354C34.6422 27.2782 34.5984 27.2005 34.5833 27.1152C34.5682 27.0298 34.5826 26.9418 34.6242 26.8657C34.6899 26.7758 34.7819 26.7087 34.8876 26.6737ZM24.4261 29.4905C24.5234 29.474 24.6233 29.4959 24.7049 29.5515C24.7864 29.6071 24.8432 29.6921 24.8634 29.7886C24.8836 29.8852 24.8657 29.9859 24.8133 30.0695C24.7609 30.1531 24.6781 30.2132 24.5824 30.2371C24.1081 30.3353 23.9898 29.7104 24.4261 29.4905ZM36.479 29.4905C36.5632 29.4695 36.6521 29.4777 36.731 29.514C36.8099 29.5503 36.874 29.6124 36.9129 29.69C36.9517 29.7677 36.9629 29.8562 36.9447 29.9411C36.9264 30.026 36.8797 30.1021 36.8124 30.1569C36.745 30.2117 36.661 30.2419 36.5742 30.2425C36.4874 30.2431 36.4029 30.214 36.3348 30.1602C36.2667 30.1063 36.219 30.0309 36.1996 29.9463C36.1801 29.8616 36.1901 29.7729 36.2279 29.6947C36.2878 29.6009 36.3768 29.5292 36.4812 29.4905H36.479ZM3.11042 32.1388H7.15929C7.14674 32.9455 7.21102 33.7515 7.35124 34.546C7.47624 35.2156 7.50748 35.8462 7.66261 36.4722C7.9537 37.751 8.32989 39.009 8.78866 40.2376L9.51964 41.9117L9.92698 42.7174L6.40376 44.7686L3.33586 45.3099L2.9765 44.5633L5.32011 42.4931C5.04558 41.7554 4.7197 41.0133 4.4753 40.2376C3.64132 37.6153 3.18146 34.8885 3.10931 32.1377L3.11042 32.1388ZM136.037 32.295H140.111L143.022 33.3418C143.026 33.625 142.998 33.9077 142.938 34.1844L139.895 34.7982C139.858 35.0668 139.821 35.3358 139.783 35.6051C139.663 36.2234 139.602 36.826 139.46 37.3985C139.283 38.1061 139.164 38.7779 138.956 39.4442C138.539 40.773 138.047 42.0771 137.482 43.3502C137.239 43.836 136.995 44.3196 136.751 44.801C136.627 45.0242 136.504 45.2448 136.38 45.4628L132.868 43.4283L133.384 42.4775C133.728 41.8389 134.032 41.1796 134.295 40.5033C135.383 37.9001 135.975 35.1159 136.037 32.295ZM24.4641 32.728C24.5618 32.7222 24.658 32.7542 24.7329 32.8173C24.8077 32.8804 24.8554 32.9698 24.8662 33.0671C24.8769 33.1644 24.8499 33.2621 24.7906 33.3401C24.7313 33.418 24.6444 33.4702 24.5478 33.4858C24.4749 33.4894 24.4025 33.4723 24.3388 33.4366C24.2752 33.4009 24.2229 33.3479 24.1879 33.2839C24.153 33.2198 24.1368 33.1472 24.1412 33.0743C24.1457 33.0015 24.1705 32.9314 24.213 32.872C24.282 32.8027 24.3683 32.753 24.463 32.728H24.4641ZM36.5169 32.728C36.6025 32.7148 36.6899 32.7309 36.7651 32.7737C36.8403 32.8165 36.8988 32.8836 36.931 32.9639C36.9632 33.0442 36.9672 33.1331 36.9424 33.216C36.9176 33.2989 36.8654 33.371 36.7944 33.4204C36.7234 33.4699 36.6377 33.4938 36.5514 33.4883C36.465 33.4828 36.383 33.4482 36.3189 33.3902C36.2547 33.3321 36.2121 33.254 36.198 33.1686C36.1839 33.0832 36.1992 32.9956 36.2413 32.92C36.3102 32.8281 36.4068 32.7608 36.5169 32.728ZM26.0432 35.5437C26.1284 35.5239 26.2178 35.5338 26.2965 35.5718C26.3753 35.6098 26.4386 35.6737 26.4761 35.7527C26.5135 35.8318 26.5227 35.9212 26.5022 36.0062C26.4817 36.0913 26.4327 36.1667 26.3634 36.22C26.2941 36.2733 26.2086 36.3013 26.1212 36.2992C26.0338 36.2972 25.9497 36.2653 25.8829 36.2088C25.8161 36.1523 25.7707 36.0747 25.7542 35.9888C25.7377 35.9029 25.7511 35.814 25.7921 35.7368C25.8548 35.6485 25.9416 35.5812 26.0432 35.5437ZM34.8753 35.5437C34.9615 35.5246 35.0516 35.536 35.1303 35.5759C35.209 35.6157 35.2715 35.6817 35.3071 35.7624C35.3427 35.8432 35.3492 35.9338 35.3255 36.0188C35.3018 36.1038 35.2494 36.178 35.1772 36.2287C35.105 36.2794 35.0174 36.3035 34.9294 36.297C34.8414 36.2904 34.7584 36.2535 34.6945 36.1926C34.6306 36.1318 34.5898 36.0506 34.579 35.963C34.5683 35.8754 34.5882 35.7868 34.6353 35.7122C34.7008 35.6353 34.7855 35.5771 34.8809 35.5437H34.8753ZM28.8366 37.1686C28.922 37.1476 29.012 37.1567 29.0914 37.1944C29.1708 37.2321 29.2348 37.2961 29.2725 37.3755C29.3102 37.4549 29.3194 37.5449 29.2984 37.6303C29.2775 37.7157 29.2277 37.7912 29.1574 37.8441C29.0872 37.897 29.0009 37.924 28.9131 37.9206C28.8252 37.9173 28.7412 37.8836 28.6753 37.8255C28.6094 37.7673 28.5655 37.6882 28.5512 37.6015C28.5369 37.5147 28.5529 37.4257 28.5966 37.3494C28.6591 37.2688 28.7419 37.2064 28.8366 37.1686ZM32.073 37.1686C32.1703 37.1522 32.2702 37.174 32.3517 37.2296C32.4333 37.2852 32.4901 37.3702 32.5103 37.4668C32.5305 37.5634 32.5125 37.664 32.4601 37.7476C32.4077 37.8312 32.325 37.8913 32.2292 37.9152C32.1558 37.9269 32.0805 37.9171 32.0125 37.8869C31.9445 37.8567 31.8867 37.8075 31.8461 37.7452C31.8055 37.6829 31.7838 37.6101 31.7837 37.5357C31.7835 37.4613 31.8049 37.3885 31.8453 37.326C31.9073 37.2563 31.9861 37.2023 32.073 37.1686ZM10.5386 43.8122C10.7783 44.1182 10.9908 44.4446 11.1736 44.7876C11.6724 45.5007 12.1992 46.1815 12.736 46.8578L13.6946 47.9046C14.0345 48.3149 14.416 48.6889 14.8329 49.0206L15.7916 49.8755C16.5724 50.5034 17.3884 51.0861 18.2356 51.6209L18.2234 51.6566L16.2146 55.1586L14.9803 56.1943L14.0696 56.9643C14.0003 57.0638 13.8985 57.1361 13.7817 57.1686L13.1188 56.7099L14.1232 53.7614L12.9369 52.8106C12.4692 52.4389 12.0786 51.968 11.6188 51.5952C11.1875 51.2441 10.7927 50.8504 10.4403 50.4201C9.74508 49.5552 8.98173 48.7461 8.3311 47.8321L7.42713 46.4839L7.04323 45.8578L7.0555 45.8333L10.5386 43.8122ZM132.197 44.5108L135.695 46.533L137.685 48.976L137.217 49.6623L135.037 48.8923C134.791 48.7423 134.51 48.6592 134.222 48.6512L133.898 49.0608C133.531 49.5407 133.097 49.9536 132.724 50.4212C132.401 50.8299 132.035 51.2039 131.634 51.5372L130.518 52.584C129.737 53.209 128.974 53.8272 128.145 54.4131C127.629 54.7792 127.092 55.1095 126.54 55.4488C126.348 55.6085 126.129 55.7308 125.892 55.8093C125.218 54.63 124.543 53.4504 123.868 52.2704L124.898 51.6689C125.559 51.2549 126.201 50.8096 126.815 50.3453C128.944 48.7388 130.767 46.7625 132.197 44.5108ZM29.8912 55.0169V59.1651L28.8969 62.1259C28.6152 62.1346 28.3336 62.1102 28.0576 62.0533L27.5666 59.8626C27.5343 59.5743 27.4657 59.2911 27.3623 59.02L25.6883 58.7968C24.5835 58.5625 23.5144 58.3694 22.501 58.0502C21.3354 57.6808 20.1912 57.2467 19.0738 56.7501L17.2759 55.8349L19.3249 52.2727L20.2835 52.7659L21.9854 53.5125C24.5024 54.5075 27.1847 55.0179 29.8912 55.0169ZM111.927 59.1651V55.0057C114.75 55.1125 117.569 54.7172 120.254 53.8384C120.907 53.6052 121.531 53.3663 122.136 53.1041C122.331 53.0052 122.536 52.9245 122.746 52.863C123.429 54.0467 124.112 55.2301 124.795 56.413C124.847 56.7739 124.899 57.1351 124.951 57.4967C125.043 58.1745 125.135 58.8526 125.227 59.5311L124.781 59.7119C124.68 59.7875 124.558 59.8296 124.433 59.8325L122.492 57.4252C119.123 58.7104 115.53 59.3022 111.927 59.1651ZM31.1847 55.0057H43.3714V59.1818L42.5333 62.1783H41.6885L40.8615 59.1651H31.1847V55.0057ZM44.618 55.0057L56.8048 55.018V59.1818L55.9656 62.1783H55.1274L54.2994 59.1651H44.618V55.0057ZM58.0994 55.0057L70.2862 55.018V59.1818L69.4469 62.1783H68.6077L67.7807 59.1651H58.0938V55.0057H58.0994ZM71.5316 55.0057H83.7061V59.2187L82.8792 62.1783H82.041V62.1538L81.2141 59.1651H71.5316V55.0057ZM85.013 55.0057H97.1875V59.2187L96.3605 62.1783H95.5213V62.1538L94.6988 59.1651H85.013V55.0057ZM98.4463 55.0057H110.668V59.2187L109.841 62.1783H109.003V62.1538L108.176 59.1651H98.4452L98.4463 55.0057Z" fill="#FDC043"/>
</svg>
