<svg width="15" height="12" viewBox="0 0 15 12" fill="none" xmlns="http://www.w3.org/2000/svg">
<path d="M9.11532 7.57778C8.76702 7.80998 8.36244 7.93273 7.94531 7.93273C7.52821 7.93273 7.12363 7.80998 6.77533 7.57778L1.03853 3.75313C1.00686 3.73195 0.975775 3.70992 0.945313 3.68704L0.945312 9.95414C0.945312 10.6727 1.52842 11.2429 2.23411 11.2429H13.6565C14.375 11.2429 14.9453 10.6598 14.9453 9.95414V3.68701C14.9148 3.70995 14.8836 3.73203 14.8519 3.75324L9.11532 7.57778Z" fill="#FDC043"/>
<path d="M1.49356 3.07039L7.23036 6.89507C7.44752 7.03985 7.6964 7.11223 7.94529 7.11223C8.1942 7.11223 8.44311 7.03982 8.66027 6.89507L14.3971 3.07039C14.7404 2.84166 14.9453 2.45884 14.9453 2.04568C14.9453 1.33526 14.3673 0.757324 13.657 0.757324H2.23367C1.52328 0.757352 0.945313 1.33529 0.945313 2.04636C0.9451 2.24904 0.995052 2.44861 1.09071 2.62729C1.18637 2.80597 1.32477 2.95819 1.49356 3.07039Z" fill="#FDC043"/>
</svg>
