<svg width="12" height="15" viewBox="0 0 12 15" fill="none" xmlns="http://www.w3.org/2000/svg">
<path d="M6.04206 6.91141C6.96254 6.91141 7.75962 6.58125 8.4109 5.92986C9.06218 5.27861 9.39232 4.48174 9.39232 3.56115C9.39232 2.64084 9.06218 1.84389 8.4108 1.1924C7.75941 0.541225 6.96243 0.21109 6.04206 0.21109C5.12145 0.21109 4.32455 0.541225 3.6733 1.1925C3.02205 1.84378 2.69178 2.64076 2.69178 3.56115C2.69178 4.48174 3.02202 5.27872 3.67341 5.93C4.3248 6.58117 5.12178 6.91141 6.04206 6.91141ZM11.9041 10.9069C11.8853 10.6359 11.8473 10.3402 11.7914 10.028C11.7349 9.71343 11.6623 9.41609 11.5752 9.14431C11.4854 8.8634 11.3631 8.58602 11.212 8.32016C11.0551 8.04425 10.8709 7.80399 10.6642 7.60629C10.448 7.39947 10.1833 7.23318 9.87728 7.11185C9.5723 6.99123 9.23429 6.9301 8.87275 6.9301C8.73074 6.9301 8.59344 6.98835 8.32823 7.16102C8.13972 7.28378 7.95064 7.40567 7.76101 7.52669C7.5788 7.6428 7.33196 7.75158 7.02706 7.85006C6.72961 7.94632 6.42759 7.99513 6.12949 7.99513C5.83141 7.99513 5.52947 7.94632 5.23169 7.85006C4.92715 7.75166 4.68031 7.64291 4.49829 7.5268C4.2872 7.39192 4.09621 7.26882 3.93055 7.16089C3.66567 6.98824 3.52823 6.92996 3.38626 6.92996C3.02458 6.92996 2.6867 6.9912 2.3818 7.11199C2.07596 7.23307 1.81118 7.39936 1.5948 7.6064C1.38819 7.8042 1.20386 8.04433 1.04722 8.32016C0.896221 8.58599 0.773969 8.86329 0.683964 9.14441C0.597029 9.41619 0.524357 9.71343 0.467904 10.028C0.411967 10.3398 0.373987 10.6355 0.355187 10.9072C0.336486 11.1806 0.327216 11.4546 0.327395 11.7286C0.327395 12.4547 0.558207 13.0425 1.01337 13.476C1.4629 13.9038 2.0577 14.1208 2.78102 14.1208H9.4786C10.2019 14.1208 10.7965 13.9039 11.2462 13.476C11.7014 13.0428 11.9322 12.4549 11.9322 11.7285C11.9321 11.4482 11.9227 11.1718 11.9041 10.9069Z" fill="#FDC043"/>
</svg>
