<svg width="11" height="11" viewBox="0 0 11 11" fill="none" xmlns="http://www.w3.org/2000/svg">
<path d="M10.3968 8.07934L9.0311 6.71369C8.54337 6.22595 7.71422 6.42107 7.51913 7.0551C7.37281 7.49408 6.88507 7.73795 6.44611 7.64038C5.47064 7.39651 4.15376 6.12841 3.90989 5.10416C3.76357 4.66518 4.05621 4.17745 4.49517 4.03115C5.12923 3.83606 5.32432 3.00691 4.83659 2.51917L3.47093 1.15352C3.08075 0.812105 2.49547 0.812105 2.15405 1.15352L1.22736 2.08021C0.300662 3.05568 1.3249 5.64067 3.61725 7.93302C5.9096 10.2254 8.49459 11.2984 9.47006 10.3229L10.3968 9.39622C10.7382 9.00604 10.7382 8.42076 10.3968 8.07934Z" fill="#FDC043"/>
</svg>
