<svg width="31" height="31" viewBox="0 0 31 31" fill="none" xmlns="http://www.w3.org/2000/svg">
<circle cx="15.3168" cy="15.4924" r="14.9716" fill="#FDCF72"/>
<path d="M21.7013 18.651L19.8168 16.7664C19.1437 16.0934 17.9995 16.3626 17.7303 17.2375C17.5284 17.8433 16.8553 18.1798 16.2496 18.0452C14.9035 17.7087 13.0862 15.9587 12.7497 14.5453C12.5478 13.9396 12.9516 13.2665 13.5574 13.0646C14.4323 12.7954 14.7016 11.6512 14.0285 10.9782L12.144 9.0936C11.6055 8.62247 10.7979 8.62247 10.3267 9.0936L9.04791 10.3724C7.76911 11.7185 9.18252 15.2857 12.3459 18.449C15.5092 21.6124 19.0764 23.0931 20.4225 21.747L21.7013 20.4682C22.1725 19.9298 22.1725 19.1221 21.7013 18.651Z" fill="#323232"/>
</svg>
