<svg width="30" height="30" viewBox="0 0 30 30" fill="none" xmlns="http://www.w3.org/2000/svg">
<path d="M28.5766 26.2384L23.1721 20.8339C24.8201 18.6853 25.7118 16.0524 25.7085 13.3446C25.7085 10.0365 24.4203 6.92766 22.0814 4.58871C20.9342 3.43519 19.5697 2.52065 18.0668 1.89805C16.5638 1.27544 14.9523 0.957133 13.3255 0.96154C10.0183 0.96154 6.90942 2.24975 4.56963 4.58871C-0.257423 9.41659 -0.257423 17.2725 4.56963 22.1004C5.71673 23.254 7.08125 24.1685 8.5842 24.7911C10.0872 25.4137 11.6987 25.732 13.3255 25.7276C16.0702 25.7276 18.6708 24.8285 20.8156 23.1903L26.2201 28.5957C26.5451 28.9206 26.9717 29.0839 27.3984 29.0839C27.825 29.0839 28.2516 28.9206 28.5766 28.5957C28.7314 28.4409 28.8542 28.2572 28.938 28.0549C29.0218 27.8527 29.0649 27.6359 29.0649 27.417C29.0649 27.1981 29.0218 26.9813 28.938 26.7791C28.8542 26.5769 28.7314 26.3931 28.5766 26.2384ZM6.92692 19.744C3.39807 16.2151 3.39891 10.474 6.92692 6.94515C7.76548 6.10238 8.76283 5.43426 9.86127 4.97943C10.9597 4.52461 12.1374 4.29211 13.3263 4.2954C14.5151 4.29213 15.6927 4.52464 16.791 4.97947C17.8893 5.43429 18.8865 6.10241 19.7249 6.94515C20.5679 7.78359 21.2362 8.7809 21.6912 9.87936C22.1462 10.9778 22.3788 12.1556 22.3755 13.3446C22.3755 15.7618 21.4339 18.0341 19.7249 19.744C18.0159 21.4538 15.7436 22.3937 13.3255 22.3937C10.909 22.3937 8.63592 21.4521 6.92608 19.744H6.92692Z" fill="#323232"/>
</svg>
