<svg width="19" height="19" viewBox="0 0 19 19" fill="none" xmlns="http://www.w3.org/2000/svg">
<path d="M17.8258 16.4406L14.4025 13.0174C15.4464 11.6565 16.0112 9.98872 16.0091 8.27358C16.0091 6.17824 15.1932 4.20904 13.7116 2.72753C12.985 1.99688 12.1207 1.4176 11.1688 1.02324C10.2168 0.628875 9.19602 0.427253 8.16559 0.430044C6.07078 0.430044 4.10159 1.24601 2.61954 2.72753C-0.43796 5.78556 -0.43796 10.7616 2.61954 13.8196C3.34613 14.5503 4.21043 15.1296 5.16241 15.524C6.1144 15.9183 7.13516 16.1199 8.16559 16.1171C9.90415 16.1171 11.5514 15.5476 12.9099 14.51L16.3332 17.9338C16.539 18.1396 16.8093 18.2431 17.0795 18.2431C17.3497 18.2431 17.62 18.1396 17.8258 17.9338C17.9239 17.8357 18.0016 17.7194 18.0547 17.5913C18.1078 17.4632 18.1351 17.3259 18.1351 17.1872C18.1351 17.0486 18.1078 16.9113 18.0547 16.7832C18.0016 16.6551 17.9239 16.5387 17.8258 16.4406ZM4.11267 12.327C1.87747 10.0918 1.878 6.45533 4.11267 4.22013C4.64382 3.68631 5.27556 3.26311 5.97132 2.97502C6.66709 2.68693 7.41307 2.53966 8.16612 2.54174C8.91909 2.53968 9.66499 2.68695 10.3607 2.97504C11.0564 3.26313 11.688 3.68632 12.219 4.22013C12.753 4.7512 13.1763 5.38291 13.4645 6.07868C13.7527 6.77446 13.9 7.52048 13.898 8.27358C13.898 9.8047 13.3015 11.244 12.219 12.327C11.1365 13.4101 9.69725 14.0054 8.16559 14.0054C6.63499 14.0054 5.19518 13.409 4.11214 12.327H4.11267Z" fill="#FDC043"/>
</svg>
