<svg width="77" height="63" viewBox="0 0 77 63" fill="none" xmlns="http://www.w3.org/2000/svg">
<path fill-rule="evenodd" clip-rule="evenodd" d="M28.9302 12.4533C33.6246 8.30276 39.6764 6.01487 45.9426 6.02178C60.1438 6.02178 71.6759 17.5538 71.6759 31.7551C71.6759 45.9563 60.1438 57.4883 45.9426 57.4883C39.6764 57.4953 33.6246 55.2074 28.9302 51.0568C28.3993 50.6027 27.7111 50.3754 27.0142 50.4242C26.3172 50.4729 25.6674 50.7937 25.2048 51.3172C24.7422 51.8408 24.504 52.5253 24.5416 53.2229C24.5792 53.9206 24.8895 54.5755 25.4056 55.0463C31.0713 60.0592 38.3776 62.8221 45.9426 62.8125C63.0827 62.8125 77 48.8952 77 31.7551C77 14.6149 63.0827 0.697657 45.9426 0.697657C38.3776 0.688031 31.0713 3.45092 25.4056 8.46379C25.1373 8.69335 24.9172 8.97402 24.7584 9.28946C24.5996 9.60489 24.5051 9.94878 24.4804 10.3011C24.4558 10.6534 24.5015 11.0071 24.6149 11.3415C24.7284 11.676 24.9072 11.9846 25.141 12.2492C25.3748 12.5139 25.659 12.7294 25.9769 12.8832C26.2949 13.037 26.6402 13.1259 26.9929 13.1449C27.3455 13.1639 27.6984 13.1126 28.031 12.9938C28.3637 12.8751 28.6693 12.6914 28.9302 12.4533Z" fill="#FDC043"/>
<path fill-rule="evenodd" clip-rule="evenodd" d="M41.8608 16.1376V30.3353C41.8608 31.0417 42.1412 31.7196 42.6416 32.2165L53.9998 43.5747C54.4987 44.0736 55.1754 44.3539 55.881 44.3539C56.5865 44.3539 57.2632 44.0736 57.7622 43.5747C58.2611 43.0757 58.5414 42.399 58.5414 41.6935C58.5414 40.9879 58.2611 40.3112 57.7622 39.8123L47.1849 29.2315V16.1376C47.1849 15.4316 46.9044 14.7545 46.4052 14.2553C45.906 13.7561 45.2288 13.4756 44.5228 13.4756C43.8168 13.4756 43.1397 13.7561 42.6405 14.2553C42.1412 14.7545 41.8608 15.4316 41.8608 16.1376ZM3.34956 21.9942H24.6461C25.3521 21.9942 26.0292 21.7137 26.5284 21.2145C27.0277 20.7153 27.3081 20.0381 27.3081 19.3321C27.3081 18.6261 27.0277 17.949 26.5284 17.4498C26.0292 16.9505 25.3521 16.6701 24.6461 16.6701H3.34956C2.64354 16.6701 1.96643 16.9505 1.4672 17.4498C0.967967 17.949 0.6875 18.6261 0.6875 19.3321C0.6875 20.0381 0.967967 20.7153 1.4672 21.2145C1.96643 21.7137 2.64354 21.9942 3.34956 21.9942ZM6.89898 34.4172H28.1955C28.9015 34.4172 29.5786 34.1367 30.0779 33.6375C30.5771 33.1382 30.8576 32.4611 30.8576 31.7551C30.8576 31.0491 30.5771 30.372 30.0779 29.8727C29.5786 29.3735 28.9015 29.093 28.1955 29.093H6.89898C6.19296 29.093 5.51585 29.3735 5.01662 29.8727C4.51739 30.372 4.23692 31.0491 4.23692 31.7551C4.23692 32.4611 4.51739 33.1382 5.01662 33.6375C5.51585 34.1367 6.19296 34.4172 6.89898 34.4172ZM10.4484 46.8401H31.7449C32.4509 46.8401 33.128 46.5597 33.6273 46.0604C34.1265 45.5612 34.407 44.8841 34.407 44.1781C34.407 43.472 34.1265 42.7949 33.6273 42.2957C33.128 41.7965 32.4509 41.516 31.7449 41.516H10.4484C9.74238 41.516 9.06527 41.7965 8.56604 42.2957C8.0668 42.7949 7.78634 43.472 7.78634 44.1781C7.78634 44.8841 8.0668 45.5612 8.56604 46.0604C9.06527 46.5597 9.74238 46.8401 10.4484 46.8401Z" fill="#FDC043"/>
</svg>
