<svg width="28" height="28" viewBox="0 0 28 28" fill="none" xmlns="http://www.w3.org/2000/svg">
<path d="M14.0258 27.8649C21.5641 27.8649 27.6752 21.7538 27.6752 14.2155C27.6752 6.67709 21.5641 0.56604 14.0258 0.56604C6.48739 0.56604 0.376343 6.67709 0.376343 14.2155C0.376343 21.7538 6.48739 27.8649 14.0258 27.8649Z" fill="#29A71A"/>
<path d="M20.044 8.19729C18.6239 6.76301 16.738 5.88342 14.7265 5.71716C12.7149 5.55091 10.7102 6.10894 9.07391 7.2906C7.43759 8.47226 6.27739 10.1998 5.8026 12.1615C5.3278 14.1232 5.56965 16.1901 6.48453 17.9892L5.58646 22.3493C5.57715 22.3926 5.57688 22.4375 5.58569 22.481C5.5945 22.5245 5.61218 22.5657 5.63765 22.6021C5.67495 22.6572 5.7282 22.6997 5.79028 22.7238C5.85236 22.7479 5.92033 22.7525 5.98509 22.737L10.2583 21.7242C12.0524 22.6159 14.1046 22.8422 16.0499 22.3628C17.9951 21.8834 19.7072 20.7295 20.8815 19.1062C22.0558 17.483 22.6161 15.4958 22.4627 13.4982C22.3094 11.5006 21.4523 9.62225 20.044 8.19729ZM18.7116 18.8314C17.729 19.8112 16.4638 20.458 15.0942 20.6806C13.7245 20.9032 12.3196 20.6905 11.0773 20.0723L10.4816 19.7776L7.86188 20.398L7.86964 20.3654L8.41251 17.7286L8.12091 17.1532C7.48615 15.9065 7.26223 14.491 7.48123 13.1093C7.70023 11.7276 8.35091 10.4507 9.34005 9.46141C10.5829 8.21892 12.2684 7.52092 14.0258 7.52092C15.7833 7.52092 17.4687 8.21892 18.7116 9.46141C18.7222 9.47355 18.7336 9.48495 18.7457 9.49554C19.9732 10.7412 20.6585 12.4217 20.6521 14.1705C20.6457 15.9193 19.9482 17.5947 18.7116 18.8314Z" fill="white"/>
<path d="M18.479 16.8972C18.1579 17.4029 17.6507 18.0218 17.0132 18.1753C15.8964 18.4452 14.1825 18.1846 12.0498 16.1962L12.0234 16.1729C10.1482 14.4341 9.66114 12.987 9.77902 11.8392C9.84416 11.1878 10.387 10.5983 10.8446 10.2137C10.9169 10.1519 11.0027 10.108 11.0951 10.0853C11.1875 10.0627 11.2838 10.0619 11.3765 10.0832C11.4692 10.1044 11.5557 10.1471 11.629 10.2077C11.7022 10.2684 11.7603 10.3453 11.7985 10.4324L12.4887 11.9835C12.5336 12.084 12.5502 12.1949 12.5368 12.3042C12.5234 12.4135 12.4805 12.5171 12.4127 12.6039L12.0637 13.0568C11.9889 13.1503 11.9437 13.2641 11.934 13.3835C11.9243 13.5029 11.9506 13.6225 12.0095 13.7269C12.2049 14.0696 12.6733 14.5737 13.1929 15.0406C13.7761 15.568 14.4229 16.0504 14.8324 16.2148C14.942 16.2595 15.0624 16.2705 15.1783 16.2461C15.2941 16.2218 15.4 16.1633 15.4823 16.0783L15.8871 15.6703C15.9652 15.5933 16.0624 15.5384 16.1687 15.5111C16.2749 15.4839 16.3865 15.4853 16.492 15.5152L18.1315 15.9806C18.222 16.0083 18.3049 16.0564 18.3739 16.1211C18.4429 16.1857 18.4962 16.2654 18.5297 16.3538C18.5633 16.4423 18.5761 16.5372 18.5673 16.6314C18.5585 16.7256 18.5283 16.8165 18.479 16.8972Z" fill="white"/>
</svg>
